<svg xmlns="http://www.w3.org/2000/svg" xmlns:xlink="http://www.w3.org/1999/xlink" width="781.43" height="756.44"><defs><linearGradient id="b3f40125-0363-42ff-a31c-61eb5d655202" x1=".5" x2=".5" y1="1" y2="0"><stop offset="0" stop-color="gray" stop-opacity=".25"/><stop offset=".54" stop-color="gray" stop-opacity=".12"/><stop offset="1" stop-color="gray" stop-opacity=".1"/></linearGradient><linearGradient id="27ca4b3e-9552-41ad-8ba5-de2574048d20" x1="385.08" x2="385.08" y1="490.21" y2="258.44" xlink:href="#b3f40125-0363-42ff-a31c-61eb5d655202"/><linearGradient id="98d2c4cc-353c-49f3-ae94-49dceb95b558" x1="384.97" x2="384.97" y1="232.29" y2=".51" xlink:href="#b3f40125-0363-42ff-a31c-61eb5d655202"/><linearGradient id="1b187342-85ad-4174-acd7-e912b9a9009d" x1="661.23" x2="661.23" y1="231.77" y2="0" xlink:href="#b3f40125-0363-42ff-a31c-61eb5d655202"/><linearGradient id="5629c76b-b43c-4c6e-ad7d-c063ce4611c3" x1="115.89" x2="115.89" y1="482.62" y2="250.85" xlink:href="#b3f40125-0363-42ff-a31c-61eb5d655202"/><linearGradient id="94554b54-cbd9-41c5-8f29-6b4786d89c61" x1="665.55" x2="665.55" y1="495.47" y2="263.7" xlink:href="#b3f40125-0363-42ff-a31c-61eb5d655202"/><linearGradient id="897c833c-fa4a-4dad-90f9-1cb0d950ec3f" x1="116.72" x2="116.72" y1="743.15" y2="511.38" xlink:href="#b3f40125-0363-42ff-a31c-61eb5d655202"/><linearGradient id="b88de7bb-a3e6-477b-a3c4-5c16e389ed83" x1="392.03" x2="392.03" y1="756.44" y2="524.67" xlink:href="#b3f40125-0363-42ff-a31c-61eb5d655202"/></defs><title>team</title><g><title>background</title><rect id="canvas_background" width="582" height="402" x="-1" y="-1" fill="none"/></g><g><title>Layer 1</title><rect id="svg_85" width="21.51" height="10.76" x="2461.52" y="1317.14" fill="none" stroke="#333" stroke-miterlimit="10" stroke-width="2" rx="4.35" ry="4.35" transform="rotate(180 1578.4200439453125,857.75)"/><g id="svg_125"><circle id="svg_76" cx="665.54" cy="372.525" r="113.44" fill="#f5f5f5"/><circle id="svg_81" cx="664.66" cy="380.945" r="50.29" fill="#fdb797"/><g id="svg_74" opacity=".5"><circle id="svg_75" cx="665.54" cy="373.155" r="115.89" fill="url(#94554b54-cbd9-41c5-8f29-6b4786d89c61)"/></g><path id="svg_77" fill="#03a9f4" d="m666.859968,486.305006a112.91,112.91 0 0 0 62.36,-18.66c-4.18,-22.84 -20.09,-24.15 -20.09,-24.15l-87.72,0s-15,1.23 -19.7,22.25a112.92,112.92 0 0 0 65.15,20.56z"/><path id="svg_78" d="m646.989967,415.635005l35.09,0a0,0 0 0 1 0,0l0,28.07a17.54,17.54 0 0 1 -17.54,17.54l0,0a17.54,17.54 0 0 1 -17.55,-17.54l0,-28.07a0,0 0 0 1 0,0z" opacity=".1"/><path id="svg_79" fill="#fdb797" d="m650.339967,414.335005l28.39,0a3.35,3.35 0 0 1 3.35,3.35l0,24.72a17.54,17.54 0 0 1 -17.54,17.54l0,0a17.54,17.54 0 0 1 -17.55,-17.54l0,-24.72a3.35,3.35 0 0 1 3.35,-3.35z"/><path id="svg_80" d="m647.059968,428.885006a50.5,50.5 0 0 0 35.09,0.1l0,-4.31l-35.09,0l0,4.21z" opacity=".1"/><ellipse id="svg_82" cx="615.41" cy="378.795" fill="#fdb797" rx="4.68" ry="8.77"/><ellipse id="svg_83" cx="713.65" cy="378.795" fill="#fdb797" rx="4.68" ry="8.77"/><rect id="svg_84" width="21.51" height="10.76" x="634.02" y="381.185" fill="none" stroke="#333" stroke-miterlimit="10" stroke-width="2" rx="4.35" ry="4.35"/><path id="svg_86" fill="none" stroke="#333" stroke-miterlimit="10" stroke-width="2" d="m654.709968,382.225006s6.82,-3.7 19.5,0"/><path id="svg_87" fill="#858585" d="m699.429968,344.495006l12.34,28.67s15.09,-19.02 -12.34,-28.67z"/><line id="svg_88" x1="695.31" x2="713.73" y1="386.565" y2="370.115" fill="none" stroke="#333" stroke-linecap="round" stroke-linejoin="round" stroke-width="2"/><path id="svg_89" fill="#858585" d="m629.909968,344.495006l-12.34,28.67s-15.09,-19.02 12.34,-28.67z"/><line id="svg_90" x1="634.02" x2="615.35" y1="386.565" y2="370.115" fill="none" stroke="#333" stroke-linecap="round" stroke-linejoin="round" stroke-width="2"/><rect id="svg_126" width="21.51" height="10.76" x="673.02" y="381.185" fill="none" stroke="#333" stroke-miterlimit="10" stroke-width="2" rx="4.35" ry="4.35"/></g><g id="svg_127"><g id="svg_60" opacity=".5"><circle id="svg_61" cx="115.89" cy="373.155" r="115.89" fill="url(#5629c76b-b43c-4c6e-ad7d-c063ce4611c3)"/></g><circle id="svg_62" cx="116.11" cy="372.415" r="113.44" fill="#f5f5f5"/><path id="svg_63" fill="#03a9f4" d="m116.210001,486.305004a112.91,112.91 0 0 0 62.35,-18.66c-4.18,-22.84 -20.09,-24.15 -20.09,-24.15l-87.75,0s-15,1.23 -19.7,22.25a112.92,112.92 0 0 0 65.19,20.56z"/><circle id="svg_64" cx="115.01" cy="370.025" r="54.76" fill="#333"/><path id="svg_65" d="m97.34,415.635003l35.09,0a0,0 0 0 1 0,0l0,28.07a17.54,17.54 0 0 1 -17.54,17.54l0,0a17.54,17.54 0 0 1 -17.54,-17.54l0,-28.07a0,0 0 0 1 -0.01,0z" opacity=".1"/><path id="svg_66" fill="#fdb797" d="m100.69,414.335003l28.39,0a3.35,3.35 0 0 1 3.35,3.35l0,24.74a17.54,17.54 0 0 1 -17.54,17.54l0,0a17.54,17.54 0 0 1 -17.55,-17.54l0,-24.75a3.35,3.35 0 0 1 3.35,-3.35l0,0.01z"/><path id="svg_67" d="m97.410001,428.885004a50.5,50.5 0 0 0 35.09,0.1l0,-4.34l-35.09,0l0,4.24z" opacity=".1"/><circle id="svg_68" cx="115.01" cy="380.945" r="50.29" fill="#fdb797"/><path id="svg_69" d="m79.200001,335.195004s21.19,43 81,18l-13.92,-21.83l-24.67,-8.86l-42.41,12.69z" opacity=".1"/><path id="svg_70" fill="#333" d="m79.200001,334.565004s21.19,43 81,18l-13.92,-21.83l-24.67,-8.86l-42.41,12.69z"/><path id="svg_71" fill="#333" d="m79.010001,331.645004a29.05,29.05 0 0 1 7.2,-11.71c9.89,-9.78 26.11,-11.84 34.43,-23a6.51,6.51 0 0 1 -3,9.18c8,-0.05 17.21,-0.75 21.71,-7.31a14.91,14.91 0 0 1 -2.51,15.74c7.06,0.32 14.6,5.11 15.06,12.17c0.3,4.7 -2.64,9.15 -6.51,11.85s-8.54,3.93 -13.14,4.95c-13.42,2.98 -62,15.39 -53.24,-11.87z"/><ellipse id="svg_72" cx="64.7" cy="380.895" fill="#fdb797" rx="4.68" ry="8.77"/><ellipse id="svg_73" cx="165.29" cy="380.895" fill="#fdb797" rx="4.68" ry="8.77"/></g><g id="svg_128"><g id="svg_104" opacity=".5"><circle id="svg_105" cx="389" cy="640.55" r="115.89" fill="url(#b88de7bb-a3e6-477b-a3c4-5c16e389ed83)"/></g><circle id="svg_106" cx="389.23" cy="639.81" r="113.44" fill="#f5f5f5"/><path id="svg_107" fill="#333" d="m451.640002,650.989968c0,37.74 -27.11,56.31 -62.32,56.31s-65.16,-18.57 -65.16,-56.31s28.54,-68.33 63.74,-68.33s63.74,30.56 63.74,68.33z"/><path id="svg_108" fill="#03a9f4" d="m389.320002,753.699968a112.91,112.91 0 0 0 62.37,-18.66c-4.18,-22.84 -20.09,-24.15 -20.09,-24.15l-87.72,0s-15,1.23 -19.7,22.25a112.92,112.92 0 0 0 65.14,20.56z"/><path id="svg_109" d="m370.460001,682.999967l35.09,0a0,0 0 0 1 0,0l0,28.07a17.54,17.54 0 0 1 -17.58,17.57l0,0a17.54,17.54 0 0 1 -17.54,-17.54l0,-28.1a0,0 0 0 1 0.03,0z" opacity=".1"/><path id="svg_110" fill="#fda57d" d="m373.800001,681.729967l28.39,0a3.35,3.35 0 0 1 3.35,3.35l0,24.72a17.54,17.54 0 0 1 -17.57,17.54l0,0a17.54,17.54 0 0 1 -17.54,-17.54l0,-24.73a3.35,3.35 0 0 1 3.35,-3.35l0.02,0.01z"/><path id="svg_111" d="m370.530002,696.279968a50.5,50.5 0 0 0 35.09,0.1l0,-4.31l-35.09,0l0,4.21z" opacity=".1"/><circle id="svg_112" cx="388.13" cy="648.33" r="50.29" fill="#fda57d"/><path id="svg_113" d="m330.170002,651.619968s31.32,-3.8 55,-34.16c0,0 31.32,34.48 53.14,30.68c0,0 12.65,-13.29 0,-26.57s-22.46,-30.05 -39.22,-27.84s-37.33,3.16 -46.18,11.07s-22.74,46.82 -22.74,46.82z" opacity=".1"/><path id="svg_114" fill="#333" d="m330.170002,650.989968s31.32,-3.8 55,-34.16c0,0 31.32,34.48 53.14,30.68c0,0 12.65,-13.29 0,-26.57s-22.46,-30.05 -39.22,-27.84s-37.29,3.12 -46.14,11.12s-22.78,46.77 -22.78,46.77z"/><ellipse id="svg_115" cx="337.82" cy="648.29" fill="#fda57d" rx="4.68" ry="8.77"/><ellipse id="svg_116" cx="438.41" cy="648.29" fill="#fda57d" rx="4.68" ry="8.77"/></g><g id="svg_129"><g id="svg_91" opacity=".5"><circle id="svg_92" cx="115.89" cy="640.55" r="115.89" fill="url(#897c833c-fa4a-4dad-90f9-1cb0d950ec3f)"/></g><circle id="svg_93" cx="115.89" cy="639.92" r="113.44" fill="#f5f5f5"/><path id="svg_94" fill="#fdd835" d="m178.639999,650.120038c0,41.78 -27.26,88.29 -60.89,88.29s-60.86,-46.51 -60.86,-88.29s27.26,-63 60.89,-63s60.86,21.23 60.86,63z"/><path id="svg_95" fill="#03a9f4" d="m116.209999,753.710038a112.91,112.91 0 0 0 62.36,-18.66c-4.18,-22.84 -20.09,-24.15 -20.09,-24.15l-87.71,0s-15,1.23 -19.7,22.25a112.92,112.92 0 0 0 65.14,20.56z"/><path id="svg_96" d="m97.349998,683.030037l35.09,0a0,0 0 0 1 0,0l0,28.07a17.54,17.54 0 0 1 -17.54,17.54l0,0a17.54,17.54 0 0 1 -17.54,-17.54l0,-28.07a0,0 0 0 1 -0.01,0z" opacity=".1"/><path id="svg_97" fill="#fdb797" d="m100.699998,681.730037l28.39,0a3.35,3.35 0 0 1 3.35,3.35l0,24.72a17.54,17.54 0 0 1 -17.54,17.54l0,0a17.54,17.54 0 0 1 -17.54,-17.54l0,-24.72a3.35,3.35 0 0 1 3.34,-3.35z"/><path id="svg_98" d="m97.419999,696.280038a50.5,50.5 0 0 0 35.09,0.1l0,-4.31l-35.09,0l0,4.21z" opacity=".1"/><circle id="svg_99" cx="115.02" cy="648.34" r="50.29" fill="#fdb797"/><ellipse id="svg_100" cx="65.77" cy="646.19" fill="#fdb797" rx="4.68" ry="8.77"/><ellipse id="svg_101" cx="164.01" cy="646.19" fill="#fdb797" rx="4.68" ry="8.77"/><path id="svg_102" d="m70.459999,621.060038s28.43,38.91 93.63,25.62c0,0 7.28,-8.86 -10.44,-36.06s-67.06,-22.77 -83.19,10.44z" opacity=".1"/><path id="svg_103" fill="#fdd835" d="m70.459999,620.430038s28.43,38.91 93.63,25.62c0,0 7.28,-8.86 -10.44,-36.06s-67.06,-22.77 -83.19,10.44z"/></g><g id="svg_130"><g id="svg_45" opacity=".5"><circle id="svg_46" cx="665.54" cy="115.89" r="115.89" fill="url(#1b187342-85ad-4174-acd7-e912b9a9009d)"/></g><circle id="svg_47" cx="665.76" cy="116.14" r="113.44" fill="#f5f5f5"/><path id="svg_48" fill="#03a9f4" d="m665.860067,229.040001a112.91,112.91 0 0 0 62.36,-18.66c-4.19,-22.85 -20.09,-24.16 -20.09,-24.16l-87.71,0s-15,1.23 -19.7,22.25a112.92,112.92 0 0 0 65.14,20.57z"/><circle id="svg_49" cx="664.67" cy="112.75" r="54.76" fill="#72351c"/><path id="svg_50" d="m646.990066,158.36l35.09,0a0,0 0 0 1 0,0l0,28.07a17.54,17.54 0 0 1 -17.54,17.57l0,0a17.54,17.54 0 0 1 -17.54,-17.54l0,-28.1a0,0 0 0 1 -0.01,0z" opacity=".1"/><path id="svg_51" fill="#fda57d" d="m650.310066,157.06l28.39,0a3.35,3.35 0 0 1 3.35,3.35l0,24.72a17.54,17.54 0 0 1 -17.54,17.54l0,0a17.54,17.54 0 0 1 -17.54,-17.54l0,-24.72a3.35,3.35 0 0 1 3.35,-3.35l-0.01,0z"/><path id="svg_52" d="m647.030067,171.610001a50.5,50.5 0 0 0 35.09,0.1l0,-4.31l-35.09,0l0,4.21z" opacity=".1"/><circle id="svg_53" cx="664.67" cy="123.67" r="50.29" fill="#fda57d"/><path id="svg_54" d="m628.850067,77.930001s21.19,43 81,18l-13.92,-21.83l-24.67,-8.86l-42.41,12.69z" opacity=".1"/><path id="svg_55" fill="#72351c" d="m628.850067,77.300001s21.19,43 81,18l-13.92,-21.83l-24.67,-8.86l-42.41,12.69z"/><path id="svg_56" fill="#72351c" d="m628.660067,74.390001a29.05,29.05 0 0 1 7.2,-11.71c9.89,-9.78 26.11,-11.84 34.43,-23a6.51,6.51 0 0 1 -3,9.18c8,-0.05 17.21,-0.75 21.71,-7.31a14.91,14.91 0 0 1 -2.51,15.74c7.06,0.32 14.6,5.11 15.06,12.17c0.3,4.7 -2.64,9.15 -6.51,11.85s-8.53,3.91 -13.13,4.91c-13.42,3 -62.01,15.41 -53.25,-11.83z"/><path id="svg_57" fill="#72351c" d="m714.960067,124.110001l-1.33,0l-25.94,23.11c-25,-11.7 -43.34,0 -43.34,0l-27.2,-22.14l-2.74,0.34a50.29,50.29 0 0 0 100.56,-1.29l-0.01,-0.02zm-50.35,31.97c-9.78,0 -17.71,-2 -17.71,-4.43s7.93,-4.43 17.71,-4.43s17.71,2 17.71,4.43s-7.94,4.41 -17.73,4.41l0.02,0.02z"/><ellipse id="svg_58" cx="614.36" cy="123.62" fill="#fda57d" rx="4.68" ry="8.77"/><ellipse id="svg_59" cx="714.95" cy="123.62" fill="#fda57d" rx="4.68" ry="8.77"/></g><g id="svg_131"><g id="svg_31" opacity=".5"><circle id="svg_32" cx="389" cy="115.89" r="115.89" fill="url(#98d2c4cc-353c-49f3-ae94-49dceb95b558)"/></g><circle id="svg_33" cx="389" cy="115.26" r="113.44" fill="#f5f5f5"/><path id="svg_34" fill="#333" d="m344.75,116.269999s-12.86,63.36 -19.88,59.85c0,0 67.7,58.48 127.48,0c0,0 -10.53,-44.65 -25.73,-59.85l-81.87,0z"/><path id="svg_35" fill="#03a9f4" d="m389.32,229.039999a112.91,112.91 0 0 0 62.36,-18.66c-4.18,-22.84 -20.09,-24.15 -20.09,-24.15l-87.72,0s-15,1.23 -19.7,22.25a112.92,112.92 0 0 0 65.15,20.56z"/><circle id="svg_36" cx="388.12" cy="112.76" r="50.29" fill="#333"/><path id="svg_37" d="m370.449999,158.369998l35.09,0a0,0 0 0 1 0,0l0,28.07a17.54,17.54 0 0 1 -17.51,17.54l0,0a17.54,17.54 0 0 1 -17.54,-17.54l0,-28.07a0,0 0 0 1 -0.04,0z" opacity=".1"/><path id="svg_38" fill="#be7c5e" d="m373.799999,157.069998l28.39,0a3.35,3.35 0 0 1 3.35,3.35l0,24.72a17.54,17.54 0 0 1 -17.51,17.54l0,0a17.54,17.54 0 0 1 -17.54,-17.54l0,-24.73a3.35,3.35 0 0 1 3.31,-3.34z"/><path id="svg_39" d="m370.52,171.619999a50.5,50.5 0 0 0 35.09,0.1l0,-4.31l-35.09,0l0,4.21z" opacity=".1"/><circle id="svg_40" cx="388.12" cy="123.67" r="50.29" fill="#be7c5e"/><path id="svg_41" fill="#333" d="m340.05,104.569999l95.9,0s-8.19,-38.72 -44.44,-36.25s-51.46,36.25 -51.46,36.25z"/><ellipse id="svg_42" cx="338.87" cy="121.53" fill="#be7c5e" rx="4.68" ry="8.77"/><ellipse id="svg_43" cx="437.11" cy="121.53" fill="#be7c5e" rx="4.68" ry="8.77"/><path id="svg_44" d="m340.05,105.869999l95.9,0s-8.19,-38.72 -44.44,-36.25s-51.46,36.25 -51.46,36.25z" opacity=".1"/></g><g id="svg_133"><g id="svg_1" opacity=".5"><circle id="svg_2" cx="115.89" cy="115.89" r="115.89" fill="url(#b3f40125-0363-42ff-a31c-61eb5d655202)"/></g><circle id="svg_3" cx="115.89" cy="115.26" r="113.44" fill="#f5f5f5"/><path id="svg_4" fill="#03a9f4" d="m116.209999,229.020004a112.91,112.91 0 0 0 62.36,-18.66c-4.18,-22.84 -20.09,-24.15 -20.09,-24.15l-87.71,0s-15,1.23 -19.7,22.25a112.92,112.92 0 0 0 65.14,20.56z"/><circle id="svg_5" cx="115.02" cy="112.76" r="50.29" fill="#333"/><path id="svg_6" d="m97.349998,158.370003l35.09,0a0,0 0 0 1 0,0l0,28.07a17.54,17.54 0 0 1 -17.54,17.54l0,0a17.54,17.54 0 0 1 -17.54,-17.54l0,-28.07a0,0 0 0 1 -0.01,0z" opacity=".1"/><path id="svg_7" fill="#be7c5e" d="m100.699998,157.070003l28.39,0a3.35,3.35 0 0 1 3.35,3.35l0,24.72a17.54,17.54 0 0 1 -17.54,17.54l0,0a17.54,17.54 0 0 1 -17.54,-17.54l0,-24.72a3.35,3.35 0 0 1 3.34,-3.35z"/><path id="svg_8" d="m97.419999,171.620004a50.5,50.5 0 0 0 35.09,0.1l0,-4.31l-35.09,0l0,4.21z" opacity=".1"/><circle id="svg_9" cx="115.02" cy="123.68" r="50.29" fill="#be7c5e"/><path id="svg_10" fill="#333" d="m84.549999,102.940004c0.59,-2.17 1.33,-4.56 3.28,-5.69c1.54,-0.9 3.45,-0.76 5.23,-0.67c13.9,0.76 27.68,-2.41 41.2,-5.72c7.73,-1.89 16,-4.19 21,-10.42s-1.52,-25.81 -9.13,-28.12c-5,-1.53 -10.8,1.32 -15.54,-0.92c-2.11,-1 -3.66,-2.87 -5.48,-4.33c-3.73,-3 -8.52,-4.21 -13.16,-5.35c-5.42,-1.34 -11.28,-2.65 -16.43,-0.5c-4,1.66 -6.92,5.17 -10.71,7.25c-7.21,4 -16,2.14 -24.26,2.12c-2.79,0 -6.12,0.56 -7.23,3.12c-0.75,1.74 -0.15,3.72 -0.07,5.61c0.24,6 -4.71,10.67 -8.86,15s-8.07,10.51 -5.45,15.89c1,2.05 2.83,3.6 3.87,5.63c1.79,3.52 0.89,7.77 1.54,11.66a29.34,29.34 0 0 0 3.27,8.4c3.08,6 18.55,38.3 25.66,30.09c3.44,-4 4,-15.56 5.39,-20.76q2.88,-11.21 5.88,-22.29z"/><ellipse id="svg_11" cx="79.24" cy="121.85" fill="#be7c5e" rx="4.68" ry="8.77"/></g><g id="svg_134"><g id="svg_12" opacity=".5"><circle id="svg_13" cx="389" cy="373.155" r="115.89" fill="url(#27ca4b3e-9552-41ad-8ba5-de2574048d20)"/></g><circle id="svg_14" cx="389.22" cy="373.415" r="113.44" fill="#f5f5f5"/><path id="svg_15" fill="#03a9f4" d="m389.320015,486.305016a112.91,112.91 0 0 0 62.32,-18.66c-4.18,-22.84 -20.09,-24.15 -20.09,-24.15l-87.68,0s-15,1.23 -19.7,22.25a112.92,112.92 0 0 0 65.15,20.56z"/><circle id="svg_16" cx="388.12" cy="370.025" r="54.76" fill="#f55f44"/><path id="svg_17" d="m370.450013,415.635014l35.09,0a0,0 0 0 1 0,0l0,28.07a17.54,17.54 0 0 1 -17.54,17.54l0,0a17.54,17.54 0 0 1 -17.54,-17.54l0,-28.07a0,0 0 0 1 -0.01,0z" opacity=".1"/><path id="svg_18" fill="#fda57d" d="m373.800013,414.335014l28.39,0a3.35,3.35 0 0 1 3.35,3.35l0,24.72a17.54,17.54 0 0 1 -17.54,17.54l0,0a17.54,17.54 0 0 1 -17.54,-17.54l0,-24.72a3.35,3.35 0 0 1 3.35,-3.35l-0.01,0z"/><path id="svg_19" d="m370.520015,428.885016a50.5,50.5 0 0 0 35.09,0.1l0,-4.31l-35.09,0l0,4.21z" opacity=".1"/><circle id="svg_20" cx="389.12" cy="380.945" r="50.29" fill="#fda57d"/><circle id="svg_21" cx="388.05" cy="314.325" r="20.24" fill="#f55f44"/><circle id="svg_22" cx="388.05" cy="294.395" r="13.29" fill="#f55f44"/><path id="svg_23" fill="#f55f44" d="m379.270015,325.425016a20.24,20.24 0 0 1 -10.55,-25.88c-0.14,0.28 -0.28,0.57 -0.41,0.86a20.24,20.24 0 1 0 36.94,16.57c0.13,-0.29 0.25,-0.58 0.37,-0.88a20.24,20.24 0 0 1 -26.35,9.33z"/><path id="svg_24" d="m352.310015,335.205016s21.19,43 81,18l-13.92,-21.83l-24.67,-8.86l-42.41,12.69z" opacity=".1"/><path id="svg_25" fill="#f55f44" d="m352.310015,334.565016s21.19,43 81,18l-13.92,-21.83l-24.67,-8.86l-42.41,12.69z"/><path id="svg_26" fill="#333" d="m368.640015,318.905016a249.85,249.85 0 0 1 39.18,0s-28.94,2.69 -39.18,0z"/><path id="svg_27" fill="#f55f44" d="m391.090015,280.295016a13.32,13.32 0 0 0 -3,0.23l0.77,0a13.28,13.28 0 0 1 2,26.33a13.28,13.28 0 0 0 0.24,-26.56l-0.01,0z"/><ellipse id="svg_28" cx="337.82" cy="380.895" fill="#fda57d" rx="4.68" ry="8.77"/><ellipse id="svg_29" cx="438.41" cy="380.895" fill="#fda57d" rx="4.68" ry="8.77"/><polygon id="svg_30" fill="#f55f44" points="349.14 335.835 358.95 330.775 361.16 338.885 355.15 342.975 349.14 335.835"/></g><desc transform="matrix(0.2543117551818028,0,0,0.2543117551818028,0,0)">Created with Sketch.</desc><g id="svg_195"><g id="svg_162" transform="matrix(0.2543117551818028,0,0,0.2543117551818028,0,0)"><g id="svg_163"><g id="svg_175"><g id="svg_176"><defs transform="translate(0,-19.916568756103516) translate(1286.3623046875,0) translate(0,1237.229736328125)"><filter id="svg_183" width="500" height="500" x="0" y="0" filterUnits="userSpaceOnUse"/></defs><mask id="svg_178" width="500" height="500" x="0" y="0" maskUnits="userSpaceOnUse" transform="translate(0,-19.916568756103516) translate(1286.3623046875,0) translate(0,1237.229736328125)"><g id="svg_187" filter="url(#svg_183)"><path id="svg_184" fill="#FFF" d="m36,0l428,0c19.882,0 36,16.118 36,36l0,428c0,19.883 -16.118,36 -36,36l-428,0c-19.883,0 -36,-16.117 -36,-36l0,-428c0,-19.882 16.117,-36 36,-36z"/></g></mask><g id="svg_177" mask="url(#svg_178)"><g id="svg_181"><linearGradient id="svg_182" x1=".5" x2=".5" y1=".908" y2=".063" transform="translate(0,-19.916568756103516) translate(1286.3623046875,0) translate(0,1237.229736328125)"><stop offset="0" stop-color="#6CCCF7"/><stop offset="1" stop-color="#41BDF5"/></linearGradient><path id="svg_188" fill="url(#svg_182)" d="m1785.362305,1467.313168c0,-138.072 -111.928,-250 -250,-250c-130.558,0 -237.722,100.085 -249,227.713l0,44.574c11.278,127.628 118.442,227.713 249,227.713c138.072,0 250,-111.929 250,-250z"/></g><path id="svg_180" fill="#FFF" fill-opacity=".25" d="m1786.362305,1469.813168l0,-206.35c0,-16.048 -1.671,-21.866 -4.809,-27.733c-3.138,-5.866 -7.742,-10.471 -13.608,-13.608c-5.867,-3.138 -11.686,-4.809 -27.733,-4.809l-407.7,0c-16.047,0 -21.867,1.671 -27.733,4.808c-5.867,3.138 -10.471,7.743 -13.608,13.609c-3.138,5.867 -4.809,11.685 -4.809,27.733l0,206.35l0,-201.35c0,-16.048 1.671,-21.866 4.809,-27.733c3.137,-5.866 7.741,-10.471 13.608,-13.608c5.866,-3.138 11.686,-4.809 27.733,-4.809l407.7,0c16.047,0 21.866,1.671 27.733,4.809c5.866,3.138 10.471,7.742 13.608,13.608c3.138,5.867 4.809,11.685 4.809,27.733l0,201.35z"/><path id="svg_179" fill-opacity=".15" d="m1786.362305,1464.813168l0,206.35c0,16.047 -1.671,21.866 -4.809,27.733c-3.138,5.866 -7.742,10.471 -13.608,13.608c-5.867,3.139 -11.686,4.809 -27.733,4.809l-407.7,0c-16.047,0 -21.866,-1.67 -27.732,-4.808c-5.867,-3.138 -10.472,-7.742 -13.608,-13.608c-3.139,-5.867 -4.81,-11.687 -4.81,-27.734l0,-206.35l0,201.35c0,16.047 1.671,21.866 4.809,27.733c3.137,5.866 7.741,10.471 13.608,13.608c5.866,3.139 11.686,4.809 27.733,4.809l407.7,0c16.047,0 21.866,-1.67 27.733,-4.808c5.866,-3.138 10.471,-7.742 13.608,-13.608c3.138,-5.867 4.809,-11.687 4.809,-27.733l0,-201.351z"/></g></g></g><g id="svg_164"><defs transform="translate(0,-19.916568756103516) translate(1286.3623046875,0) translate(0,1237.229736328125) translate(52,70)"><filter id="svg_172" width="354.761" height="312.76" x="21.12" y="13.619" filterUnits="userSpaceOnUse"/></defs><mask id="svg_166" width="354.761" height="312.76" x="21.12" y="13.619" maskUnits="userSpaceOnUse" transform="translate(0,-19.916568756103516) translate(1286.3623046875,0) translate(0,1237.229736328125) translate(52,70)"><g id="svg_189" filter="url(#svg_172)"><path id="svg_173" fill="#FFF" d="m60.574,319.43l0,-119.062l-31.107,0c-4.607,0 -8.341,-3.734 -8.341,-8.341c0,-2.196 0.865,-4.304 2.409,-5.861l167.513,-169.469l0,0c4.046,-4.094 10.647,-4.133 14.742,-0.085c0.023,0.022 0.046,0.045 0.068,0.068l87.475,88.07l0,-16.285l0,0c0,-3.838 3.113,-6.95 6.952,-6.95l29.07,0l0,0c3.838,0 6.948,3.112 6.948,6.95l0,59.804l37.185,37.919c3.226,3.289 3.174,8.569 -0.115,11.793c-1.559,1.531 -3.655,2.388 -5.838,2.388l-31.231,0l0,119.061c0,3.838 -3.11,6.949 -6.948,6.949l-261.831,0c-3.839,0.001 -6.951,-3.111 -6.951,-6.949l0,0zm184.9,-145.454c0.839,-1.75 1.31,-3.71 1.31,-5.78c0,-7.403 -6.013,-13.404 -13.43,-13.404s-13.428,6.001 -13.428,13.404c0,7.403 6.011,13.405 13.428,13.405c2.073,0 4.036,-0.469 5.789,-1.307l19.276,19.244l0,18.639l-24.171,24.128l0,-17.677c5.217,-1.842 8.954,-6.807 8.954,-12.644c0,-7.402 -6.013,-13.403 -13.43,-13.403c-7.415,0 -13.428,6.001 -13.428,13.403c0,5.837 3.735,10.802 8.952,12.644l0,26.613l-22.381,22.342l0,-131.238l18.38,-18.349c1.755,0.838 3.717,1.306 5.793,1.306c7.414,0 13.426,-6.001 13.426,-13.404c0,-7.402 -6.012,-13.404 -13.426,-13.404c-7.418,0 -13.43,6.002 -13.43,13.404c0,2.07 0.47,4.03 1.307,5.779l-16.526,16.499l-16.527,-16.499c0.839,-1.749 1.309,-3.709 1.309,-5.779c0,-7.402 -6.012,-13.404 -13.429,-13.404c-7.416,0 -13.428,6.002 -13.428,13.404c0,7.403 6.012,13.404 13.428,13.404c2.074,0 4.037,-0.468 5.791,-1.306l18.381,18.349l0,93.705l-32.229,-32.173l0,-25.719c5.216,-1.841 8.952,-6.806 8.952,-12.642c0,-7.404 -6.012,-13.405 -13.429,-13.405c-7.415,0 -13.428,6.001 -13.428,13.405c0,5.836 3.736,10.801 8.953,12.642l0,16.783l-25.066,-25.021l0,-24.827c5.214,-1.84 8.952,-6.804 8.952,-12.641c0,-7.403 -6.012,-13.405 -13.429,-13.405c-7.415,0 -13.427,6.002 -13.427,13.405c0,5.836 3.736,10.801 8.952,12.641l0,28.53l27.688,27.637l-15.918,0c-1.844,-5.205 -6.818,-8.936 -12.666,-8.936c-7.416,0 -13.428,6.002 -13.428,13.405s6.013,13.403 13.428,13.403c5.847,0 10.822,-3.73 12.666,-8.936l24.872,0l38.558,38.49l0,66.895l-20.591,-20.553l0,-25.722c5.216,-1.84 8.952,-6.805 8.952,-12.64c0,-7.405 -6.012,-13.405 -13.428,-13.405c-7.416,0 -13.429,6 -13.429,13.405c0,5.835 3.736,10.8 8.953,12.64l0,16.784l-29.956,-29.902c0.838,-1.749 1.309,-3.709 1.309,-5.778c0,-7.401 -6.013,-13.404 -13.428,-13.404c-7.417,0 -13.429,6.003 -13.429,13.404s6.011,13.404 13.429,13.404c2.072,0 4.036,-0.468 5.788,-1.307l29.957,29.901l-15.919,0c-1.844,-5.205 -6.818,-8.936 -12.665,-8.936c-7.416,0 -13.428,6.003 -13.428,13.406c0,7.401 6.012,13.403 13.428,13.403c5.846,0 10.82,-3.729 12.665,-8.937l24.872,0l25.067,25.021l12.661,0l25.961,-25.915l23.978,0c1.844,5.208 6.816,8.938 12.664,8.938c7.414,0 13.428,-6.001 13.428,-13.406c0,-7.403 -6.014,-13.403 -13.428,-13.403c-5.848,0 -10.82,3.729 -12.664,8.937l-27.686,0l-24.107,24.063l0,-29.362l28.71,-28.66l46.357,0c1.843,5.207 6.817,8.937 12.665,8.937c7.418,0 13.429,-6 13.429,-13.404c0,-7.403 -6.011,-13.405 -13.429,-13.405c-5.848,0 -10.822,3.731 -12.665,8.938l-37.404,0l26.794,-26.745l0,-22.341l19.276,-19.244c1.753,0.838 3.716,1.307 5.79,1.307c7.416,0 13.428,-6.002 13.428,-13.405c0,-7.403 -6.012,-13.404 -13.428,-13.404c-7.417,0 -13.429,6.001 -13.429,13.404c0,2.07 0.47,4.03 1.308,5.78l-12.945,12.925l0,-40.915c5.215,-1.84 8.952,-6.805 8.952,-12.641c0,-7.403 -6.013,-13.405 -13.43,-13.405c-7.416,0 -13.429,6.001 -13.429,13.405c0,5.836 3.737,10.801 8.952,12.641l0,40.915l-12.947,-12.924zm-115.967,128.265c-2.966,0 -5.372,-2.399 -5.372,-5.36c0,-2.963 2.405,-5.362 5.372,-5.362c2.967,0 5.372,2.399 5.372,5.362c0,2.961 -2.405,5.36 -5.372,5.36zm39.39,-40.213c-2.966,0 -5.372,-2.401 -5.372,-5.36c0,-2.963 2.405,-5.363 5.372,-5.363c2.967,0 5.372,2.4 5.372,5.363c0,2.959 -2.405,5.36 -5.372,5.36zm-46.551,-6.257c-2.966,0 -5.373,-2.4 -5.373,-5.36c0,-2.959 2.406,-5.361 5.373,-5.361c2.965,0 5.371,2.402 5.371,5.361c0,2.96 -2.406,5.36 -5.371,5.36zm-4.477,-44.679c-2.965,0 -5.371,-2.401 -5.371,-5.362s2.405,-5.361 5.371,-5.361c2.967,0 5.371,2.4 5.371,5.361s-2.404,5.362 -5.371,5.362zm111.904,6.254c-2.966,0 -5.371,-2.399 -5.371,-5.362s2.405,-5.362 5.371,-5.362c2.967,0 5.372,2.399 5.372,5.362s-2.405,5.362 -5.372,5.362zm60.876,41.108c-2.967,0 -5.371,-2.4 -5.371,-5.362c0,-2.961 2.404,-5.361 5.371,-5.361c2.966,0 5.371,2.4 5.371,5.361c0,2.961 -2.405,5.362 -5.371,5.362zm-23.276,42.893c-2.968,0 -5.373,-2.398 -5.373,-5.362c0,-2.961 2.405,-5.362 5.373,-5.362c2.967,0 5.37,2.401 5.37,5.362c0,2.964 -2.403,5.362 -5.37,5.362zm25.067,-127.789c-2.967,0 -5.372,-2.4 -5.372,-5.362c0,-2.961 2.405,-5.361 5.372,-5.361c2.966,0 5.371,2.399 5.371,5.361c0,2.962 -2.405,5.362 -5.371,5.362zm-29.544,-34.851c-2.966,0 -5.371,-2.401 -5.371,-5.362c0,-2.961 2.405,-5.363 5.371,-5.363c2.968,0 5.372,2.401 5.372,5.363c0,2.961 -2.404,5.362 -5.372,5.362zm-35.807,-21.447c-2.969,0 -5.374,-2.4 -5.374,-5.362c0,-2.961 2.405,-5.361 5.374,-5.361c2.964,0 5.369,2.4 5.369,5.361c0,2.961 -2.405,5.362 -5.369,5.362zm-57.297,0c-2.966,0 -5.371,-2.4 -5.371,-5.362c0,-2.961 2.405,-5.361 5.371,-5.361c2.968,0 5.372,2.4 5.372,5.361c0,2.961 -2.404,5.362 -5.372,5.362zm-46.552,20.554c-2.965,0 -5.371,-2.401 -5.371,-5.362c0,-2.961 2.406,-5.362 5.371,-5.362c2.968,0 5.373,2.401 5.373,5.362c-0.001,2.961 -2.406,5.362 -5.373,5.362zm34.019,33.064c-2.965,0 -5.371,-2.401 -5.371,-5.362c0,-2.962 2.406,-5.362 5.371,-5.362c2.968,0 5.371,2.4 5.371,5.362c0,2.961 -2.404,5.362 -5.371,5.362zm76.095,2.68c-2.967,0 -5.371,-2.4 -5.371,-5.362c0,-2.961 2.404,-5.361 5.371,-5.361s5.371,2.399 5.371,5.361c0,2.962 -2.404,5.362 -5.371,5.362z"/></g></mask><g id="svg_165" mask="url(#svg_166)"><linearGradient id="svg_171" x1=".5" x2=".5" y1=".582" y2="0" transform="translate(0,-19.916568756103516) translate(1286.3623046875,0) translate(0,1237.229736328125) translate(52,70)"><stop offset="0" stop-color="#FFF"/><stop offset="1" stop-color="#D9D9D9"/></linearGradient><path id="svg_190" fill="url(#svg_171)" d="m1380.503305,1300.932168l-21.021,0l0,23.298c6.458,-8.252 13.487,-16.035 21.021,-23.298z"/><linearGradient id="svg_170" x1=".5" x2=".5" y1=".582" y2="-.001" transform="translate(0,-19.916568756103516) translate(1286.3623046875,0) translate(0,1237.229736328125) translate(52,70)"><stop offset="0" stop-color="#FFF"/><stop offset="1" stop-color="#D9D9D9"/></linearGradient><path id="svg_191" fill="url(#svg_170)" d="m1359.482305,1613.693168l12.259,0c-4.28,-4.612 -8.376,-9.398 -12.259,-14.362l0,14.362z"/><linearGradient id="svg_169" x1=".5" x2=".5" y1=".582" y2="0" transform="translate(0,-19.916568756103516) translate(1286.3623046875,0) translate(0,1237.229736328125) translate(52,70)"><stop offset="0" stop-color="#FFF"/><stop offset="1" stop-color="#D9D9D9"/></linearGradient><path id="svg_192" fill="url(#svg_169)" d="m1714.243305,1327.728168l0,-26.796l-23.703,0c8.591,8.281 16.521,17.238 23.703,26.796z"/><linearGradient id="svg_168" x1=".5" x2=".5" y1=".582" y2="0" transform="translate(0,-19.916568756103516) translate(1286.3623046875,0) translate(0,1237.229736328125) translate(52,70)"><stop offset="0" stop-color="#FFF"/><stop offset="1" stop-color="#D9D9D9"/></linearGradient><path id="svg_193" fill="url(#svg_168)" d="m1714.243305,1595.834168c-4.669,6.216 -9.663,12.17 -14.941,17.858l14.941,0l0,-17.858z"/><linearGradient id="svg_167" x1=".5" x2=".5" y1=".582" y2="0" transform="translate(0,-19.916568756103516) translate(1286.3623046875,0) translate(0,1237.229736328125) translate(52,70)"><stop offset="0" stop-color="#FFF"/><stop offset="1" stop-color="#D9D9D9"/></linearGradient><path id="svg_194" fill="url(#svg_167)" d="m1714.243305,1327.728168c-7.182,-9.558 -15.112,-18.515 -23.703,-26.795l-310.037,0c-7.534,7.262 -14.563,15.045 -21.021,23.298l0,275.1c3.882,4.964 7.979,9.75 12.259,14.362l327.561,0c5.278,-5.688 10.272,-11.643 14.941,-17.858l0,-268.107z"/></g></g></g></g></g></g></svg>