<?xml version="1.0" encoding="UTF-8"?>
<svg width="1200px" height="630px" viewBox="0 0 1200 630" xmlns="http://www.w3.org/2000/svg" xmlns:xlink="http://www.w3.org/1999/xlink" version="1.1">
 <!-- Generated by Pixelmator Pro 2.0.5 -->
 <path id="Rectangle" d="M0 630 L1200 630 1200 0 0 0 Z" fill="#03a9f4" fill-opacity="1" stroke="none"/>
 <g id="New-Group">
  <defs>
   <text id="string" transform="matrix(1.0 0.0 0.0 1.0 242.1875 239.9375)" y="118.0" font-size="127.012" fill="#ffffff" text-decoration="none" font-family="Roboto-Regular, Roboto" x="1.0">Home Assistant</text>
  </defs>
  <use id="Home-Assistant" xlink:href="#string"/>
  <g id="my_home_assistant_logo">
   <path id="Path" d="M49.191 337.088 L49.704 346.456 Q49.704 347.226 49.576 349.279 49.576 351.332 48.036 353 46.624 354.54 44.443 354.54 42.39 354.54 41.235 354.412 37 354.412 37 350.691 37 347.611 39.823 325.924 42.646 304.108 43.416 297.82 44.186 291.532 44.7 287.297 45.341 282.934 45.598 280.881 45.855 278.828 46.368 276.775 46.881 274.721 47.908 273.438 49.833 271 55.351 271 64.59 275.62 74.343 297.179 81.273 312.578 83.582 316.684 85.892 320.791 88.074 322.33 L113.739 277.673 Q116.434 275.748 117.845 275.748 121.952 275.748 124.133 279.47 126.315 283.191 127.727 288.581 129.267 293.842 130.293 300.258 131.448 306.675 132.218 313.733 133.116 320.662 133.886 327.335 135.683 343.376 136.581 347.482 137.608 351.589 137.608 353.385 137.608 355.054 136.453 356.722 135.298 358.262 133.245 358.262 131.191 358.262 129.138 356.722 127.085 355.054 126.572 352.744 126.187 350.306 125.673 346.456 125.288 342.606 124.647 337.858 124.005 332.982 123.364 327.72 122.722 322.33 122.08 317.454 121.439 312.578 120.925 308.856 120.412 305.006 120.155 303.082 120.155 300.515 120.027 298.333 119.899 296.152 119 295.639 118.102 295.125 116.177 296.922 114.381 298.59 111.044 303.852 103.858 315.016 90.255 341.451 88.459 344.659 85.507 342.863 82.042 340.938 79.604 332.982 L55.992 282.806 Q52.912 288.966 50.346 323.614 49.961 327.849 49.833 330.8 49.191 334.008 49.191 337.088 Z" fill="#ffffff" fill-opacity="1" stroke="none"/>
   <path id="Path-1" d="M172.769 406.897 Q170.074 412.929 166.353 412.929 164.556 412.929 163.658 411.26 162.888 409.721 163.658 407.539 166.481 395.605 171.742 380.334 177.132 365.063 178.929 359.802 174.437 355.31 164.813 341.836 145.051 314.118 145.051 311.423 145.051 311.294 145.179 311.166 L150.055 306.29 Q160.193 315.658 176.491 338.115 180.597 343.761 183.035 347.611 185.73 342.221 187.27 338.371 188.81 334.393 189.708 332.083 190.735 329.645 192.403 325.667 196.766 315.016 204.466 298.59 205.621 298.077 206.904 298.077 210.112 298.077 211.524 299.745 212.037 300.387 212.037 301.285 212.037 302.055 211.78 302.825 Z" fill="#ffffff" fill-opacity="1" stroke="none"/>
   <path id="Path-2" d="M41.301 374.928 L157.691 374.928 C160.945 374.928 164.325 375.522 164.325 378.777 164.325 382.031 160.945 386.706 157.691 386.678 L41.808 385.664 C38.554 385.636 37.2 384.058 37.2 380.803 37.2 377.548 38.047 374.928 41.301 374.928 Z" fill="#ffffff" fill-opacity="1" stroke="none"/>
  </g>
 </g>
</svg>
