<svg xmlns="http://www.w3.org/2000/svg" xmlns:xlink="http://www.w3.org/1999/xlink" width="396" height="350" version="1.1" viewBox="0 0 396 350"><title>house</title><desc>Created with Sketch.</desc><defs><path id="path-1" d="M44.2640373,343.222285 L44.2640373,209.580105 L9.30197656,209.580105 L9.30197656,209.580105 C4.14736058,209.580105 -0.0312812878,205.401463 -0.0312812878,200.246847 C-0.0312812878,197.790805 0.936815537,195.433748 2.6631066,193.686732 L190.658877,3.43404729 L190.658877,3.43404729 C195.187692,-1.149136 202.574425,-1.19321079 207.157609,3.33560349 C207.183949,3.3616316 207.210166,3.38778498 207.236257,3.41406273 L305.392802,102.271116 L305.392802,83.9737488 L305.392802,83.9737488 C305.392802,79.6782355 308.875004,76.196034 313.170517,76.196034 L345.823475,76.196034 L345.823475,76.196034 C350.118988,76.196034 353.60119,79.6782355 353.60119,83.9737488 L353.60119,151.111746 L395.362713,193.713273 L395.362713,193.713273 C398.971106,197.394247 398.912268,203.303446 395.231294,206.911839 C393.486613,208.622119 391.140869,209.580105 388.697721,209.580105 L353.60119,209.580105 L353.60119,343.222285 L353.60119,343.222285 C353.60119,347.517798 350.118988,351 345.823475,351 L52.0417522,351 L52.0417522,351 C47.7462388,351 44.2640373,347.517798 44.2640373,343.222285 Z"/></defs><g id="Page-1" fill="none" fill-rule="evenodd" stroke="none" stroke-width="1"><g id="house"><g id="House" transform="translate(-1.000000, 0.000000)"><mask id="mask-2" fill="#fff"><use xlink:href="#path-1"/></mask><g id="fill/black" fill="#000" fill-rule="evenodd" mask="url(#mask-2)"><rect id="Rectangle-2" width="398" height="351" x="0" y="0"/></g></g></g></g></svg>