<?xml version="1.0" encoding="UTF-8"?>
<svg width="396px" height="350px" viewBox="0 0 396 350" version="1.1" xmlns="http://www.w3.org/2000/svg" xmlns:xlink="http://www.w3.org/1999/xlink">
    <!-- Generator: Sketch 47.1 (45422) - http://www.bohemiancoding.com/sketch -->
    <title>house</title>
    <desc>Created with Sketch.</desc>
    <defs></defs>
    <g id="Page-1" stroke="none" stroke-width="1" fill="none" fill-rule="evenodd">
        <g id="house" fill-rule="nonzero" fill="#000000">
            <g id="House_BLACK">
                <path d="M40.7124467,342.234971 L40.7124467,208.045077 L9.33325785,208.045077 L9.33325785,208.045077 C4.17864187,208.045077 -2.92127433e-15,203.866435 -3.55271368e-15,198.711819 C-3.8536882e-15,196.250886 0.971945266,193.889543 2.70431971,192.141668 L189.718764,3.45388457 L189.718764,3.45388457 C194.254507,-1.12244223 201.641299,-1.15534223 206.217625,3.38040036 C206.242199,3.40475547 206.266663,3.42921978 206.291018,3.45379254 L294.742006,92.6942262 L294.742006,67.1683921 L294.742006,67.1683921 C294.742006,62.8728788 298.224208,59.3906772 302.519721,59.3906772 L331.940504,59.3906772 L331.940504,59.3906772 C336.236017,59.3906772 339.718219,62.8728788 339.718219,67.1683921 L339.718219,138.154365 L393.28375,192.137909 L393.28375,192.137909 C396.91442,195.796912 396.891452,201.706359 393.232449,205.337029 C391.484255,207.071686 389.121305,208.045077 386.658539,208.045077 L355.297243,208.045077 L355.297243,342.234971 L355.297243,342.234971 C355.297243,346.530484 351.815042,350.012685 347.519528,350.012685 L48.4901615,350.012685 L48.4901615,350.012685 C44.1946482,350.012685 40.7124467,346.530484 40.7124467,342.234971 Z" id="house"></path>
            </g>
        </g>
    </g>
</svg>