<?xml version="1.0" encoding="UTF-8"?>
<svg width="500px" height="500px" viewBox="0 0 500 500" version="1.1" xmlns="http://www.w3.org/2000/svg" xmlns:xlink="http://www.w3.org/1999/xlink">
    <!-- Generator: Sketch 47.1 (45422) - http://www.bohemiancoding.com/sketch -->
    <title>logo-small</title>
    <desc>Created with Sketch.</desc>
    <defs>
        <rect id="path-1" x="0" y="0" width="500" height="500"></rect>
    </defs>
    <g id="Page-1" stroke="none" stroke-width="1" fill="none" fill-rule="evenodd">
        <g id="logo-small">
            <g id="background/plain">
                <mask id="mask-2" fill="white">
                    <use xlink:href="#path-1"></use>
                </mask>
                <use id="Rectangle" fill="#41BDF5" fill-rule="evenodd" xlink:href="#path-1"></use>
            </g>
            <path d="M92.7124467,412.234971 L92.7124467,278.045077 L61.3332578,278.045077 C56.1786419,278.045077 52,273.866435 52,268.711819 C52,266.250886 52.9719453,263.889543 54.7043197,262.141668 L241.718764,73.4538846 L241.718764,73.4538846 C246.254507,68.8775578 253.641299,68.8446578 258.217625,73.3804004 C258.242199,73.4047555 258.266663,73.4292198 258.291018,73.4537925 L346.742006,162.694226 L346.742006,137.168392 L346.742006,137.168392 C346.742006,132.872879 350.224208,129.390677 354.519721,129.390677 L383.940504,129.390677 L383.940504,129.390677 C388.236017,129.390677 391.718219,132.872879 391.718219,137.168392 L391.718219,208.154365 L445.28375,262.137909 C448.91442,265.796912 448.891452,271.706359 445.232449,275.337029 C443.484255,277.071686 441.121305,278.045077 438.658539,278.045077 L407.297243,278.045077 L407.297243,412.234971 C407.297243,416.530484 403.815042,420.012685 399.519528,420.012685 L100.490162,420.012685 C96.1946482,420.012685 92.7124467,416.530484 92.7124467,412.234971 L92.7124467,412.234971 Z M210.834697,287.621493 C212.872635,282.822167 214,277.542738 214,272 C214,249.90861 196.09139,232 174,232 C151.90861,232 134,249.90861 134,272 C134,294.09139 151.90861,312 174,312 C179.542738,312 184.822167,310.872635 189.621493,308.834697 L240,359.213203 L240,420 L270,420 L270,359.213203 L320.378507,308.834697 C325.177833,310.872635 330.457262,312 336,312 C358.09139,312 376,294.09139 376,272 C376,249.90861 358.09139,232 336,232 C313.90861,232 296,249.90861 296,272 C296,277.542738 297.127365,282.822167 299.165303,287.621493 L270,316.786797 L270,228.092415 C284.659152,222.158541 295,207.786888 295,191 C295,168.90861 277.09139,151 255,151 C232.90861,151 215,168.90861 215,191 C215,207.786888 225.340848,222.158541 240,228.092415 L240,316.786797 L210.834697,287.621493 Z M255,207 C246.163444,207 239,199.836556 239,191 C239,182.163444 246.163444,175 255,175 C263.836556,175 271,182.163444 271,191 C271,199.836556 263.836556,207 255,207 Z M336,288 C327.163444,288 320,280.836556 320,272 C320,263.163444 327.163444,256 336,256 C344.836556,256 352,263.163444 352,272 C352,280.836556 344.836556,288 336,288 Z M174,288 C165.163444,288 158,280.836556 158,272 C158,263.163444 165.163444,256 174,256 C182.836556,256 190,263.163444 190,272 C190,280.836556 182.836556,288 174,288 Z" id="house-small-tree" fill="#FFFFFF" fill-rule="nonzero"></path>
        </g>
    </g>
</svg>