<?xml version="1.0" encoding="UTF-8"?>
<svg width="396px" height="350px" viewBox="0 0 396 350" version="1.1" xmlns="http://www.w3.org/2000/svg" xmlns:xlink="http://www.w3.org/1999/xlink">
    <!-- Generator: Sketch 47.1 (45422) - http://www.bohemiancoding.com/sketch -->
    <title>logo-small-black</title>
    <desc>Created with Sketch.</desc>
    <defs></defs>
    <g id="Page-1" stroke="none" stroke-width="1" fill="none" fill-rule="evenodd">
        <g id="logo-small-black" fill-rule="nonzero" fill="#000000">
            <path d="M40.7124467,342.234971 L40.7124467,208.045077 L9.33325785,208.045077 C4.17864187,208.045077 -2.92127433e-15,203.866435 -3.55271368e-15,198.711819 C-3.8536882e-15,196.250886 0.971945266,193.889543 2.70431971,192.141668 L189.718764,3.45388457 L189.718764,3.45388457 C194.254507,-1.12244223 201.641299,-1.15534223 206.217625,3.38040036 C206.242199,3.40475547 206.266663,3.42921978 206.291018,3.45379254 L294.742006,92.6942262 L294.742006,67.1683921 L294.742006,67.1683921 C294.742006,62.8728788 298.224208,59.3906772 302.519721,59.3906772 L331.940504,59.3906772 L331.940504,59.3906772 C336.236017,59.3906772 339.718219,62.8728788 339.718219,67.1683921 L339.718219,138.154365 L393.28375,192.137909 C396.91442,195.796912 396.891452,201.706359 393.232449,205.337029 C391.484255,207.071686 389.121305,208.045077 386.658539,208.045077 L355.297243,208.045077 L355.297243,342.234971 C355.297243,346.530484 351.815042,350.012685 347.519528,350.012685 L48.4901615,350.012685 C44.1946482,350.012685 40.7124467,346.530484 40.7124467,342.234971 L40.7124467,342.234971 Z M158.834697,217.621493 C160.872635,212.822167 162,207.542738 162,202 C162,179.90861 144.09139,162 122,162 C99.90861,162 82,179.90861 82,202 C82,224.09139 99.90861,242 122,242 C127.542738,242 132.822167,240.872635 137.621493,238.834697 L188,289.213203 L188,350 L218,350 L218,289.213203 L268.378507,238.834697 C273.177833,240.872635 278.457262,242 284,242 C306.09139,242 324,224.09139 324,202 C324,179.90861 306.09139,162 284,162 C261.90861,162 244,179.90861 244,202 C244,207.542738 245.127365,212.822167 247.165303,217.621493 L218,246.786797 L218,158.092415 C232.659152,152.158541 243,137.786888 243,121 C243,98.90861 225.09139,81 203,81 C180.90861,81 163,98.90861 163,121 C163,137.786888 173.340848,152.158541 188,158.092415 L188,246.786797 L158.834697,217.621493 Z M203,137 C194.163444,137 187,129.836556 187,121 C187,112.163444 194.163444,105 203,105 C211.836556,105 219,112.163444 219,121 C219,129.836556 211.836556,137 203,137 Z M284,218 C275.163444,218 268,210.836556 268,202 C268,193.163444 275.163444,186 284,186 C292.836556,186 300,193.163444 300,202 C300,210.836556 292.836556,218 284,218 Z M122,218 C113.163444,218 106,210.836556 106,202 C106,193.163444 113.163444,186 122,186 C130.836556,186 138,193.163444 138,202 C138,210.836556 130.836556,218 122,218 Z" id="house-small-tree"></path>
        </g>
    </g>
</svg>