<?xml version="1.0" encoding="utf-8"?>
<!-- Generator: Adobe Illustrator 15.0.2, SVG Export Plug-In . SVG Version: 6.00 Build 0)  -->
<!DOCTYPE svg PUBLIC "-//W3C//DTD SVG 1.1//EN" "http://www.w3.org/Graphics/SVG/1.1/DTD/svg11.dtd">
<svg version="1.1" id="Layer_1" xmlns="http://www.w3.org/2000/svg" xmlns:xlink="http://www.w3.org/1999/xlink" x="0px" y="0px"
	 width="500px" height="500px" viewBox="0 0 500 500" enable-background="new 0 0 500 500" xml:space="preserve">
<title>logo-pretty</title>
<desc>Created with Sketch.</desc>
<g id="Page-1">
	<g id="logo-pretty">
		<g id="background_x2F_pretty">
			<g id="background-copy">
				<g id="Rectangle">
				</g>
				<defs>
					<filter id="Adobe_OpacityMaskFilter" filterUnits="userSpaceOnUse" x="0" y="0" width="500" height="500">
						<feColorMatrix  type="matrix" values="1 0 0 0 0  0 1 0 0 0  0 0 1 0 0  0 0 0 1 0"/>
					</filter>
				</defs>
				<mask maskUnits="userSpaceOnUse" x="0" y="0" width="500" height="500" id="mask-2">
					<g filter="url(#Adobe_OpacityMaskFilter)">
						<path id="path-1" fill="#FFFFFF" d="M36,0h428c19.882,0,36,16.118,36,36v428c0,19.883-16.118,36-36,36H36
							c-19.883,0-36-16.117-36-36V36C0,16.118,16.117,0,36,0z"/>
					</g>
				</mask>
				<g id="depth-borders" mask="url(#mask-2)">
					<g id="fill_x2F_blue-gradient">
						<linearGradient id="SVGID_1_" gradientUnits="userSpaceOnUse" x1="249.5007" y1="454.1013" x2="249.5007" y2="31.3698">
							<stop  offset="0" style="stop-color:#6CCCF7"/>
							<stop  offset="1" style="stop-color:#41BDF5"/>
						</linearGradient>
						<path fill="url(#SVGID_1_)" d="M499,250C499,111.928,387.072,0,249,0C118.442,0,11.278,100.085,0,227.713v44.574
							C11.278,399.915,118.442,500,249,500C387.072,500,499,388.071,499,250z"/>
					</g>
					<path id="Combined-Shape" display="none" fill="#FFFFFF" fill-opacity="0.25" d="M500,252.5V46.15
						c0-16.048-1.671-21.866-4.809-27.733c-3.138-5.866-7.742-10.471-13.608-13.608C475.716,1.671,469.897,0,453.85,0H46.15
						C30.103,0,24.283,1.671,18.417,4.808C12.55,7.946,7.946,12.551,4.809,18.417C1.671,24.284,0,30.102,0,46.15V252.5V51.15
						c0-16.048,1.671-21.866,4.809-27.733c3.137-5.866,7.741-10.471,13.608-13.608C24.283,6.671,30.103,5,46.15,5h407.7
						c16.047,0,21.866,1.671,27.733,4.809c5.866,3.138,10.471,7.742,13.608,13.608C498.329,29.284,500,35.102,500,51.15V252.5z"/>
					<path id="Combined-Shape_1_" display="none" fill-opacity="0.1499" d="M500,247.5V453.85c0,16.047-1.671,21.866-4.809,27.733
						c-3.138,5.866-7.742,10.471-13.608,13.608C475.716,498.33,469.897,500,453.85,500H46.15c-16.047,0-21.866-1.67-27.732-4.808
						c-5.867-3.138-10.472-7.742-13.608-13.608C1.671,475.717,0,469.897,0,453.85V247.5V448.85c0,16.047,1.671,21.866,4.809,27.733
						c3.137,5.866,7.741,10.471,13.608,13.608C24.283,493.33,30.103,495,46.15,495h407.7c16.047,0,21.866-1.67,27.733-4.808
						c5.866-3.138,10.471-7.742,13.608-13.608c3.138-5.867,4.809-11.687,4.809-27.733V247.5z"/>
				</g>
			</g>
		</g>
		<g id="house-with-large-tree" transform="translate(52.000000, 70.000000)">
			<g id="large-tree">
			</g>
			<defs>
				<filter id="Adobe_OpacityMaskFilter_1_" filterUnits="userSpaceOnUse" x="21.12" y="13.619" width="354.761" height="312.76">
					<feColorMatrix  type="matrix" values="1 0 0 0 0  0 1 0 0 0  0 0 1 0 0  0 0 0 1 0"/>
				</filter>
			</defs>
			<mask maskUnits="userSpaceOnUse" x="21.12" y="13.619" width="354.761" height="312.76" id="mask-5">
				<g filter="url(#Adobe_OpacityMaskFilter_1_)">
					<path id="path-4" fill="#FFFFFF" d="M60.574,319.43V200.368H29.467c-4.607,0-8.341-3.734-8.341-8.341
						c0-2.196,0.865-4.304,2.409-5.861L191.048,16.697l0,0c4.046-4.094,10.647-4.133,14.742-0.085
						c0.023,0.022,0.046,0.045,0.068,0.068l87.475,88.07V88.465l0,0c0-3.838,3.113-6.95,6.952-6.95h29.07l0,0
						c3.838,0,6.948,3.112,6.948,6.95v59.804l37.185,37.919c3.226,3.289,3.174,8.569-0.115,11.793
						c-1.559,1.531-3.655,2.388-5.838,2.388h-31.231V319.43c0,3.838-3.11,6.949-6.948,6.949H67.525
						C63.686,326.38,60.574,323.268,60.574,319.43L60.574,319.43z M245.474,173.976c0.839-1.75,1.31-3.71,1.31-5.78
						c0-7.403-6.013-13.404-13.43-13.404s-13.428,6.001-13.428,13.404c0,7.403,6.011,13.405,13.428,13.405
						c2.073,0,4.036-0.469,5.789-1.307l19.276,19.244v18.639l-24.171,24.128v-17.677c5.217-1.842,8.954-6.807,8.954-12.644
						c0-7.402-6.013-13.403-13.43-13.403c-7.415,0-13.428,6.001-13.428,13.403c0,5.837,3.735,10.802,8.952,12.644v26.613
						l-22.381,22.342V142.345l18.38-18.349c1.755,0.838,3.717,1.306,5.793,1.306c7.414,0,13.426-6.001,13.426-13.404
						c0-7.402-6.012-13.404-13.426-13.404c-7.418,0-13.43,6.002-13.43,13.404c0,2.07,0.47,4.03,1.307,5.779l-16.526,16.499
						l-16.527-16.499c0.839-1.749,1.309-3.709,1.309-5.779c0-7.402-6.012-13.404-13.429-13.404c-7.416,0-13.428,6.002-13.428,13.404
						c0,7.403,6.012,13.404,13.428,13.404c2.074,0,4.037-0.468,5.791-1.306l18.381,18.349v93.705l-32.229-32.173v-25.719
						c5.216-1.841,8.952-6.806,8.952-12.642c0-7.404-6.012-13.405-13.429-13.405c-7.415,0-13.428,6.001-13.428,13.405
						c0,5.836,3.736,10.801,8.953,12.642v16.783l-25.066-25.021v-24.827c5.214-1.84,8.952-6.804,8.952-12.641
						c0-7.403-6.012-13.405-13.429-13.405c-7.415,0-13.427,6.002-13.427,13.405c0,5.836,3.736,10.801,8.952,12.641v28.53
						l27.688,27.637h-15.918c-1.844-5.205-6.818-8.936-12.666-8.936c-7.416,0-13.428,6.002-13.428,13.405
						s6.013,13.403,13.428,13.403c5.847,0,10.822-3.73,12.666-8.936h24.872l38.558,38.49v66.895l-20.591-20.553v-25.722
						c5.216-1.84,8.952-6.805,8.952-12.64c0-7.405-6.012-13.405-13.428-13.405c-7.416,0-13.429,6-13.429,13.405
						c0,5.835,3.736,10.8,8.953,12.64v16.784l-29.956-29.902c0.838-1.749,1.309-3.709,1.309-5.778
						c0-7.401-6.013-13.404-13.428-13.404c-7.417,0-13.429,6.003-13.429,13.404s6.011,13.404,13.429,13.404
						c2.072,0,4.036-0.468,5.788-1.307l29.957,29.901h-15.919c-1.844-5.205-6.818-8.936-12.665-8.936
						c-7.416,0-13.428,6.003-13.428,13.406c0,7.401,6.012,13.403,13.428,13.403c5.846,0,10.82-3.729,12.665-8.937h24.872
						l25.067,25.021h12.661l25.961-25.915h23.978c1.844,5.208,6.816,8.938,12.664,8.938c7.414,0,13.428-6.001,13.428-13.406
						c0-7.403-6.014-13.403-13.428-13.403c-5.848,0-10.82,3.729-12.664,8.937h-27.686l-24.107,24.063v-29.362l28.71-28.66h46.357
						c1.843,5.207,6.817,8.937,12.665,8.937c7.418,0,13.429-6,13.429-13.404c0-7.403-6.011-13.405-13.429-13.405
						c-5.848,0-10.822,3.731-12.665,8.938h-37.404l26.794-26.745v-22.341l19.276-19.244c1.753,0.838,3.716,1.307,5.79,1.307
						c7.416,0,13.428-6.002,13.428-13.405c0-7.403-6.012-13.404-13.428-13.404c-7.417,0-13.429,6.001-13.429,13.404
						c0,2.07,0.47,4.03,1.308,5.78l-12.945,12.925v-40.915c5.215-1.84,8.952-6.805,8.952-12.641c0-7.403-6.013-13.405-13.43-13.405
						c-7.416,0-13.429,6.001-13.429,13.405c0,5.836,3.737,10.801,8.952,12.641v40.915L245.474,173.976z M129.507,302.241
						c-2.966,0-5.372-2.399-5.372-5.36c0-2.963,2.405-5.362,5.372-5.362c2.967,0,5.372,2.399,5.372,5.362
						C134.879,299.842,132.474,302.241,129.507,302.241z M168.897,262.028c-2.966,0-5.372-2.401-5.372-5.36
						c0-2.963,2.405-5.363,5.372-5.363c2.967,0,5.372,2.4,5.372,5.363C174.269,259.627,171.864,262.028,168.897,262.028z
						 M122.346,255.771c-2.966,0-5.373-2.4-5.373-5.36c0-2.959,2.406-5.361,5.373-5.361c2.965,0,5.371,2.402,5.371,5.361
						C127.717,253.371,125.311,255.771,122.346,255.771z M117.869,211.092c-2.965,0-5.371-2.401-5.371-5.362
						s2.405-5.361,5.371-5.361c2.967,0,5.371,2.4,5.371,5.361S120.836,211.092,117.869,211.092z M229.773,217.346
						c-2.966,0-5.371-2.399-5.371-5.362s2.405-5.362,5.371-5.362c2.967,0,5.372,2.399,5.372,5.362S232.74,217.346,229.773,217.346z
						 M290.649,258.454c-2.967,0-5.371-2.4-5.371-5.362c0-2.961,2.404-5.361,5.371-5.361c2.966,0,5.371,2.4,5.371,5.361
						C296.02,256.053,293.615,258.454,290.649,258.454z M267.373,301.347c-2.968,0-5.373-2.398-5.373-5.362
						c0-2.961,2.405-5.362,5.373-5.362c2.967,0,5.37,2.401,5.37,5.362C272.743,298.949,270.34,301.347,267.373,301.347z
						 M292.44,173.558c-2.967,0-5.372-2.4-5.372-5.362c0-2.961,2.405-5.361,5.372-5.361c2.966,0,5.371,2.399,5.371,5.361
						C297.811,171.158,295.406,173.558,292.44,173.558z M262.896,138.707c-2.966,0-5.371-2.401-5.371-5.362
						c0-2.961,2.405-5.363,5.371-5.363c2.968,0,5.372,2.401,5.372,5.363C268.268,136.306,265.864,138.707,262.896,138.707z
						 M227.089,117.26c-2.969,0-5.374-2.4-5.374-5.362c0-2.961,2.405-5.361,5.374-5.361c2.964,0,5.369,2.4,5.369,5.361
						C232.458,114.859,230.053,117.26,227.089,117.26z M169.792,117.26c-2.966,0-5.371-2.4-5.371-5.362
						c0-2.961,2.405-5.361,5.371-5.361c2.968,0,5.372,2.4,5.372,5.361C175.164,114.859,172.76,117.26,169.792,117.26z
						 M123.24,137.814c-2.965,0-5.371-2.401-5.371-5.362c0-2.961,2.406-5.362,5.371-5.362c2.968,0,5.373,2.401,5.373,5.362
						C128.612,135.413,126.207,137.814,123.24,137.814z M157.259,170.878c-2.965,0-5.371-2.401-5.371-5.362
						c0-2.962,2.406-5.362,5.371-5.362c2.968,0,5.371,2.4,5.371,5.362C162.63,168.477,160.226,170.878,157.259,170.878z
						 M233.354,173.558c-2.967,0-5.371-2.4-5.371-5.362c0-2.961,2.404-5.361,5.371-5.361s5.371,2.399,5.371,5.361
						C238.725,171.158,236.321,173.558,233.354,173.558z"/>
				</g>
			</mask>
			<g id="fill_x2F_white-gradient" mask="url(#mask-5)">
				<linearGradient id="SVGID_2_" gradientUnits="userSpaceOnUse" x1="31.6306" y1="27.1799" x2="31.6306" y2="13.6089">
					<stop  offset="0" style="stop-color:#FFFFFF"/>
					<stop  offset="1" style="stop-color:#D9D9D9"/>
				</linearGradient>
				<path fill="url(#SVGID_2_)" d="M42.141,13.619H21.12v23.298C27.578,28.665,34.607,20.882,42.141,13.619z"/>
				<linearGradient id="SVGID_3_" gradientUnits="userSpaceOnUse" x1="27.2498" y1="320.3767" x2="27.2498" y2="312.0108">
					<stop  offset="0" style="stop-color:#FFFFFF"/>
					<stop  offset="1" style="stop-color:#D9D9D9"/>
				</linearGradient>
				<path fill="url(#SVGID_3_)" d="M21.12,326.38h12.259c-4.28-4.612-8.376-9.398-12.259-14.362V326.38z"/>
				<linearGradient id="SVGID_4_" gradientUnits="userSpaceOnUse" x1="364.0295" y1="29.2151" x2="364.0295" y2="13.607">
					<stop  offset="0" style="stop-color:#FFFFFF"/>
					<stop  offset="1" style="stop-color:#D9D9D9"/>
				</linearGradient>
				<path fill="url(#SVGID_4_)" d="M375.881,40.415V13.619h-23.703C360.769,21.9,368.699,30.857,375.881,40.415z"/>
				<linearGradient id="SVGID_5_" gradientUnits="userSpaceOnUse" x1="368.4104" y1="318.9158" x2="368.4104" y2="308.5134">
					<stop  offset="0" style="stop-color:#FFFFFF"/>
					<stop  offset="1" style="stop-color:#D9D9D9"/>
				</linearGradient>
				<path fill="url(#SVGID_5_)" d="M375.881,308.521c-4.669,6.216-9.663,12.17-14.941,17.858h14.941V308.521z"/>
				<linearGradient id="SVGID_6_" gradientUnits="userSpaceOnUse" x1="198.5002" y1="195.656" x2="198.5002" y2="13.4767">
					<stop  offset="0" style="stop-color:#FFFFFF"/>
					<stop  offset="1" style="stop-color:#D9D9D9"/>
				</linearGradient>
				<path fill="url(#SVGID_6_)" d="M375.881,40.415c-7.182-9.558-15.112-18.515-23.703-26.795H42.141
					c-7.534,7.262-14.563,15.045-21.021,23.298v275.1c3.882,4.964,7.979,9.75,12.259,14.362H360.94
					c5.278-5.688,10.272-11.643,14.941-17.858V40.415z"/>
			</g>
		</g>
	</g>
</g>
</svg>
