<?xml version="1.0" encoding="UTF-8"?>
<svg width="396px" height="350px" viewBox="0 0 396 350" version="1.1" xmlns="http://www.w3.org/2000/svg" xmlns:xlink="http://www.w3.org/1999/xlink">
    <!-- Generator: Sketch 47.1 (45422) - http://www.bohemiancoding.com/sketch -->
    <title>logo-white</title>
    <desc>Created with Sketch.</desc>
    <defs></defs>
    <g id="Page-1" stroke="none" stroke-width="1" fill="none" fill-rule="evenodd">
        <g id="logo-white" fill-rule="nonzero" fill="#FFFFFF">
            <g id="house-with-large-tree_WHITE">
                <path d="M40.7124467,342.234971 L40.7124467,208.045077 L9.33325785,208.045077 C4.17864187,208.045077 -2.92127433e-15,203.866435 -3.55271368e-15,198.711819 C-3.8536882e-15,196.250886 0.971945266,193.889543 2.70431971,192.141668 L189.718764,3.45388457 L189.718764,3.45388457 C194.254507,-1.12244223 201.641299,-1.15534223 206.217625,3.38040036 C206.242199,3.40475547 206.266663,3.42921978 206.291018,3.45379254 L294.742006,92.6942262 L294.742006,67.1683921 L294.742006,67.1683921 C294.742006,62.8728788 298.224208,59.3906772 302.519721,59.3906772 L331.940504,59.3906772 L331.940504,59.3906772 C336.236017,59.3906772 339.718219,62.8728788 339.718219,67.1683921 L339.718219,138.154365 L393.28375,192.137909 C396.91442,195.796912 396.891452,201.706359 393.232449,205.337029 C391.484255,207.071686 389.121305,208.045077 386.658539,208.045077 L355.297243,208.045077 L355.297243,342.234971 C355.297243,346.530484 351.815042,350.012685 347.519528,350.012685 L48.4901615,350.012685 L48.4901615,350.012685 C44.1946482,350.012685 40.7124467,346.530484 40.7124467,342.234971 L40.7124467,342.234971 Z M251.534047,179.479763 C252.471141,177.521586 252.995902,175.328418 252.995902,173.012685 C252.995902,164.728414 246.280173,158.012685 237.995902,158.012685 C229.711631,158.012685 222.995902,164.728414 222.995902,173.012685 C222.995902,181.296957 229.711631,188.012685 237.995902,188.012685 C240.311634,188.012685 242.504803,187.487925 244.462979,186.550831 L265.995902,208.083753 L265.995902,228.941618 L238.995902,255.941618 L238.995902,236.159157 C244.821864,234.099975 248.995902,228.54378 248.995902,222.012685 C248.995902,213.728414 242.280173,207.012685 233.995902,207.012685 C225.711631,207.012685 218.995902,213.728414 218.995902,222.012685 C218.995902,228.54378 223.16994,234.099975 228.995902,236.159157 L228.995902,265.941618 L203.995902,290.941618 L203.995902,144.083753 L224.528825,123.550831 C226.487001,124.487925 228.680169,125.012685 230.995902,125.012685 C239.280173,125.012685 245.995902,118.296957 245.995902,110.012685 C245.995902,101.728414 239.280173,95.0126855 230.995902,95.0126855 C222.711631,95.0126855 215.995902,101.728414 215.995902,110.012685 C215.995902,112.328418 216.520663,114.521586 217.457757,116.479763 L198.995902,134.941618 L180.534047,116.479763 C181.471141,114.521586 181.995902,112.328418 181.995902,110.012685 C181.995902,101.728414 175.280173,95.0126855 166.995902,95.0126855 C158.711631,95.0126855 151.995902,101.728414 151.995902,110.012685 C151.995902,118.296957 158.711631,125.012685 166.995902,125.012685 C169.311634,125.012685 171.504803,124.487925 173.462979,123.550831 L193.995902,144.083753 L193.995902,248.941618 L157.995902,212.941618 L157.995902,184.159157 C163.821864,182.099975 167.995902,176.54378 167.995902,170.012685 C167.995902,161.728414 161.280173,155.012685 152.995902,155.012685 C144.711631,155.012685 137.995902,161.728414 137.995902,170.012685 C137.995902,176.54378 142.16994,182.099975 147.995902,184.159157 L147.995902,202.941618 L119.995902,174.941618 L119.995902,147.159157 C125.821864,145.099975 129.995902,139.54378 129.995902,133.012685 C129.995902,124.728414 123.280173,118.012685 114.995902,118.012685 C106.711631,118.012685 99.9959018,124.728414 99.9959018,133.012685 C99.9959018,139.54378 104.16994,145.099975 109.995902,147.159157 L109.995902,179.083753 L140.924834,210.012685 L123.142373,210.012685 C121.083191,204.186724 115.526996,200.012685 108.995902,200.012685 C100.711631,200.012685 93.9959018,206.728414 93.9959018,215.012685 C93.9959018,223.296957 100.711631,230.012685 108.995902,230.012685 C115.526996,230.012685 121.083191,225.838647 123.142373,220.012685 L150.924834,220.012685 L193.995902,263.083753 L193.995902,337.941618 L170.995902,314.941618 L170.995902,286.159157 C176.821864,284.099975 180.995902,278.54378 180.995902,272.012685 C180.995902,263.728414 174.280173,257.012685 165.995902,257.012685 C157.711631,257.012685 150.995902,263.728414 150.995902,272.012685 C150.995902,278.54378 155.16994,284.099975 160.995902,286.159157 L160.995902,304.941618 L127.534047,271.479763 C128.471141,269.521586 128.995902,267.328418 128.995902,265.012685 C128.995902,256.728414 122.280173,250.012685 113.995902,250.012685 C105.711631,250.012685 98.9959018,256.728414 98.9959018,265.012685 C98.9959018,273.296957 105.711631,280.012685 113.995902,280.012685 C116.311634,280.012685 118.504803,279.487925 120.462979,278.550831 L153.924834,312.012685 L136.142373,312.012685 C134.083191,306.186724 128.526996,302.012685 121.995902,302.012685 C113.711631,302.012685 106.995902,308.728414 106.995902,317.012685 C106.995902,325.296957 113.711631,332.012685 121.995902,332.012685 C128.526996,332.012685 134.083191,327.838647 136.142373,322.012685 L163.924834,322.012685 L191.924834,350.012685 L206.06697,350.012685 L235.06697,321.012685 L261.84943,321.012685 C263.908612,326.838647 269.464808,331.012685 275.995902,331.012685 C284.280173,331.012685 290.995902,324.296957 290.995902,316.012685 C290.995902,307.728414 284.280173,301.012685 275.995902,301.012685 C269.464808,301.012685 263.908612,305.186724 261.84943,311.012685 L230.924834,311.012685 L203.995902,337.941618 L203.995902,305.083753 L236.06697,273.012685 L287.84943,273.012685 C289.908612,278.838647 295.464808,283.012685 301.995902,283.012685 C310.280173,283.012685 316.995902,276.296957 316.995902,268.012685 C316.995902,259.728414 310.280173,253.012685 301.995902,253.012685 C295.464808,253.012685 289.908612,257.186724 287.84943,263.012685 L246.06697,263.012685 L275.995902,233.083753 L275.995902,208.083753 L297.528825,186.550831 C299.487001,187.487925 301.680169,188.012685 303.995902,188.012685 C312.280173,188.012685 318.995902,181.296957 318.995902,173.012685 C318.995902,164.728414 312.280173,158.012685 303.995902,158.012685 C295.711631,158.012685 288.995902,164.728414 288.995902,173.012685 C288.995902,175.328418 289.520663,177.521586 290.457757,179.479763 L275.995902,193.941618 L275.995902,148.159157 C281.821864,146.099975 285.995902,140.54378 285.995902,134.012685 C285.995902,125.728414 279.280173,119.012685 270.995902,119.012685 C262.711631,119.012685 255.995902,125.728414 255.995902,134.012685 C255.995902,140.54378 260.16994,146.099975 265.995902,148.159157 L265.995902,193.941618 L251.534047,179.479763 Z M121.995902,323.012685 C118.682193,323.012685 115.995902,320.326394 115.995902,317.012685 C115.995902,313.698977 118.682193,311.012685 121.995902,311.012685 C125.30961,311.012685 127.995902,313.698977 127.995902,317.012685 C127.995902,320.326394 125.30961,323.012685 121.995902,323.012685 Z M165.995902,278.012685 C162.682193,278.012685 159.995902,275.326394 159.995902,272.012685 C159.995902,268.698977 162.682193,266.012685 165.995902,266.012685 C169.30961,266.012685 171.995902,268.698977 171.995902,272.012685 C171.995902,275.326394 169.30961,278.012685 165.995902,278.012685 Z M113.995902,271.012685 C110.682193,271.012685 107.995902,268.326394 107.995902,265.012685 C107.995902,261.698977 110.682193,259.012685 113.995902,259.012685 C117.30961,259.012685 119.995902,261.698977 119.995902,265.012685 C119.995902,268.326394 117.30961,271.012685 113.995902,271.012685 Z M108.995902,221.012685 C105.682193,221.012685 102.995902,218.326394 102.995902,215.012685 C102.995902,211.698977 105.682193,209.012685 108.995902,209.012685 C112.30961,209.012685 114.995902,211.698977 114.995902,215.012685 C114.995902,218.326394 112.30961,221.012685 108.995902,221.012685 Z M233.995902,228.012685 C230.682193,228.012685 227.995902,225.326394 227.995902,222.012685 C227.995902,218.698977 230.682193,216.012685 233.995902,216.012685 C237.30961,216.012685 239.995902,218.698977 239.995902,222.012685 C239.995902,225.326394 237.30961,228.012685 233.995902,228.012685 Z M301.995902,274.012685 C298.682193,274.012685 295.995902,271.326394 295.995902,268.012685 C295.995902,264.698977 298.682193,262.012685 301.995902,262.012685 C305.30961,262.012685 307.995902,264.698977 307.995902,268.012685 C307.995902,271.326394 305.30961,274.012685 301.995902,274.012685 Z M275.995902,322.012685 C272.682193,322.012685 269.995902,319.326394 269.995902,316.012685 C269.995902,312.698977 272.682193,310.012685 275.995902,310.012685 C279.30961,310.012685 281.995902,312.698977 281.995902,316.012685 C281.995902,319.326394 279.30961,322.012685 275.995902,322.012685 Z M303.995902,179.012685 C300.682193,179.012685 297.995902,176.326394 297.995902,173.012685 C297.995902,169.698977 300.682193,167.012685 303.995902,167.012685 C307.30961,167.012685 309.995902,169.698977 309.995902,173.012685 C309.995902,176.326394 307.30961,179.012685 303.995902,179.012685 Z M270.995902,140.012685 C267.682193,140.012685 264.995902,137.326394 264.995902,134.012685 C264.995902,130.698977 267.682193,128.012685 270.995902,128.012685 C274.30961,128.012685 276.995902,130.698977 276.995902,134.012685 C276.995902,137.326394 274.30961,140.012685 270.995902,140.012685 Z M230.995902,116.012685 C227.682193,116.012685 224.995902,113.326394 224.995902,110.012685 C224.995902,106.698977 227.682193,104.012685 230.995902,104.012685 C234.30961,104.012685 236.995902,106.698977 236.995902,110.012685 C236.995902,113.326394 234.30961,116.012685 230.995902,116.012685 Z M166.995902,116.012685 C163.682193,116.012685 160.995902,113.326394 160.995902,110.012685 C160.995902,106.698977 163.682193,104.012685 166.995902,104.012685 C170.30961,104.012685 172.995902,106.698977 172.995902,110.012685 C172.995902,113.326394 170.30961,116.012685 166.995902,116.012685 Z M114.995902,139.012685 C111.682193,139.012685 108.995902,136.326394 108.995902,133.012685 C108.995902,129.698977 111.682193,127.012685 114.995902,127.012685 C118.30961,127.012685 120.995902,129.698977 120.995902,133.012685 C120.995902,136.326394 118.30961,139.012685 114.995902,139.012685 Z M152.995902,176.012685 C149.682193,176.012685 146.995902,173.326394 146.995902,170.012685 C146.995902,166.698977 149.682193,164.012685 152.995902,164.012685 C156.30961,164.012685 158.995902,166.698977 158.995902,170.012685 C158.995902,173.326394 156.30961,176.012685 152.995902,176.012685 Z M237.995902,179.012685 C234.682193,179.012685 231.995902,176.326394 231.995902,173.012685 C231.995902,169.698977 234.682193,167.012685 237.995902,167.012685 C241.30961,167.012685 243.995902,169.698977 243.995902,173.012685 C243.995902,176.326394 241.30961,179.012685 237.995902,179.012685 Z" id="house-with-large-tree"></path>
            </g>
        </g>
    </g>
</svg>