<?xml version="1.0" encoding="UTF-8"?>
<svg width="225px" height="256px" viewBox="0 0 225 256" version="1.1" xmlns="http://www.w3.org/2000/svg" xmlns:xlink="http://www.w3.org/1999/xlink">
    <!-- Generator: Sketch 47.1 (45422) - http://www.bohemiancoding.com/sketch -->
    <title>tree_black</title>
    <desc>Created with Sketch.</desc>
    <defs></defs>
    <g id="Page-1" stroke="none" stroke-width="1" fill="none" fill-rule="evenodd">
        <g id="tree_black" fill-rule="nonzero" fill="#000000">
            <path d="M157.534047,84.4797627 L171.995902,98.9416177 L171.995902,53.1591569 C166.16994,51.0999749 161.995902,45.5437796 161.995902,39.0126855 C161.995902,30.7284142 168.711631,24.0126855 176.995902,24.0126855 C185.280173,24.0126855 191.995902,30.7284142 191.995902,39.0126855 C191.995902,45.5437796 187.821864,51.0999749 181.995902,53.1591569 L181.995902,98.9416177 L196.457757,84.4797627 C195.520663,82.5215864 194.995902,80.3284182 194.995902,78.0126855 C194.995902,69.7284142 201.711631,63.0126855 209.995902,63.0126855 C218.280173,63.0126855 224.995902,69.7284142 224.995902,78.0126855 C224.995902,86.2969567 218.280173,93.0126855 209.995902,93.0126855 C207.680169,93.0126855 205.487001,92.4879247 203.528825,91.5508305 L181.995902,113.083753 L181.995902,138.083753 L152.06697,168.012685 L193.84943,168.012685 C195.908612,162.186724 201.464808,158.012685 207.995902,158.012685 C216.280173,158.012685 222.995902,164.728414 222.995902,173.012685 C222.995902,181.296957 216.280173,188.012685 207.995902,188.012685 C201.464808,188.012685 195.908612,183.838647 193.84943,178.012685 L142.06697,178.012685 L109.995902,210.083753 L109.995902,242.941618 L136.924834,216.012685 L167.84943,216.012685 C169.908612,210.186724 175.464808,206.012685 181.995902,206.012685 C190.280173,206.012685 196.995902,212.728414 196.995902,221.012685 C196.995902,229.296957 190.280173,236.012685 181.995902,236.012685 C175.464808,236.012685 169.908612,231.838647 167.84943,226.012685 L141.06697,226.012685 L112.06697,255.012685 L97.924834,255.012685 L69.924834,227.012685 L42.1423732,227.012685 C40.0831912,232.838647 34.5269959,237.012685 27.9959018,237.012685 C19.7116305,237.012685 12.9959018,230.296957 12.9959018,222.012685 C12.9959018,213.728414 19.7116305,207.012685 27.9959018,207.012685 C34.5269959,207.012685 40.0831912,211.186724 42.1423732,217.012685 L59.924834,217.012685 L26.462979,183.550831 C24.5048027,184.487925 22.3116344,185.012685 19.9959018,185.012685 C11.7116305,185.012685 4.99590177,178.296957 4.99590177,170.012685 C4.99590177,161.728414 11.7116305,155.012685 19.9959018,155.012685 C28.280173,155.012685 34.9959018,161.728414 34.9959018,170.012685 C34.9959018,172.328418 34.471141,174.521586 33.5340468,176.479763 L66.9959018,209.941618 L66.9959018,191.159157 C61.1699399,189.099975 56.9959018,183.54378 56.9959018,177.012685 C56.9959018,168.728414 63.7116305,162.012685 71.9959018,162.012685 C80.280173,162.012685 86.9959018,168.728414 86.9959018,177.012685 C86.9959018,183.54378 82.8218636,189.099975 76.9959018,191.159157 L76.9959018,219.941618 L99.9959018,242.941618 L99.9959018,168.083753 L56.924834,125.012685 L29.1423732,125.012685 C27.0831912,130.838647 21.5269959,135.012685 14.9959018,135.012685 C6.71163053,135.012685 -0.00409822509,128.296957 -0.00409822509,120.012685 C-0.00409822509,111.728414 6.71163053,105.012685 14.9959018,105.012685 C21.5269959,105.012685 27.0831912,109.186724 29.1423732,115.012685 L46.924834,115.012685 L15.9959018,84.0837533 L15.9959018,52.1591569 C10.1699399,50.0999749 5.99590177,44.5437796 5.99590177,38.0126855 C5.99590177,29.7284142 12.7116305,23.0126855 20.9959018,23.0126855 C29.280173,23.0126855 35.9959018,29.7284142 35.9959018,38.0126855 C35.9959018,44.5437796 31.8218636,50.0999749 25.9959018,52.1591569 L25.9959018,79.9416177 L53.9959018,107.941618 L53.9959018,89.1591569 C48.1699399,87.0999749 43.9959018,81.5437796 43.9959018,75.0126855 C43.9959018,66.7284142 50.7116305,60.0126855 58.9959018,60.0126855 C67.280173,60.0126855 73.9959018,66.7284142 73.9959018,75.0126855 C73.9959018,81.5437796 69.8218636,87.0999749 63.9959018,89.1591569 L63.9959018,117.941618 L99.9959018,153.941618 L99.9959018,49.0837533 L79.462979,28.5508305 C77.5048027,29.4879247 75.3116344,30.0126855 72.9959018,30.0126855 C64.7116305,30.0126855 57.9959018,23.2969567 57.9959018,15.0126855 C57.9959018,6.72841424 64.7116305,0.0126854835 72.9959018,0.0126854835 C81.280173,0.0126854835 87.9959018,6.72841424 87.9959018,15.0126855 C87.9959018,17.3284182 87.471141,19.5215864 86.5340468,21.4797627 L104.995902,39.9416177 L123.457757,21.4797627 C122.520663,19.5215864 121.995902,17.3284182 121.995902,15.0126855 C121.995902,6.72841424 128.711631,0.0126854835 136.995902,0.0126854835 C145.280173,0.0126854835 151.995902,6.72841424 151.995902,15.0126855 C151.995902,23.2969567 145.280173,30.0126855 136.995902,30.0126855 C134.680169,30.0126855 132.487001,29.4879247 130.528825,28.5508305 L109.995902,49.0837533 L109.995902,195.941618 L134.995902,170.941618 L134.995902,141.159157 C129.16994,139.099975 124.995902,133.54378 124.995902,127.012685 C124.995902,118.728414 131.711631,112.012685 139.995902,112.012685 C148.280173,112.012685 154.995902,118.728414 154.995902,127.012685 C154.995902,133.54378 150.821864,139.099975 144.995902,141.159157 L144.995902,160.941618 L171.995902,133.941618 L171.995902,113.083753 L150.462979,91.5508305 C148.504803,92.4879247 146.311634,93.0126855 143.995902,93.0126855 C135.711631,93.0126855 128.995902,86.2969567 128.995902,78.0126855 C128.995902,69.7284142 135.711631,63.0126855 143.995902,63.0126855 C152.280173,63.0126855 158.995902,69.7284142 158.995902,78.0126855 C158.995902,80.3284182 158.471141,82.5215864 157.534047,84.4797627 Z M27.9959018,228.012685 C31.3096103,228.012685 33.9959018,225.326394 33.9959018,222.012685 C33.9959018,218.698977 31.3096103,216.012685 27.9959018,216.012685 C24.6821933,216.012685 21.9959018,218.698977 21.9959018,222.012685 C21.9959018,225.326394 24.6821933,228.012685 27.9959018,228.012685 Z M71.9959018,183.012685 C75.3096103,183.012685 77.9959018,180.326394 77.9959018,177.012685 C77.9959018,173.698977 75.3096103,171.012685 71.9959018,171.012685 C68.6821933,171.012685 65.9959018,173.698977 65.9959018,177.012685 C65.9959018,180.326394 68.6821933,183.012685 71.9959018,183.012685 Z M19.9959018,176.012685 C23.3096103,176.012685 25.9959018,173.326394 25.9959018,170.012685 C25.9959018,166.698977 23.3096103,164.012685 19.9959018,164.012685 C16.6821933,164.012685 13.9959018,166.698977 13.9959018,170.012685 C13.9959018,173.326394 16.6821933,176.012685 19.9959018,176.012685 Z M14.9959018,126.012685 C18.3096103,126.012685 20.9959018,123.326394 20.9959018,120.012685 C20.9959018,116.698977 18.3096103,114.012685 14.9959018,114.012685 C11.6821933,114.012685 8.99590177,116.698977 8.99590177,120.012685 C8.99590177,123.326394 11.6821933,126.012685 14.9959018,126.012685 Z M139.995902,133.012685 C143.30961,133.012685 145.995902,130.326394 145.995902,127.012685 C145.995902,123.698977 143.30961,121.012685 139.995902,121.012685 C136.682193,121.012685 133.995902,123.698977 133.995902,127.012685 C133.995902,130.326394 136.682193,133.012685 139.995902,133.012685 Z M207.995902,179.012685 C211.30961,179.012685 213.995902,176.326394 213.995902,173.012685 C213.995902,169.698977 211.30961,167.012685 207.995902,167.012685 C204.682193,167.012685 201.995902,169.698977 201.995902,173.012685 C201.995902,176.326394 204.682193,179.012685 207.995902,179.012685 Z M181.995902,227.012685 C185.30961,227.012685 187.995902,224.326394 187.995902,221.012685 C187.995902,217.698977 185.30961,215.012685 181.995902,215.012685 C178.682193,215.012685 175.995902,217.698977 175.995902,221.012685 C175.995902,224.326394 178.682193,227.012685 181.995902,227.012685 Z M209.995902,84.0126855 C213.30961,84.0126855 215.995902,81.326394 215.995902,78.0126855 C215.995902,74.698977 213.30961,72.0126855 209.995902,72.0126855 C206.682193,72.0126855 203.995902,74.698977 203.995902,78.0126855 C203.995902,81.326394 206.682193,84.0126855 209.995902,84.0126855 Z M176.995902,45.0126855 C180.30961,45.0126855 182.995902,42.326394 182.995902,39.0126855 C182.995902,35.698977 180.30961,33.0126855 176.995902,33.0126855 C173.682193,33.0126855 170.995902,35.698977 170.995902,39.0126855 C170.995902,42.326394 173.682193,45.0126855 176.995902,45.0126855 Z M136.995902,21.0126855 C140.30961,21.0126855 142.995902,18.326394 142.995902,15.0126855 C142.995902,11.698977 140.30961,9.01268548 136.995902,9.01268548 C133.682193,9.01268548 130.995902,11.698977 130.995902,15.0126855 C130.995902,18.326394 133.682193,21.0126855 136.995902,21.0126855 Z M72.9959018,21.0126855 C76.3096103,21.0126855 78.9959018,18.326394 78.9959018,15.0126855 C78.9959018,11.698977 76.3096103,9.01268548 72.9959018,9.01268548 C69.6821933,9.01268548 66.9959018,11.698977 66.9959018,15.0126855 C66.9959018,18.326394 69.6821933,21.0126855 72.9959018,21.0126855 Z M20.9959018,44.0126855 C24.3096103,44.0126855 26.9959018,41.326394 26.9959018,38.0126855 C26.9959018,34.698977 24.3096103,32.0126855 20.9959018,32.0126855 C17.6821933,32.0126855 14.9959018,34.698977 14.9959018,38.0126855 C14.9959018,41.326394 17.6821933,44.0126855 20.9959018,44.0126855 Z M58.9959018,81.0126855 C62.3096103,81.0126855 64.9959018,78.326394 64.9959018,75.0126855 C64.9959018,71.698977 62.3096103,69.0126855 58.9959018,69.0126855 C55.6821933,69.0126855 52.9959018,71.698977 52.9959018,75.0126855 C52.9959018,78.326394 55.6821933,81.0126855 58.9959018,81.0126855 Z M143.995902,84.0126855 C147.30961,84.0126855 149.995902,81.326394 149.995902,78.0126855 C149.995902,74.698977 147.30961,72.0126855 143.995902,72.0126855 C140.682193,72.0126855 137.995902,74.698977 137.995902,78.0126855 C137.995902,81.326394 140.682193,84.0126855 143.995902,84.0126855 Z" id="large-tree"></path>
        </g>
    </g>
</svg>