<?xml version="1.0" encoding="UTF-8"?>
<svg width="225px" height="256px" viewBox="0 0 225 256" version="1.1" xmlns="http://www.w3.org/2000/svg" xmlns:xlink="http://www.w3.org/1999/xlink">
    <!-- Generator: Sketch 47.1 (45422) - http://www.bohemiancoding.com/sketch -->
    <title>tree_white</title>
    <desc>Created with Sketch.</desc>
    <defs></defs>
    <g id="Page-1" stroke="none" stroke-width="1" fill="none" fill-rule="evenodd">
        <g id="tree_white" fill-rule="nonzero" fill="#FFFFFF">
            <g id="large-tree_white" transform="translate(-1.000000, 0.000000)">
                <path d="M158.534047,84.4797627 L172.995902,98.9416177 L172.995902,53.1591569 C167.16994,51.0999749 162.995902,45.5437796 162.995902,39.0126855 C162.995902,30.7284142 169.711631,24.0126855 177.995902,24.0126855 C186.280173,24.0126855 192.995902,30.7284142 192.995902,39.0126855 C192.995902,45.5437796 188.821864,51.0999749 182.995902,53.1591569 L182.995902,98.9416177 L197.457757,84.4797627 C196.520663,82.5215864 195.995902,80.3284182 195.995902,78.0126855 C195.995902,69.7284142 202.711631,63.0126855 210.995902,63.0126855 C219.280173,63.0126855 225.995902,69.7284142 225.995902,78.0126855 C225.995902,86.2969567 219.280173,93.0126855 210.995902,93.0126855 C208.680169,93.0126855 206.487001,92.4879247 204.528825,91.5508305 L182.995902,113.083753 L182.995902,138.083753 L153.06697,168.012685 L194.84943,168.012685 C196.908612,162.186724 202.464808,158.012685 208.995902,158.012685 C217.280173,158.012685 223.995902,164.728414 223.995902,173.012685 C223.995902,181.296957 217.280173,188.012685 208.995902,188.012685 C202.464808,188.012685 196.908612,183.838647 194.84943,178.012685 L143.06697,178.012685 L110.995902,210.083753 L110.995902,242.941618 L137.924834,216.012685 L168.84943,216.012685 C170.908612,210.186724 176.464808,206.012685 182.995902,206.012685 C191.280173,206.012685 197.995902,212.728414 197.995902,221.012685 C197.995902,229.296957 191.280173,236.012685 182.995902,236.012685 C176.464808,236.012685 170.908612,231.838647 168.84943,226.012685 L142.06697,226.012685 L113.06697,255.012685 L98.924834,255.012685 L70.924834,227.012685 L43.1423732,227.012685 C41.0831912,232.838647 35.5269959,237.012685 28.9959018,237.012685 C20.7116305,237.012685 13.9959018,230.296957 13.9959018,222.012685 C13.9959018,213.728414 20.7116305,207.012685 28.9959018,207.012685 C35.5269959,207.012685 41.0831912,211.186724 43.1423732,217.012685 L60.924834,217.012685 L27.462979,183.550831 C25.5048027,184.487925 23.3116344,185.012685 20.9959018,185.012685 C12.7116305,185.012685 5.99590177,178.296957 5.99590177,170.012685 C5.99590177,161.728414 12.7116305,155.012685 20.9959018,155.012685 C29.280173,155.012685 35.9959018,161.728414 35.9959018,170.012685 C35.9959018,172.328418 35.471141,174.521586 34.5340468,176.479763 L67.9959018,209.941618 L67.9959018,191.159157 C62.1699399,189.099975 57.9959018,183.54378 57.9959018,177.012685 C57.9959018,168.728414 64.7116305,162.012685 72.9959018,162.012685 C81.280173,162.012685 87.9959018,168.728414 87.9959018,177.012685 C87.9959018,183.54378 83.8218636,189.099975 77.9959018,191.159157 L77.9959018,219.941618 L100.995902,242.941618 L100.995902,168.083753 L57.924834,125.012685 L30.1423732,125.012685 C28.0831912,130.838647 22.5269959,135.012685 15.9959018,135.012685 C7.71163053,135.012685 0.995901775,128.296957 0.995901775,120.012685 C0.995901775,111.728414 7.71163053,105.012685 15.9959018,105.012685 C22.5269959,105.012685 28.0831912,109.186724 30.1423732,115.012685 L47.924834,115.012685 L16.9959018,84.0837533 L16.9959018,52.1591569 C11.1699399,50.0999749 6.99590177,44.5437796 6.99590177,38.0126855 C6.99590177,29.7284142 13.7116305,23.0126855 21.9959018,23.0126855 C30.280173,23.0126855 36.9959018,29.7284142 36.9959018,38.0126855 C36.9959018,44.5437796 32.8218636,50.0999749 26.9959018,52.1591569 L26.9959018,79.9416177 L54.9959018,107.941618 L54.9959018,89.1591569 C49.1699399,87.0999749 44.9959018,81.5437796 44.9959018,75.0126855 C44.9959018,66.7284142 51.7116305,60.0126855 59.9959018,60.0126855 C68.280173,60.0126855 74.9959018,66.7284142 74.9959018,75.0126855 C74.9959018,81.5437796 70.8218636,87.0999749 64.9959018,89.1591569 L64.9959018,117.941618 L100.995902,153.941618 L100.995902,49.0837533 L80.462979,28.5508305 C78.5048027,29.4879247 76.3116344,30.0126855 73.9959018,30.0126855 C65.7116305,30.0126855 58.9959018,23.2969567 58.9959018,15.0126855 C58.9959018,6.72841424 65.7116305,0.0126854835 73.9959018,0.0126854835 C82.280173,0.0126854835 88.9959018,6.72841424 88.9959018,15.0126855 C88.9959018,17.3284182 88.471141,19.5215864 87.5340468,21.4797627 L105.995902,39.9416177 L124.457757,21.4797627 C123.520663,19.5215864 122.995902,17.3284182 122.995902,15.0126855 C122.995902,6.72841424 129.711631,0.0126854835 137.995902,0.0126854835 C146.280173,0.0126854835 152.995902,6.72841424 152.995902,15.0126855 C152.995902,23.2969567 146.280173,30.0126855 137.995902,30.0126855 C135.680169,30.0126855 133.487001,29.4879247 131.528825,28.5508305 L110.995902,49.0837533 L110.995902,195.941618 L135.995902,170.941618 L135.995902,141.159157 C130.16994,139.099975 125.995902,133.54378 125.995902,127.012685 C125.995902,118.728414 132.711631,112.012685 140.995902,112.012685 C149.280173,112.012685 155.995902,118.728414 155.995902,127.012685 C155.995902,133.54378 151.821864,139.099975 145.995902,141.159157 L145.995902,160.941618 L172.995902,133.941618 L172.995902,113.083753 L151.462979,91.5508305 C149.504803,92.4879247 147.311634,93.0126855 144.995902,93.0126855 C136.711631,93.0126855 129.995902,86.2969567 129.995902,78.0126855 C129.995902,69.7284142 136.711631,63.0126855 144.995902,63.0126855 C153.280173,63.0126855 159.995902,69.7284142 159.995902,78.0126855 C159.995902,80.3284182 159.471141,82.5215864 158.534047,84.4797627 Z M28.9959018,228.012685 C32.3096103,228.012685 34.9959018,225.326394 34.9959018,222.012685 C34.9959018,218.698977 32.3096103,216.012685 28.9959018,216.012685 C25.6821933,216.012685 22.9959018,218.698977 22.9959018,222.012685 C22.9959018,225.326394 25.6821933,228.012685 28.9959018,228.012685 Z M72.9959018,183.012685 C76.3096103,183.012685 78.9959018,180.326394 78.9959018,177.012685 C78.9959018,173.698977 76.3096103,171.012685 72.9959018,171.012685 C69.6821933,171.012685 66.9959018,173.698977 66.9959018,177.012685 C66.9959018,180.326394 69.6821933,183.012685 72.9959018,183.012685 Z M20.9959018,176.012685 C24.3096103,176.012685 26.9959018,173.326394 26.9959018,170.012685 C26.9959018,166.698977 24.3096103,164.012685 20.9959018,164.012685 C17.6821933,164.012685 14.9959018,166.698977 14.9959018,170.012685 C14.9959018,173.326394 17.6821933,176.012685 20.9959018,176.012685 Z M15.9959018,126.012685 C19.3096103,126.012685 21.9959018,123.326394 21.9959018,120.012685 C21.9959018,116.698977 19.3096103,114.012685 15.9959018,114.012685 C12.6821933,114.012685 9.99590177,116.698977 9.99590177,120.012685 C9.99590177,123.326394 12.6821933,126.012685 15.9959018,126.012685 Z M140.995902,133.012685 C144.30961,133.012685 146.995902,130.326394 146.995902,127.012685 C146.995902,123.698977 144.30961,121.012685 140.995902,121.012685 C137.682193,121.012685 134.995902,123.698977 134.995902,127.012685 C134.995902,130.326394 137.682193,133.012685 140.995902,133.012685 Z M208.995902,179.012685 C212.30961,179.012685 214.995902,176.326394 214.995902,173.012685 C214.995902,169.698977 212.30961,167.012685 208.995902,167.012685 C205.682193,167.012685 202.995902,169.698977 202.995902,173.012685 C202.995902,176.326394 205.682193,179.012685 208.995902,179.012685 Z M182.995902,227.012685 C186.30961,227.012685 188.995902,224.326394 188.995902,221.012685 C188.995902,217.698977 186.30961,215.012685 182.995902,215.012685 C179.682193,215.012685 176.995902,217.698977 176.995902,221.012685 C176.995902,224.326394 179.682193,227.012685 182.995902,227.012685 Z M210.995902,84.0126855 C214.30961,84.0126855 216.995902,81.326394 216.995902,78.0126855 C216.995902,74.698977 214.30961,72.0126855 210.995902,72.0126855 C207.682193,72.0126855 204.995902,74.698977 204.995902,78.0126855 C204.995902,81.326394 207.682193,84.0126855 210.995902,84.0126855 Z M177.995902,45.0126855 C181.30961,45.0126855 183.995902,42.326394 183.995902,39.0126855 C183.995902,35.698977 181.30961,33.0126855 177.995902,33.0126855 C174.682193,33.0126855 171.995902,35.698977 171.995902,39.0126855 C171.995902,42.326394 174.682193,45.0126855 177.995902,45.0126855 Z M137.995902,21.0126855 C141.30961,21.0126855 143.995902,18.326394 143.995902,15.0126855 C143.995902,11.698977 141.30961,9.01268548 137.995902,9.01268548 C134.682193,9.01268548 131.995902,11.698977 131.995902,15.0126855 C131.995902,18.326394 134.682193,21.0126855 137.995902,21.0126855 Z M73.9959018,21.0126855 C77.3096103,21.0126855 79.9959018,18.326394 79.9959018,15.0126855 C79.9959018,11.698977 77.3096103,9.01268548 73.9959018,9.01268548 C70.6821933,9.01268548 67.9959018,11.698977 67.9959018,15.0126855 C67.9959018,18.326394 70.6821933,21.0126855 73.9959018,21.0126855 Z M21.9959018,44.0126855 C25.3096103,44.0126855 27.9959018,41.326394 27.9959018,38.0126855 C27.9959018,34.698977 25.3096103,32.0126855 21.9959018,32.0126855 C18.6821933,32.0126855 15.9959018,34.698977 15.9959018,38.0126855 C15.9959018,41.326394 18.6821933,44.0126855 21.9959018,44.0126855 Z M59.9959018,81.0126855 C63.3096103,81.0126855 65.9959018,78.326394 65.9959018,75.0126855 C65.9959018,71.698977 63.3096103,69.0126855 59.9959018,69.0126855 C56.6821933,69.0126855 53.9959018,71.698977 53.9959018,75.0126855 C53.9959018,78.326394 56.6821933,81.0126855 59.9959018,81.0126855 Z M144.995902,84.0126855 C148.30961,84.0126855 150.995902,81.326394 150.995902,78.0126855 C150.995902,74.698977 148.30961,72.0126855 144.995902,72.0126855 C141.682193,72.0126855 138.995902,74.698977 138.995902,78.0126855 C138.995902,81.326394 141.682193,84.0126855 144.995902,84.0126855 Z" id="large-tree"></path>
            </g>
        </g>
    </g>
</svg>