<svg xmlns="http://www.w3.org/2000/svg" xmlns:xlink="http://www.w3.org/1999/xlink" width="240" height="256" version="1.1" viewBox="0 0 240 256"><title>tree_black</title><desc>Created with Sketch.</desc><defs><path id="path-1" d="M172.538145,85.4670773 L187,99.9289322 L187,54.1464715 C181.174038,52.0872894 177,46.5310941 177,40 C177,31.7157288 183.715729,25 192,25 C200.284271,25 207,31.7157288 207,40 C207,46.5310941 202.825962,52.0872894 197,54.1464715 L197,99.9289322 L211.461855,85.4670773 C210.524761,83.5089009 210,81.3157327 210,79 C210,70.7157288 216.715729,64 225,64 C233.284271,64 240,70.7157288 240,79 C240,87.2842712 233.284271,94 225,94 C222.684267,94 220.491099,93.4752392 218.532923,92.5381451 L197,114.071068 L197,139.071068 L167.071068,169 L208.853529,169 C210.912711,163.174038 216.468906,159 223,159 C231.284271,159 238,165.715729 238,174 C238,182.284271 231.284271,189 223,189 C216.468906,189 210.912711,184.825962 208.853529,179 L157.071068,179 L125,211.071068 L125,243.928932 L151.928932,217 L182.853529,217 C184.912711,211.174038 190.468906,207 197,207 C205.284271,207 212,213.715729 212,222 C212,230.284271 205.284271,237 197,237 C190.468906,237 184.912711,232.825962 182.853529,227 L156.071068,227 L127.071068,256 L112.928932,256 L84.9289322,228 L57.1464715,228 C55.0872894,233.825962 49.5310941,238 43,238 C34.7157288,238 28,231.284271 28,223 C28,214.715729 34.7157288,208 43,208 C49.5310941,208 55.0872894,212.174038 57.1464715,218 L74.9289322,218 L41.4670773,184.538145 C39.5089009,185.475239 37.3157327,186 35,186 C26.7157288,186 20,179.284271 20,171 C20,162.715729 26.7157288,156 35,156 C43.2842712,156 50,162.715729 50,171 C50,173.315733 49.4752392,175.508901 48.5381451,177.467077 L82,210.928932 L82,192.146471 C76.1740381,190.087289 72,184.531094 72,178 C72,169.715729 78.7157288,163 87,163 C95.2842712,163 102,169.715729 102,178 C102,184.531094 97.8259619,190.087289 92,192.146471 L92,220.928932 L115,243.928932 L115,169.071068 L71.9289322,126 L44.1464715,126 C42.0872894,131.825962 36.5310941,136 30,136 C21.7157288,136 15,129.284271 15,121 C15,112.715729 21.7157288,106 30,106 C36.5310941,106 42.0872894,110.174038 44.1464715,116 L61.9289322,116 L31,85.0710678 L31,53.1464715 C25.1740381,51.0872894 21,45.5310941 21,39 C21,30.7157288 27.7157288,24 36,24 C44.2842712,24 51,30.7157288 51,39 C51,45.5310941 46.8259619,51.0872894 41,53.1464715 L41,80.9289322 L69,108.928932 L69,90.1464715 C63.1740381,88.0872894 59,82.5310941 59,76 C59,67.7157288 65.7157288,61 74,61 C82.2842712,61 89,67.7157288 89,76 C89,82.5310941 84.8259619,88.0872894 79,90.1464715 L79,118.928932 L115,154.928932 L115,50.0710678 L94.4670773,29.5381451 C92.5089009,30.4752392 90.3157327,31 88,31 C79.7157288,31 73,24.2842712 73,16 C73,7.71572875 79.7157288,1 88,1 C96.2842712,1 103,7.71572875 103,16 C103,18.3157327 102.475239,20.5089009 101.538145,22.4670773 L120,40.9289322 L138.461855,22.4670773 C137.524761,20.5089009 137,18.3157327 137,16 C137,7.71572875 143.715729,1 152,1 C160.284271,1 167,7.71572875 167,16 C167,24.2842712 160.284271,31 152,31 C149.684267,31 147.491099,30.4752392 145.532923,29.5381451 L125,50.0710678 L125,196.928932 L150,171.928932 L150,142.146471 C144.174038,140.087289 140,134.531094 140,128 C140,119.715729 146.715729,113 155,113 C163.284271,113 170,119.715729 170,128 C170,134.531094 165.825962,140.087289 160,142.146471 L160,161.928932 L187,134.928932 L187,114.071068 L165.467077,92.5381451 C163.508901,93.4752392 161.315733,94 159,94 C150.715729,94 144,87.2842712 144,79 C144,70.7157288 150.715729,64 159,64 C167.284271,64 174,70.7157288 174,79 C174,81.3157327 173.475239,83.5089009 172.538145,85.4670773 Z M43,229 C46.3137085,229 49,226.313708 49,223 C49,219.686292 46.3137085,217 43,217 C39.6862915,217 37,219.686292 37,223 C37,226.313708 39.6862915,229 43,229 Z M87,184 C90.3137085,184 93,181.313708 93,178 C93,174.686292 90.3137085,172 87,172 C83.6862915,172 81,174.686292 81,178 C81,181.313708 83.6862915,184 87,184 Z M35,177 C38.3137085,177 41,174.313708 41,171 C41,167.686292 38.3137085,165 35,165 C31.6862915,165 29,167.686292 29,171 C29,174.313708 31.6862915,177 35,177 Z M30,127 C33.3137085,127 36,124.313708 36,121 C36,117.686292 33.3137085,115 30,115 C26.6862915,115 24,117.686292 24,121 C24,124.313708 26.6862915,127 30,127 Z M155,134 C158.313708,134 161,131.313708 161,128 C161,124.686292 158.313708,122 155,122 C151.686292,122 149,124.686292 149,128 C149,131.313708 151.686292,134 155,134 Z M223,180 C226.313708,180 229,177.313708 229,174 C229,170.686292 226.313708,168 223,168 C219.686292,168 217,170.686292 217,174 C217,177.313708 219.686292,180 223,180 Z M197,228 C200.313708,228 203,225.313708 203,222 C203,218.686292 200.313708,216 197,216 C193.686292,216 191,218.686292 191,222 C191,225.313708 193.686292,228 197,228 Z M225,85 C228.313708,85 231,82.3137085 231,79 C231,75.6862915 228.313708,73 225,73 C221.686292,73 219,75.6862915 219,79 C219,82.3137085 221.686292,85 225,85 Z M192,46 C195.313708,46 198,43.3137085 198,40 C198,36.6862915 195.313708,34 192,34 C188.686292,34 186,36.6862915 186,40 C186,43.3137085 188.686292,46 192,46 Z M152,22 C155.313708,22 158,19.3137085 158,16 C158,12.6862915 155.313708,10 152,10 C148.686292,10 146,12.6862915 146,16 C146,19.3137085 148.686292,22 152,22 Z M88,22 C91.3137085,22 94,19.3137085 94,16 C94,12.6862915 91.3137085,10 88,10 C84.6862915,10 82,12.6862915 82,16 C82,19.3137085 84.6862915,22 88,22 Z M36,45 C39.3137085,45 42,42.3137085 42,39 C42,35.6862915 39.3137085,33 36,33 C32.6862915,33 30,35.6862915 30,39 C30,42.3137085 32.6862915,45 36,45 Z M74,82 C77.3137085,82 80,79.3137085 80,76 C80,72.6862915 77.3137085,70 74,70 C70.6862915,70 68,72.6862915 68,76 C68,79.3137085 70.6862915,82 74,82 Z M159,85 C162.313708,85 165,82.3137085 165,79 C165,75.6862915 162.313708,73 159,73 C155.686292,73 153,75.6862915 153,79 C153,82.3137085 155.686292,85 159,85 Z"/></defs><g id="Page-1" fill="none" fill-rule="evenodd" stroke="none" stroke-width="1"><g id="tree_black"><g id="large-tree"><mask id="mask-2" fill="#fff"><use xlink:href="#path-1"/></mask><g id="fill/black" fill="#000" fill-rule="evenodd" mask="url(#mask-2)"><g id="Rectangle-2" transform="translate(0.000000, 1.000000)"><rect width="240" height="255" x="0" y="0"/></g></g></g></g></g></svg>