<?xml version="1.0" encoding="UTF-8"?>
<svg width="1667px" height="420px" viewBox="0 0 1667 420" version="1.1" xmlns="http://www.w3.org/2000/svg" xmlns:xlink="http://www.w3.org/1999/xlink">
    <!-- Generator: Sketch 47.1 (45422) - http://www.bohemiancoding.com/sketch -->
    <title>white-logo-with-text</title>
    <desc>Created with Sketch.</desc>
    <defs>
        <text id="text-1" font-family="Roboto-Regular, Roboto" font-size="158" font-weight="normal" fill="#FFFFFF">
            <tspan x="512" y="269">Home Assistant</tspan>
        </text>
        <filter x="-4.3%" y="-24.5%" width="108.6%" height="167.2%" filterUnits="objectBoundingBox" id="filter-2">
            <feOffset dx="0" dy="17" in="SourceAlpha" result="shadowOffsetOuter1"></feOffset>
            <feGaussianBlur stdDeviation="18" in="shadowOffsetOuter1" result="shadowBlurOuter1"></feGaussianBlur>
            <feColorMatrix values="0 0 0 0 0   0 0 0 0 0   0 0 0 0 0  0 0 0 0.2 0" type="matrix" in="shadowBlurOuter1"></feColorMatrix>
        </filter>
        <path d="M74.7165449,359.222285 L74.7165449,225.032391 L43.3373561,225.032391 L43.3373561,225.032391 C38.1827401,225.032391 34.0040982,220.853749 34.0040982,215.699133 C34.0040982,213.238201 34.9760435,210.876858 36.7084179,209.128982 L223.722863,20.4411991 L223.722863,20.4411991 C228.258605,15.8648723 235.645397,15.8319723 240.221724,20.3677149 C240.246297,20.39207 240.270761,20.4165343 240.295117,20.4411071 L328.746105,109.681541 L328.746105,84.1557066 L328.746105,84.1557066 C328.746105,79.8601933 332.228306,76.3779918 336.52382,76.3779918 L365.944602,76.3779918 L365.944602,76.3779918 C370.240115,76.3779918 373.722317,79.8601933 373.722317,84.1557066 L373.722317,155.141679 L427.287848,209.125224 L427.287848,209.125224 C430.918518,212.784227 430.89555,218.693674 427.236547,222.324344 C425.488353,224.059001 423.125404,225.032391 420.662638,225.032391 L389.301342,225.032391 L389.301342,359.222285 L389.301342,359.222285 C389.301342,363.517798 385.81914,367 381.523627,367 L82.4942598,367 L82.4942598,367 C78.1987465,367 74.7165449,363.517798 74.7165449,359.222285 Z" id="path-3"></path>
        <filter x="-15.8%" y="-13.0%" width="131.6%" height="135.7%" filterUnits="objectBoundingBox" id="filter-4">
            <feOffset dx="0" dy="17" in="SourceAlpha" result="shadowOffsetOuter1"></feOffset>
            <feGaussianBlur stdDeviation="18" in="shadowOffsetOuter1" result="shadowBlurOuter1"></feGaussianBlur>
            <feColorMatrix values="0 0 0 0 0   0 0 0 0 0   0 0 0 0 0  0 0 0 0.2 0" type="matrix" in="shadowBlurOuter1"></feColorMatrix>
        </filter>
        <linearGradient x1="50%" y1="0%" x2="50%" y2="100%" id="linearGradient-5">
            <stop stop-color="#FFFFFF" stop-opacity="0" offset="0%"></stop>
            <stop stop-color="#000000" stop-opacity="0.109912817" offset="100%"></stop>
        </linearGradient>
        <path d="M74.7124467,359.234971 L74.7124467,225.045077 L43.3332578,225.045077 C38.1786419,225.045077 34,220.866435 34,215.711819 C34,213.250886 34.9719453,210.889543 36.7043197,209.141668 L223.718764,20.4538846 L223.718764,20.4538846 C228.254507,15.8775578 235.641299,15.8446578 240.217625,20.3804004 C240.242199,20.4047555 240.266663,20.4292198 240.291018,20.4537925 L328.742006,109.694226 L328.742006,84.1683921 L328.742006,84.1683921 C328.742006,79.8728788 332.224208,76.3906772 336.519721,76.3906772 L365.940504,76.3906772 L365.940504,76.3906772 C370.236017,76.3906772 373.718219,79.8728788 373.718219,84.1683921 L373.718219,155.154365 L427.28375,209.137909 C430.91442,212.796912 430.891452,218.706359 427.232449,222.337029 C425.484255,224.071686 423.121305,225.045077 420.658539,225.045077 L389.297243,225.045077 L389.297243,359.234971 C389.297243,363.530484 385.815042,367.012685 381.519528,367.012685 L82.4901615,367.012685 L82.4901615,367.012685 C78.1946482,367.012685 74.7124467,363.530484 74.7124467,359.234971 L74.7124467,359.234971 Z M285.534047,196.479763 C286.471141,194.521586 286.995902,192.328418 286.995902,190.012685 C286.995902,181.728414 280.280173,175.012685 271.995902,175.012685 C263.711631,175.012685 256.995902,181.728414 256.995902,190.012685 C256.995902,198.296957 263.711631,205.012685 271.995902,205.012685 C274.311634,205.012685 276.504803,204.487925 278.462979,203.550831 L299.995902,225.083753 L299.995902,245.941618 L272.995902,272.941618 L272.995902,253.159157 C278.821864,251.099975 282.995902,245.54378 282.995902,239.012685 C282.995902,230.728414 276.280173,224.012685 267.995902,224.012685 C259.711631,224.012685 252.995902,230.728414 252.995902,239.012685 C252.995902,245.54378 257.16994,251.099975 262.995902,253.159157 L262.995902,282.941618 L237.995902,307.941618 L237.995902,161.083753 L258.528825,140.550831 C260.487001,141.487925 262.680169,142.012685 264.995902,142.012685 C273.280173,142.012685 279.995902,135.296957 279.995902,127.012685 C279.995902,118.728414 273.280173,112.012685 264.995902,112.012685 C256.711631,112.012685 249.995902,118.728414 249.995902,127.012685 C249.995902,129.328418 250.520663,131.521586 251.457757,133.479763 L232.995902,151.941618 L214.534047,133.479763 C215.471141,131.521586 215.995902,129.328418 215.995902,127.012685 C215.995902,118.728414 209.280173,112.012685 200.995902,112.012685 C192.711631,112.012685 185.995902,118.728414 185.995902,127.012685 C185.995902,135.296957 192.711631,142.012685 200.995902,142.012685 C203.311634,142.012685 205.504803,141.487925 207.462979,140.550831 L227.995902,161.083753 L227.995902,265.941618 L191.995902,229.941618 L191.995902,201.159157 C197.821864,199.099975 201.995902,193.54378 201.995902,187.012685 C201.995902,178.728414 195.280173,172.012685 186.995902,172.012685 C178.711631,172.012685 171.995902,178.728414 171.995902,187.012685 C171.995902,193.54378 176.16994,199.099975 181.995902,201.159157 L181.995902,219.941618 L153.995902,191.941618 L153.995902,164.159157 C159.821864,162.099975 163.995902,156.54378 163.995902,150.012685 C163.995902,141.728414 157.280173,135.012685 148.995902,135.012685 C140.711631,135.012685 133.995902,141.728414 133.995902,150.012685 C133.995902,156.54378 138.16994,162.099975 143.995902,164.159157 L143.995902,196.083753 L174.924834,227.012685 L157.142373,227.012685 C155.083191,221.186724 149.526996,217.012685 142.995902,217.012685 C134.711631,217.012685 127.995902,223.728414 127.995902,232.012685 C127.995902,240.296957 134.711631,247.012685 142.995902,247.012685 C149.526996,247.012685 155.083191,242.838647 157.142373,237.012685 L184.924834,237.012685 L227.995902,280.083753 L227.995902,354.941618 L204.995902,331.941618 L204.995902,303.159157 C210.821864,301.099975 214.995902,295.54378 214.995902,289.012685 C214.995902,280.728414 208.280173,274.012685 199.995902,274.012685 C191.711631,274.012685 184.995902,280.728414 184.995902,289.012685 C184.995902,295.54378 189.16994,301.099975 194.995902,303.159157 L194.995902,321.941618 L161.534047,288.479763 C162.471141,286.521586 162.995902,284.328418 162.995902,282.012685 C162.995902,273.728414 156.280173,267.012685 147.995902,267.012685 C139.711631,267.012685 132.995902,273.728414 132.995902,282.012685 C132.995902,290.296957 139.711631,297.012685 147.995902,297.012685 C150.311634,297.012685 152.504803,296.487925 154.462979,295.550831 L187.924834,329.012685 L170.142373,329.012685 C168.083191,323.186724 162.526996,319.012685 155.995902,319.012685 C147.711631,319.012685 140.995902,325.728414 140.995902,334.012685 C140.995902,342.296957 147.711631,349.012685 155.995902,349.012685 C162.526996,349.012685 168.083191,344.838647 170.142373,339.012685 L197.924834,339.012685 L225.924834,367.012685 L240.06697,367.012685 L269.06697,338.012685 L295.84943,338.012685 C297.908612,343.838647 303.464808,348.012685 309.995902,348.012685 C318.280173,348.012685 324.995902,341.296957 324.995902,333.012685 C324.995902,324.728414 318.280173,318.012685 309.995902,318.012685 C303.464808,318.012685 297.908612,322.186724 295.84943,328.012685 L264.924834,328.012685 L237.995902,354.941618 L237.995902,322.083753 L270.06697,290.012685 L321.84943,290.012685 C323.908612,295.838647 329.464808,300.012685 335.995902,300.012685 C344.280173,300.012685 350.995902,293.296957 350.995902,285.012685 C350.995902,276.728414 344.280173,270.012685 335.995902,270.012685 C329.464808,270.012685 323.908612,274.186724 321.84943,280.012685 L280.06697,280.012685 L309.995902,250.083753 L309.995902,225.083753 L331.528825,203.550831 C333.487001,204.487925 335.680169,205.012685 337.995902,205.012685 C346.280173,205.012685 352.995902,198.296957 352.995902,190.012685 C352.995902,181.728414 346.280173,175.012685 337.995902,175.012685 C329.711631,175.012685 322.995902,181.728414 322.995902,190.012685 C322.995902,192.328418 323.520663,194.521586 324.457757,196.479763 L309.995902,210.941618 L309.995902,165.159157 C315.821864,163.099975 319.995902,157.54378 319.995902,151.012685 C319.995902,142.728414 313.280173,136.012685 304.995902,136.012685 C296.711631,136.012685 289.995902,142.728414 289.995902,151.012685 C289.995902,157.54378 294.16994,163.099975 299.995902,165.159157 L299.995902,210.941618 L285.534047,196.479763 Z M155.995902,340.012685 C152.682193,340.012685 149.995902,337.326394 149.995902,334.012685 C149.995902,330.698977 152.682193,328.012685 155.995902,328.012685 C159.30961,328.012685 161.995902,330.698977 161.995902,334.012685 C161.995902,337.326394 159.30961,340.012685 155.995902,340.012685 Z M199.995902,295.012685 C196.682193,295.012685 193.995902,292.326394 193.995902,289.012685 C193.995902,285.698977 196.682193,283.012685 199.995902,283.012685 C203.30961,283.012685 205.995902,285.698977 205.995902,289.012685 C205.995902,292.326394 203.30961,295.012685 199.995902,295.012685 Z M147.995902,288.012685 C144.682193,288.012685 141.995902,285.326394 141.995902,282.012685 C141.995902,278.698977 144.682193,276.012685 147.995902,276.012685 C151.30961,276.012685 153.995902,278.698977 153.995902,282.012685 C153.995902,285.326394 151.30961,288.012685 147.995902,288.012685 Z M142.995902,238.012685 C139.682193,238.012685 136.995902,235.326394 136.995902,232.012685 C136.995902,228.698977 139.682193,226.012685 142.995902,226.012685 C146.30961,226.012685 148.995902,228.698977 148.995902,232.012685 C148.995902,235.326394 146.30961,238.012685 142.995902,238.012685 Z M267.995902,245.012685 C264.682193,245.012685 261.995902,242.326394 261.995902,239.012685 C261.995902,235.698977 264.682193,233.012685 267.995902,233.012685 C271.30961,233.012685 273.995902,235.698977 273.995902,239.012685 C273.995902,242.326394 271.30961,245.012685 267.995902,245.012685 Z M335.995902,291.012685 C332.682193,291.012685 329.995902,288.326394 329.995902,285.012685 C329.995902,281.698977 332.682193,279.012685 335.995902,279.012685 C339.30961,279.012685 341.995902,281.698977 341.995902,285.012685 C341.995902,288.326394 339.30961,291.012685 335.995902,291.012685 Z M309.995902,339.012685 C306.682193,339.012685 303.995902,336.326394 303.995902,333.012685 C303.995902,329.698977 306.682193,327.012685 309.995902,327.012685 C313.30961,327.012685 315.995902,329.698977 315.995902,333.012685 C315.995902,336.326394 313.30961,339.012685 309.995902,339.012685 Z M337.995902,196.012685 C334.682193,196.012685 331.995902,193.326394 331.995902,190.012685 C331.995902,186.698977 334.682193,184.012685 337.995902,184.012685 C341.30961,184.012685 343.995902,186.698977 343.995902,190.012685 C343.995902,193.326394 341.30961,196.012685 337.995902,196.012685 Z M304.995902,157.012685 C301.682193,157.012685 298.995902,154.326394 298.995902,151.012685 C298.995902,147.698977 301.682193,145.012685 304.995902,145.012685 C308.30961,145.012685 310.995902,147.698977 310.995902,151.012685 C310.995902,154.326394 308.30961,157.012685 304.995902,157.012685 Z M264.995902,133.012685 C261.682193,133.012685 258.995902,130.326394 258.995902,127.012685 C258.995902,123.698977 261.682193,121.012685 264.995902,121.012685 C268.30961,121.012685 270.995902,123.698977 270.995902,127.012685 C270.995902,130.326394 268.30961,133.012685 264.995902,133.012685 Z M200.995902,133.012685 C197.682193,133.012685 194.995902,130.326394 194.995902,127.012685 C194.995902,123.698977 197.682193,121.012685 200.995902,121.012685 C204.30961,121.012685 206.995902,123.698977 206.995902,127.012685 C206.995902,130.326394 204.30961,133.012685 200.995902,133.012685 Z M148.995902,156.012685 C145.682193,156.012685 142.995902,153.326394 142.995902,150.012685 C142.995902,146.698977 145.682193,144.012685 148.995902,144.012685 C152.30961,144.012685 154.995902,146.698977 154.995902,150.012685 C154.995902,153.326394 152.30961,156.012685 148.995902,156.012685 Z M186.995902,193.012685 C183.682193,193.012685 180.995902,190.326394 180.995902,187.012685 C180.995902,183.698977 183.682193,181.012685 186.995902,181.012685 C190.30961,181.012685 192.995902,183.698977 192.995902,187.012685 C192.995902,190.326394 190.30961,193.012685 186.995902,193.012685 Z M271.995902,196.012685 C268.682193,196.012685 265.995902,193.326394 265.995902,190.012685 C265.995902,186.698977 268.682193,184.012685 271.995902,184.012685 C275.30961,184.012685 277.995902,186.698977 277.995902,190.012685 C277.995902,193.326394 275.30961,196.012685 271.995902,196.012685 Z" id="path-6"></path>
        <filter x="-0.5%" y="-0.6%" width="101.0%" height="101.1%" filterUnits="objectBoundingBox" id="filter-7">
            <feGaussianBlur stdDeviation="1.5" in="SourceAlpha" result="shadowBlurInner1"></feGaussianBlur>
            <feOffset dx="0" dy="-1" in="shadowBlurInner1" result="shadowOffsetInner1"></feOffset>
            <feComposite in="shadowOffsetInner1" in2="SourceAlpha" operator="arithmetic" k2="-1" k3="1" result="shadowInnerInner1"></feComposite>
            <feColorMatrix values="0 0 0 0 1   0 0 0 0 1   0 0 0 0 1  0 0 0 1 0" type="matrix" in="shadowInnerInner1"></feColorMatrix>
        </filter>
    </defs>
    <g id="Page-1" stroke="none" stroke-width="1" fill="none" fill-rule="evenodd">
        <g id="white-logo-with-text">
            <g id="Home-Assistant" fill-opacity="1" fill="#FFFFFF">
                <use filter="url(#filter-2)" xlink:href="#text-1"></use>
                <use xlink:href="#text-1"></use>
            </g>
            <g id="House-shadow" fill-opacity="1" fill="black">
                <use filter="url(#filter-4)" xlink:href="#path-3"></use>
            </g>
            <g id="house-with-large-tree" fill-rule="nonzero">
                <use fill="#FFFFFF" fill-rule="evenodd" xlink:href="#path-6"></use>
                <use fill="url(#linearGradient-5)" fill-rule="evenodd" xlink:href="#path-6"></use>
                <use fill="black" fill-opacity="1" filter="url(#filter-7)" xlink:href="#path-6"></use>
            </g>
        </g>
    </g>
</svg>