<svg xmlns="http://www.w3.org/2000/svg" width="844.543" height="568.436" viewBox="0 0 223.452 150.399"><defs><marker orient="auto" id="a" overflow="visible"><path d="M-2.308 0l3.46-2v4z" fill-rule="evenodd" stroke="#000" stroke-width=".533"/></marker><marker orient="auto" id="b" overflow="visible"><path d="M-2.308 0l3.46-2v4z" fill-rule="evenodd" stroke="#000" stroke-width=".533"/></marker><marker orient="auto" id="c" overflow="visible"><path d="M-2.308 0l3.46-2v4z" fill-rule="evenodd" stroke="#000" stroke-width=".533"/></marker><marker orient="auto" id="d" overflow="visible"><path d="M-2.308 0l3.46-2v4z" fill-rule="evenodd" stroke="#000" stroke-width=".533"/></marker><marker orient="auto" id="e" overflow="visible"><path d="M-2.308 0l3.46-2v4z" fill-rule="evenodd" stroke="#000" stroke-width=".533"/></marker><marker orient="auto" id="f" overflow="visible"><path d="M-2.308 0l3.46-2v4z" fill-rule="evenodd" stroke="#000" stroke-width=".533"/></marker><marker orient="auto" id="g" overflow="visible"><path d="M-2.308 0l3.46-2v4z" fill-rule="evenodd" stroke="#000" stroke-width=".533"/></marker><marker orient="auto" id="h" overflow="visible"><path d="M-2.308 0l3.46-2v4z" fill-rule="evenodd" stroke="#000" stroke-width=".533"/></marker><marker orient="auto" id="i" overflow="visible"><path d="M-2.308 0l3.46-2v4z" fill-rule="evenodd" stroke="#000" stroke-width=".533"/></marker></defs><g transform="translate(-10.589 -116.719)"><path fill="#9fc5e8" stroke="#000" stroke-width=".677" stroke-linejoin="round" stroke-dashoffset=".501" d="M10.998 219.451h222.704v41.217H10.998z"/><rect width="53.971" height="24.35" x="175.332" y="233.584" ry="4.69" fill="#cfe2f3" stroke="#000" stroke-width=".992" stroke-linecap="round" stroke-linejoin="round" stroke-dashoffset=".501"/><path fill="#9fc5e8" stroke="#000" stroke-width=".482" stroke-linejoin="round" stroke-dashoffset=".501" d="M10.83 116.96h54.34v21.389H10.83z"/><path fill="none" d="M22.322 143.954h35.012v34.21H22.322z"/><rect width="53.971" height="24.35" x="16.183" y="233.519" ry="4.69" fill="#cfe2f3" stroke="#000" stroke-width=".992" stroke-linecap="round" stroke-linejoin="round" stroke-dashoffset=".501"/><text style="line-height:4.03892612px" x="36.046" y="235.375" transform="scale(.94729 1.05565)" font-weight="400" font-size="6.462" font-family="sans-serif" letter-spacing="0" word-spacing="0" stroke-width=".162"><tspan x="36.046" y="235.375" style="line-height:.37247187px">Lights</tspan></text><path d="M168.967 166.033l-.014-1.155-.018-26.435" fill="none" stroke="#000" stroke-width=".86" stroke-miterlimit="8.3" marker-start="url(#a)"/><path d="M182.865 141.6l.018 1.128.022 25.825" fill="none" stroke="#000" stroke-width=".944" stroke-miterlimit="8.3" marker-start="url(#b)"/><path fill="#9fc5e8" stroke="#000" stroke-width=".482" stroke-linejoin="round" stroke-dashoffset=".501" d="M179.301 117.29h54.34v21.389h-54.34z"/><text style="line-height:3.78111124px" x="214.21" y="125.508" transform="scale(.96508 1.03619)" font-weight="400" font-size="6.05" font-family="sans-serif" letter-spacing="0" word-spacing="0" stroke-width=".151"><tspan x="214.21" y="125.508" style="line-height:.34869605px;text-align:center" text-anchor="middle">Smart Home</tspan></text><path fill="#9fc5e8" stroke="#000" stroke-width=".482" stroke-linejoin="round" stroke-dashoffset=".501" d="M117.562 117.223h54.34v21.389h-54.34z"/><text style="line-height:3.78111124px" x="149.96" y="125.701" transform="scale(.96508 1.03619)" font-weight="400" font-size="6.05" font-family="sans-serif" letter-spacing="0" word-spacing="0" stroke-width=".151"><tspan x="149.96" y="125.701" style="line-height:.34869605px;text-align:center" dy="-3.5" text-anchor="middle">Home</tspan><tspan x="149.96" y="129.483" style="line-height:.34869605px;text-align:center" text-anchor="middle">Automation</tspan></text><text style="line-height:3.78111124px" x="39.139" y="125.463" transform="scale(.96508 1.03619)" font-weight="400" font-size="6.05" font-family="sans-serif" letter-spacing="0" word-spacing="0" stroke-width=".151"><tspan x="39.139" y="125.463" style="line-height:.34869605px;text-align:center" text-anchor="middle">User</tspan></text><path d="M114.052 127.637l-2.043.015-46.738.02" fill="none" stroke="#000" stroke-width="1.167" stroke-miterlimit="8.3" marker-start="url(#c)"/><text style="line-height:3.78111124px" x="93.83" y="118.771" transform="scale(.96508 1.03619)" font-weight="400" font-size="6.05" font-family="sans-serif" letter-spacing="0" word-spacing="0" stroke-width=".151"><tspan x="93.83" y="118.771" style="line-height:.34869605px;text-align:center" text-anchor="middle">Configuration</tspan></text><path fill="#9fc5e8" stroke="#000" stroke-width=".482" stroke-linejoin="round" stroke-dashoffset=".501" d="M10.989 168.717h222.238v20.907H10.989z"/><text style="line-height:3.78111124px" x="126.85" y="174.998" transform="scale(.96508 1.03619)" font-weight="400" font-size="6.05" font-family="sans-serif" letter-spacing="0" word-spacing="0" stroke-width=".151"><tspan x="126.85" y="174.998" style="line-height:.34869605px;text-align:center" text-anchor="middle">Home Control</tspan></text><text style="line-height:3.78111124px" x="44.333" y="144.405" transform="scale(.96508 1.03619)" font-weight="400" font-size="6.05" font-family="sans-serif" letter-spacing="0" word-spacing="0" stroke-width=".151"><tspan x="44.333" y="144.405" style="line-height:.34869605px;text-align:center" text-anchor="middle">Commands</tspan></text><text style="line-height:3.78111124px" x="32.78" y="157.536" transform="scale(.96508 1.03619)" font-weight="400" font-size="6.05" font-family="sans-serif" letter-spacing="0" word-spacing="0" stroke-width=".151"><tspan x="32.78" y="157.536" style="line-height:.34869605px;text-align:center" text-anchor="middle">Information</tspan></text><path d="M13.434 141.353l.018 1.14.022 26.078" fill="none" stroke="#000" stroke-width=".945" stroke-miterlimit="8.3" marker-start="url(#d)"/><path d="M61.947 165.988l-.015-1.155-.018-26.434" fill="none" stroke="#000" stroke-width=".857" stroke-miterlimit="8.3" marker-start="url(#e)"/><rect width="53.971" height="24.35" x="92.934" y="233.962" ry="4.69" fill="#cfe2f3" stroke="#000" stroke-width=".992" stroke-linecap="round" stroke-linejoin="round" stroke-dashoffset=".501"/><text style="line-height:4.03892612px" x="112.862" y="235.375" transform="scale(.94729 1.05565)" font-weight="400" font-size="6.462" font-family="sans-serif" letter-spacing="0" word-spacing="0" stroke-width=".162"><tspan x="112.862" y="235.375" style="line-height:.37247187px">Switches</tspan></text><text style="line-height:4.03892612px" x="192.848" y="235.367" transform="scale(.94729 1.05565)" font-weight="400" font-size="6.462" font-family="sans-serif" letter-spacing="0" word-spacing="0" stroke-width=".162"><tspan x="192.848" y="235.367" style="line-height:.37247187px">Many more...</tspan></text><text style="line-height:3.78111124px" x="41.443" y="221.217" transform="scale(.96508 1.03619)" font-weight="400" font-size="6.05" font-family="sans-serif" letter-spacing="0" word-spacing="0" stroke-width=".151"><tspan x="41.443" y="221.217" style="line-height:.34869605px;text-align:center" text-anchor="middle">Internet of Things</tspan></text><path d="M120.634 141.545l.018 1.137.022 26.007" fill="none" stroke="#000" stroke-width=".945" stroke-miterlimit="8.3" marker-start="url(#f)"/><path d="M69.844 192.49l.017 1.134.02 25.937" fill="none" stroke="#000" stroke-width=".913" stroke-miterlimit="8.3" marker-start="url(#g)"/><path d="M230.867 166.056l-.015-1.152-.018-26.359" fill="none" stroke="#000" stroke-width=".858" stroke-miterlimit="8.3" marker-start="url(#h)"/><path d="M173.626 217.272l-.015-1.162-.018-26.588" fill="none" stroke="#000" stroke-width=".862" stroke-miterlimit="8.3" marker-start="url(#i)"/><text style="line-height:3.78111124px" x="154.91" y="143.758" transform="scale(.96508 1.03619)" font-weight="400" font-size="6.05" font-family="sans-serif" letter-spacing="0" word-spacing="0" stroke-width=".151"><tspan x="154.91" y="143.758" style="line-height:.34869605px;text-align:center" text-anchor="middle">Commands</tspan></text><text style="line-height:3.78111124px" x="143.382" y="157.186" transform="scale(.96508 1.03619)" font-weight="400" font-size="6.05" font-family="sans-serif" letter-spacing="0" word-spacing="0" stroke-width=".151"><tspan x="143.382" y="157.186" style="line-height:.34869605px;text-align:center" text-anchor="middle">Information</tspan></text><text style="line-height:3.78111124px" x="207.909" y="157.444" transform="scale(.96508 1.03619)" font-weight="400" font-size="6.05" font-family="sans-serif" letter-spacing="0" word-spacing="0" stroke-width=".151"><tspan x="207.909" y="157.444" style="line-height:.34869605px;text-align:center" text-anchor="middle">Information</tspan></text><text style="line-height:3.78111124px" x="219.16" y="143.758" transform="scale(.96508 1.03619)" font-weight="400" font-size="6.05" font-family="sans-serif" letter-spacing="0" word-spacing="0" stroke-width=".151"><tspan x="219.16" y="143.758" style="line-height:.34869605px;text-align:center" text-anchor="middle">Commands</tspan></text><text style="line-height:3.78111124px" x="76.223" y="200.777" transform="scale(.96508 1.03619)" font-weight="400" font-size="6.05" font-family="sans-serif" letter-spacing="0" word-spacing="0" stroke-width=".151"><tspan x="76.223" y="200.777" style="line-height:.34869605px;text-align:start" dy="-4.1">Information</tspan><tspan x="76.223" y="204.558" style="line-height:.34869605px;text-align:start">(ie. light is on)</tspan></text><text style="line-height:3.78111124px;text-align:start" x="184.675" y="200.633" transform="scale(.96508 1.03619)" font-weight="400" font-size="6.05" font-family="sans-serif" letter-spacing="0" word-spacing="0" stroke-width=".151"><tspan x="184.675" y="200.633" style="line-height:.34869605px;text-align:start" dy="-3.6">Commands</tspan><tspan x="184.675" y="204.414" style="line-height:.34869605px;text-align:start">(ie. turn light on)</tspan></text><text style="line-height:2.85691118px" x="118.754" y="271.23" transform="scale(1.01884 .98151)" font-weight="400" font-size="4.571" font-family="sans-serif" letter-spacing="0" word-spacing="0" stroke-width=".114"><tspan x="118.754" y="271.23">Graphic by Paulus Schoutsen 2014, CC BY 4.0</tspan></text></g></svg>