<?xml version="1.0" encoding="utf-8"?>
<!-- Generator: Adobe Illustrator 23.0.6, SVG Export Plug-In . SVG Version: 6.00 Build 0)  -->
<svg version="1.1" id="Ebene_1" xmlns="http://www.w3.org/2000/svg" xmlns:xlink="http://www.w3.org/1999/xlink" x="0px" y="0px"
	 viewBox="0 0 500 500" style="enable-background:new 0 0 500 500;" xml:space="preserve">
<style type="text/css">
	.st0{fill-rule:evenodd;clip-rule:evenodd;fill:#03A9F4;}
	.st1{fill-rule:evenodd;clip-rule:evenodd;fill:#FFFFFF;}
</style>
<g>
	<path id="path-1_1_" class="st0" d="M36,0h428c19.9,0,36,16.1,36,36v428c0,19.9-16.1,36-36,36H36c-19.9,0-36-16.1-36-36V36
		C0,16.1,16.1,0,36,0z"/>
</g>
<g>
	<path id="path-4_1_" class="st1" d="M257.5,420l29.1-29h26.8c2.1,5.8,7.6,10,14.2,10c8.3,0,15-6.7,15-15s-6.7-15-15-15
		c-6.5,0-12.1,4.2-14.2,10h-31l-27,26.9v-32.9l32.1-32.1h51.9c2.1,5.8,7.6,10,14.2,10c8.3,0,15-6.7,15-15c0-8.3-6.7-15-15-15
		c-6.5,0-12.1,4.2-14.2,10h-41.9l30-29.9v-25l21.6-21.5c2,0.9,4.2,1.5,6.5,1.5c8.3,0,15-6.7,15-15c0-8.3-6.7-15-15-15s-15,6.7-15,15
		c0,2.3,0.5,4.5,1.5,6.5l-14.5,14.5v-45.8c5.8-2.1,10-7.6,10-14.1c0-8.3-6.7-15-15-15s-15,6.7-15,15c0,6.5,4.2,12.1,10,14.1v45.8
		l-14.5-14.5c0.9-2,1.5-4.2,1.5-6.5c0-8.3-6.7-15-15-15c-8.3,0-15,6.7-15,15c0,8.3,6.7,15,15,15c2.3,0,4.5-0.5,6.5-1.5l21.6,21.5
		v20.9l-27,27v-19.8c5.8-2.1,10-7.6,10-14.1c0-8.3-6.7-15-15-15s-15,6.7-15,15c0,6.5,4.2,12.1,10,14.1v29.8l-25,25V214.1l20.6-20.5
		c2,0.9,4.2,1.5,6.5,1.5c8.3,0,15-6.7,15-15s-6.7-15-15-15s-15,6.7-15,15c0,2.3,0.5,4.5,1.5,6.5l-18.5,18.5l-18.5-18.5
		c0.9-2,1.5-4.2,1.5-6.5c0-8.3-6.7-15-15-15s-15,6.7-15,15s6.7,15,15,15c2.3,0,4.5-0.5,6.5-1.5l20.6,20.5v104.9l-36.1-36v-28.8
		c5.8-2.1,10-7.6,10-14.1c0-8.3-6.7-15-15-15s-15,6.7-15,15c0,6.5,4.2,12.1,10,14.1v18.8l-28.1-28v-27.8c5.8-2.1,10-7.6,10-14.1
		c0-8.3-6.7-15-15-15c-8.3,0-15,6.7-15,15c0,6.5,4.2,12.1,10,14.1v31.9l31,30.9h-17.8c-2.1-5.8-7.6-10-14.2-10c-8.3,0-15,6.7-15,15
		s6.7,15,15,15c6.5,0,12.1-4.2,14.2-10h27.8l43.1,43.1v74.9l-23-23v-28.8c5.8-2.1,10-7.6,10-14.1c0-8.3-6.7-15-15-15s-15,6.7-15,15
		c0,6.5,4.2,12.1,10,14.1v18.8l-33.5-33.5c0.9-2,1.5-4.2,1.5-6.5c0-8.3-6.7-15-15-15s-15,6.7-15,15c0,8.3,6.7,15,15,15
		c2.3,0,4.5-0.5,6.5-1.5l33.5,33.5h-17.8c-2.1-5.8-7.6-10-14.2-10c-8.3,0-15,6.7-15,15s6.7,15,15,15c6.5,0,12.1-4.2,14.2-10h27.8
		l28.1,28l-139.4,0c-4.3,0-7.8-3.5-7.8-7.8l0,0V279H61.3c-5.2,0-9.3-4.2-9.3-9.3c0-2.5,1-4.8,2.7-6.6L242.2,73.4l0,0
		c4.5-4.6,11.9-4.6,16.5-0.1c0,0,0.1,0.1,0.1,0.1l97.9,98.6v-18.2l0,0c0-4.3,3.5-7.8,7.8-7.8h32.5l0,0c4.3,0,7.8,3.5,7.8,7.8v66.9
		l41.6,42.4c3.6,3.7,3.6,9.6-0.1,13.2c-1.7,1.7-4.1,2.7-6.5,2.7h-34.9v133.2c0,4.3-3.5,7.8-7.8,7.8L257.5,420 M173.3,393
		c-3.3,0-6-2.7-6-6s2.7-6,6-6s6,2.7,6,6S176.6,393,173.3,393z M217.4,348c-3.3,0-6-2.7-6-6c0-3.3,2.7-6,6-6s6,2.7,6,6
		C223.4,345.3,220.7,348,217.4,348z M165.3,341c-3.3,0-6-2.7-6-6c0-3.3,2.7-6,6-6s6,2.7,6,6C171.3,338.3,168.6,341,165.3,341z
		 M160.3,291c-3.3,0-6-2.7-6-6s2.7-6,6-6c3.3,0,6,2.7,6,6S163.6,291,160.3,291z M285.5,298c-3.3,0-6-2.7-6-6s2.7-6,6-6s6,2.7,6,6
		S288.8,298,285.5,298z M353.6,344c-3.3,0-6-2.7-6-6c0-3.3,2.7-6,6-6s6,2.7,6,6C359.6,341.3,356.9,344,353.6,344z M327.6,392
		c-3.3,0-6-2.7-6-6s2.7-6,6-6s6,2.7,6,6S330.9,392,327.6,392z M355.6,249c-3.3,0-6-2.7-6-6c0-3.3,2.7-6,6-6s6,2.7,6,6
		C361.6,246.3,358.9,249,355.6,249z M322.6,210c-3.3,0-6-2.7-6-6c0-3.3,2.7-6,6-6s6,2.7,6,6C328.6,207.3,325.9,210,322.6,210z
		 M282.5,186c-3.3,0-6-2.7-6-6c0-3.3,2.7-6,6-6s6,2.7,6,6C288.5,183.3,285.8,186,282.5,186z M218.4,186c-3.3,0-6-2.7-6-6
		c0-3.3,2.7-6,6-6c3.3,0,6,2.7,6,6C224.4,183.3,221.7,186,218.4,186z M166.3,209c-3.3,0-6-2.7-6-6c0-3.3,2.7-6,6-6c3.3,0,6,2.7,6,6
		C172.3,206.3,169.6,209,166.3,209z M204.3,246c-3.3,0-6-2.7-6-6c0-3.3,2.7-6,6-6s6,2.7,6,6C210.4,243.3,207.7,246,204.3,246z
		 M289.5,249c-3.3,0-6-2.7-6-6c0-3.3,2.7-6,6-6c3.3,0,6,2.7,6,6C295.5,246.3,292.8,249,289.5,249z"/>
</g>
</svg>
