<?xml version="1.0" encoding="utf-8"?>
<!-- Generator: Adobe Illustrator 16.0.3, SVG Export Plug-In . SVG Version: 6.00 Build 0)  -->
<!DOCTYPE svg PUBLIC "-//W3C//DTD SVG 1.1//EN" "http://www.w3.org/Graphics/SVG/1.1/DTD/svg11.dtd">
<svg version="1.1" id="Layer_1" xmlns="http://www.w3.org/2000/svg" xmlns:xlink="http://www.w3.org/1999/xlink" x="0px" y="0px"
	 width="366.644px" height="649.134px" viewBox="0 0 366.644 649.134" enable-background="new 0 0 366.644 649.134"
	 xml:space="preserve">
<path fill="#FFFFFF" d="M52.172,542.708c0,0-12,0-12,12v82.183c0,0,0,12,12,12h262.299c0,0,12,0,12-12v-82.183c0,0,0-12-12-12
	H52.172z"/>
<path fill="#FFFFFF" d="M219.345,165.078c-3.065,0-5.551-2.481-5.551-5.542c0-3.061,2.485-5.541,5.551-5.541
	c3.066,0,5.551,2.48,5.551,5.541C224.896,162.596,222.411,165.078,219.345,165.078 M140.698,162.307
	c-3.065,0-5.552-2.481-5.552-5.541c0-3.061,2.486-5.542,5.552-5.542c3.066,0,5.551,2.481,5.551,5.542
	C146.249,159.826,143.765,162.307,140.698,162.307 M105.537,128.134c-3.064,0-5.55-2.482-5.55-5.542c0-3.061,2.486-5.542,5.55-5.542
	c3.069,0,5.554,2.481,5.554,5.542C111.091,125.652,108.606,128.134,105.537,128.134 M153.651,106.891
	c-3.065,0-5.552-2.481-5.552-5.541c0-3.061,2.486-5.541,5.552-5.541c3.067,0,5.552,2.48,5.552,5.541
	C159.203,104.41,156.719,106.891,153.651,106.891 M212.869,106.891c-3.068,0-5.553-2.481-5.553-5.541
	c0-3.061,2.484-5.541,5.553-5.541c3.063,0,5.549,2.48,5.549,5.541C218.418,104.41,215.933,106.891,212.869,106.891 M249.877,129.058
	c-3.065,0-5.552-2.481-5.552-5.541c0-3.061,2.486-5.543,5.552-5.543c3.068,0,5.553,2.482,5.553,5.543
	C255.43,126.577,252.945,129.058,249.877,129.058 M280.412,165.078c-3.066,0-5.553-2.481-5.553-5.542
	c0-3.061,2.486-5.541,5.553-5.541c3.064,0,5.551,2.48,5.551,5.541C285.963,162.596,283.477,165.078,280.412,165.078
	 M254.505,297.153c-3.068,0-5.553-2.479-5.553-5.543c0-3.062,2.484-5.542,5.553-5.542c3.066,0,5.549,2.48,5.549,5.542
	C260.054,294.673,257.571,297.153,254.505,297.153 M278.561,252.82c-3.065,0-5.551-2.481-5.551-5.541
	c0-3.062,2.485-5.542,5.551-5.542c3.064,0,5.552,2.48,5.552,5.542C284.112,250.338,281.625,252.82,278.561,252.82 M215.643,210.333
	c-3.063,0-5.551-2.479-5.551-5.541s2.487-5.543,5.551-5.543c3.066,0,5.554,2.481,5.554,5.543S218.709,210.333,215.643,210.333
	 M99.987,203.87c-3.065,0-5.55-2.483-5.55-5.543c0-3.06,2.485-5.541,5.55-5.541c3.067,0,5.55,2.481,5.55,5.541
	C105.537,201.386,103.054,203.87,99.987,203.87 M104.615,250.047c-3.066,0-5.553-2.48-5.553-5.541c0-3.058,2.487-5.541,5.553-5.541
	c3.064,0,5.551,2.483,5.551,5.541C110.166,247.567,107.679,250.047,104.615,250.047 M152.727,256.513
	c-3.066,0-5.552-2.48-5.552-5.539c0-3.062,2.485-5.543,5.552-5.543s5.552,2.481,5.552,5.543
	C158.278,254.033,155.793,256.513,152.727,256.513 M112.015,298.075c-3.065,0-5.551-2.479-5.551-5.539
	c0-3.063,2.486-5.543,5.551-5.543c3.067,0,5.553,2.48,5.553,5.543C117.568,295.595,115.082,298.075,112.015,298.075
	 M231.871,165.508c0.868-1.808,1.354-3.834,1.354-5.973c0-7.651-6.215-13.854-13.88-13.854c-7.667,0-13.878,6.203-13.878,13.854
	c0,7.651,6.211,13.855,13.878,13.855c2.143,0,4.17-0.484,5.983-1.351l19.922,19.888v19.264l-24.981,24.938v-18.271
	c5.393-1.903,9.255-7.035,9.255-13.066c0-7.651-6.214-13.854-13.881-13.854c-7.662,0-13.878,6.203-13.878,13.854
	c0,6.031,3.861,11.163,9.253,13.066v27.506l-23.131,23.091V132.817l18.995-18.964c1.815,0.866,3.841,1.349,5.987,1.349
	c7.663,0,13.876-6.202,13.876-13.853c0-7.651-6.213-13.854-13.876-13.854c-7.666,0-13.88,6.203-13.88,13.854
	c0,2.139,0.486,4.165,1.351,5.972l-17.08,17.053l-17.081-17.053c0.867-1.807,1.353-3.833,1.353-5.972
	c0-7.651-6.213-13.854-13.88-13.854c-7.665,0-13.878,6.203-13.878,13.854c0,7.651,6.213,13.853,13.878,13.853
	c2.144,0,4.173-0.483,5.984-1.349l18.998,18.964v96.846l-33.31-33.251v-26.581c5.392-1.903,9.254-7.034,9.254-13.066
	c0-7.652-6.214-13.855-13.88-13.855c-7.664,0-13.878,6.203-13.878,13.855c0,6.032,3.861,11.163,9.253,13.066v17.346l-25.907-25.861
	v-25.659c5.389-1.902,9.251-7.033,9.251-13.065c0-7.651-6.213-13.855-13.88-13.855c-7.662,0-13.877,6.204-13.877,13.855
	c0,6.032,3.862,11.163,9.253,13.065v29.486l28.617,28.564h-16.453c-1.906-5.379-7.047-9.235-13.09-9.235
	c-7.664,0-13.879,6.204-13.879,13.854c0,7.653,6.215,13.854,13.879,13.854c6.043,0,11.184-3.856,13.09-9.235h25.706l39.851,39.781
	v69.138l-21.281-21.242v-26.585c5.391-1.901,9.253-7.033,9.253-13.063c0-7.654-6.215-13.855-13.879-13.855
	c-7.665,0-13.879,6.201-13.879,13.855c0,6.029,3.861,11.161,9.252,13.063v17.348l-30.959-30.905
	c0.866-1.809,1.353-3.833,1.353-5.973c0-7.649-6.215-13.854-13.878-13.854c-7.667,0-13.88,6.204-13.88,13.854
	c0,7.651,6.213,13.854,13.88,13.854c2.142,0,4.17-0.483,5.981-1.352l30.961,30.905h-16.453c-1.907-5.379-7.047-9.235-13.09-9.235
	c-7.665,0-13.878,6.203-13.878,13.856c0,7.648,6.213,13.852,13.878,13.852c6.043,0,11.183-3.854,13.09-9.234h25.706l25.907,25.859
	h13.084l26.832-26.785h24.783c1.905,5.385,7.045,9.237,13.088,9.237c7.663,0,13.878-6.201,13.878-13.854
	c0-7.651-6.215-13.853-13.878-13.853c-6.043,0-11.183,3.854-13.088,9.235h-28.614l-24.916,24.871v-30.349l29.672-29.621h47.911
	c1.906,5.383,7.047,9.237,13.091,9.237c7.667,0,13.879-6.201,13.879-13.853c0-7.653-6.212-13.856-13.879-13.856
	c-6.044,0-11.185,3.857-13.091,9.237h-38.658l27.693-27.641v-23.091l19.922-19.888c1.813,0.867,3.841,1.351,5.985,1.351
	c7.665,0,13.878-6.204,13.878-13.855c0-7.651-6.213-13.854-13.878-13.854c-7.666,0-13.88,6.203-13.88,13.854
	c0,2.139,0.486,4.165,1.353,5.973l-13.38,13.359v-42.286c5.39-1.902,9.252-7.033,9.252-13.065c0-7.652-6.214-13.855-13.88-13.855
	c-7.665,0-13.878,6.203-13.878,13.855c0,6.032,3.861,11.163,9.251,13.065v42.286L231.871,165.508z M40.772,315.84V192.786H8.62
	c-4.76,0-8.62-3.86-8.62-8.619c0-2.271,0.894-4.45,2.489-6.058L175.62,2.957c4.182-4.232,11.005-4.272,15.236-0.089
	c0.023,0.023,0.049,0.047,0.07,0.071l90.408,91.023V77.13c0-3.967,3.217-7.183,7.186-7.183h30.046c3.967,0,7.18,3.216,7.18,7.183
	v61.809l38.433,39.191c3.333,3.399,3.28,8.856-0.119,12.188c-1.61,1.583-3.778,2.467-6.033,2.467h-32.28V315.84
	c0,3.967-3.213,7.182-7.18,7.182H47.954C43.988,323.022,40.772,319.807,40.772,315.84"/>
<path fill="#FFFFFF" d="M330.68,491.267c0-2.561-0.56-4.626-1.68-6.2c-1.12-1.572-3.067-3.106-5.839-4.6l-8.081-4.801
	c-2.293-1.226-3.44-2.426-3.44-3.6v-0.4c0-1.333,1.308-2,3.92-2h11.12c0.64,0,1.067-0.12,1.281-0.359
	c0.212-0.24,0.32-0.652,0.32-1.24v-5.2c0-1.12-0.534-1.68-1.602-1.68h-13.36c-4.213,0-7.307,0.88-9.278,2.64
	c-1.975,1.76-2.961,4.507-2.961,8.24c0,2.508,0.64,4.56,1.92,6.16c1.281,1.6,3.281,3.094,6,4.479l7.921,4.4
	c2.186,1.174,3.279,2.4,3.279,3.68v0.4c0,1.6-1.308,2.399-3.919,2.399h-13.36c-0.642,0-1.068,0.12-1.281,0.36
	s-0.319,0.654-0.319,1.24v5.12c0,1.12,0.532,1.68,1.601,1.68h15.199C326.493,501.987,330.68,498.414,330.68,491.267
	 M270.041,478.387v-3.841c0-1.705,0.347-2.905,1.04-3.6c0.692-0.693,1.893-1.04,3.6-1.04h3.36c1.707,0,2.907,0.347,3.6,1.04
	c0.693,0.694,1.04,1.895,1.04,3.6v3.841c0,0.587-0.293,0.88-0.88,0.88h-10.88C270.334,479.267,270.041,478.974,270.041,478.387
	 M292.161,501.626c0.239-0.239,0.359-0.652,0.359-1.239v-5.28c0-1.172-0.56-1.76-1.68-1.76h-16.16c-1.707,0-2.92-0.36-3.64-1.08
	c-0.721-0.721-1.08-1.906-1.08-3.561v-1.76c0-0.586,0.32-0.88,0.96-0.88h20.08c1.12,0,1.68-0.56,1.68-1.68v-10.16
	c0-4.212-1.146-7.44-3.439-9.681c-2.293-2.239-5.548-3.359-9.761-3.359h-6.319c-4.213,0-7.468,1.12-9.761,3.359
	c-2.293,2.24-3.439,5.469-3.439,9.681v14.72c0,4.214,1.146,7.44,3.439,9.68c2.293,2.24,5.548,3.36,9.761,3.36h17.68
	C291.48,501.987,291.921,501.867,292.161,501.626 M249.162,500.307v-52.88c0-1.12-0.561-1.681-1.681-1.681h-6.8
	c-1.12,0-1.68,0.561-1.68,1.681v52.88c0,1.12,0.56,1.68,1.68,1.68h6.8C248.602,501.987,249.162,501.427,249.162,500.307
	 M213.802,500.907c1.493-0.72,2.533-1.8,3.12-3.24h0.32v2.641c0,1.12,0.56,1.68,1.68,1.68h6.72c1.173,0,1.76-0.56,1.76-1.68v-37.44
	c0-1.12-0.587-1.68-1.76-1.68h-6.72c-1.12,0-1.68,0.56-1.68,1.68v24.24c0,4.054-1.841,6.08-5.521,6.08h-2.96
	c-1.653,0-2.84-0.36-3.56-1.08c-0.721-0.72-1.08-1.933-1.08-3.64v-25.601c0-1.12-0.561-1.68-1.681-1.68h-6.8
	c-1.12,0-1.68,0.56-1.68,1.68v26.08c0,4.214,1.053,7.44,3.16,9.68c2.106,2.24,5.213,3.36,9.319,3.36h2.641
	C210.734,501.987,212.309,501.626,213.802,500.907 M174.202,500.307v-24.08c0-4.16,1.84-6.24,5.52-6.24h5.521
	c0.587,0.054,1-0.04,1.239-0.28c0.24-0.239,0.36-0.68,0.36-1.319v-5.521c0-1.12-0.533-1.68-1.6-1.68h-2.881
	c-1.652,0-3.227,0.374-4.72,1.12c-1.493,0.747-2.533,1.84-3.12,3.279h-0.319v-2.72c0-1.12-0.561-1.68-1.681-1.68h-6.8
	c-1.12,0-1.68,0.56-1.68,1.68v37.44c0,1.12,0.56,1.68,1.68,1.68h6.8C173.642,501.987,174.202,501.427,174.202,500.307
	 M120.604,512.067c2.453-2.294,4.266-5.654,5.44-10.08l9.76-39.04c0.266-1.173-0.267-1.76-1.6-1.76h-6.72c-1.12,0-1.787,0.56-2,1.68
	l-6.8,29.521h-0.32l-6.88-29.521c-0.267-1.12-0.934-1.68-2-1.68h-7.12c-1.12,0-1.52,0.56-1.2,1.68l9.36,35.28
	c0.32,1.12,0.986,1.68,2,1.68h4.24c-0.64,2.666-1.56,4.466-2.76,5.4c-1.2,0.932-3.48,1.399-6.84,1.399h-1.68
	c-1.067,0-1.6,0.586-1.6,1.761v5.359c0,1.173,0.533,1.761,1.6,1.761h5.12C114.817,515.507,118.15,514.36,120.604,512.067
	 M47.885,500.307v-24.24c0-4.052,1.84-6.08,5.52-6.08h2.48c1.706,0,2.92,0.36,3.64,1.08c0.72,0.72,1.08,1.934,1.08,3.64v25.601
	c0,1.12,0.56,1.68,1.68,1.68h6.72c1.172,0,1.76-0.56,1.76-1.68v-24.16c0-4.106,1.84-6.16,5.52-6.16h2c1.706,0,2.906,0.36,3.6,1.08
	c0.693,0.72,1.04,1.934,1.04,3.64v25.601c0,1.12,0.56,1.68,1.68,1.68h6.8c1.12,0,1.68-0.56,1.68-1.68v-26.08
	c0-4.212-1.054-7.44-3.16-9.681c-2.108-2.239-5.214-3.359-9.32-3.359h-2.32c-4.427,0-7.548,1.707-9.36,5.12
	c-2.028-3.413-5.36-5.12-10-5.12h-2.24c-1.974,0-3.72,0.399-5.24,1.2c-1.52,0.8-2.6,1.84-3.24,3.12h-0.32v-2.641
	c0-1.12-0.56-1.68-1.68-1.68h-6.8c-1.12,0-1.68,0.56-1.68,1.68v37.44c0,1.12,0.56,1.68,1.68,1.68h6.8
	C47.325,501.987,47.885,501.427,47.885,500.307"/>
<path fill="#FFFFFF" d="M310,388.387v-3.841c0-1.705,0.346-2.905,1.04-3.6c0.693-0.693,1.893-1.04,3.6-1.04H318
	c1.706,0,2.906,0.347,3.6,1.04c0.693,0.694,1.04,1.895,1.04,3.6v3.841c0,0.587-0.294,0.88-0.88,0.88h-10.88
	C310.293,389.267,310,388.974,310,388.387 M332.12,411.626c0.24-0.239,0.36-0.652,0.36-1.239v-5.28c0-1.172-0.561-1.76-1.681-1.76
	h-16.16c-1.707,0-2.92-0.36-3.64-1.08c-0.72-0.721-1.08-1.906-1.08-3.561v-1.76c0-0.586,0.32-0.88,0.96-0.88h20.08
	c1.12,0,1.68-0.56,1.68-1.68v-10.16c0-4.212-1.146-7.44-3.439-9.681c-2.294-2.239-5.547-3.359-9.76-3.359h-6.32
	c-4.214,0-7.467,1.12-9.76,3.359c-2.294,2.24-3.44,5.469-3.44,9.681v14.72c0,4.214,1.146,7.44,3.44,9.68
	c2.293,2.24,5.546,3.36,9.76,3.36h17.68C331.44,411.987,331.88,411.867,332.12,411.626 M247.041,410.307v-24.24
	c0-4.052,1.84-6.08,5.521-6.08h2.479c1.706,0,2.92,0.36,3.64,1.08c0.721,0.72,1.08,1.934,1.08,3.64v25.601
	c0,1.12,0.561,1.68,1.681,1.68h6.72c1.173,0,1.76-0.56,1.76-1.68v-24.16c0-4.106,1.84-6.16,5.521-6.16h2
	c1.706,0,2.905,0.36,3.6,1.08c0.693,0.72,1.04,1.934,1.04,3.64v25.601c0,1.12,0.56,1.68,1.68,1.68h6.801
	c1.119,0,1.68-0.56,1.68-1.68v-26.08c0-4.212-1.054-7.44-3.16-9.681c-2.107-2.239-5.214-3.359-9.32-3.359h-2.319
	c-4.428,0-7.547,1.708-9.36,5.12c-2.027-3.412-5.36-5.12-10-5.12h-2.24c-1.974,0-3.72,0.399-5.239,1.2
	c-1.521,0.8-2.601,1.84-3.24,3.12h-0.32v-2.641c0-1.12-0.56-1.68-1.68-1.68h-6.8c-1.12,0-1.681,0.56-1.681,1.68v37.44
	c0,1.12,0.561,1.68,1.681,1.68h6.8C246.481,411.987,247.041,411.427,247.041,410.307 M206.482,402.227
	c-0.694-0.693-1.04-1.894-1.04-3.601v-14.08c0-1.705,0.346-2.905,1.04-3.6c0.692-0.693,1.893-1.04,3.6-1.04h4.08
	c1.706,0,2.92,0.347,3.64,1.04c0.721,0.694,1.08,1.895,1.08,3.6v14.08c0,1.707-0.359,2.907-1.08,3.601
	c-0.72,0.693-1.934,1.04-3.64,1.04h-4.08C208.375,403.267,207.175,402.92,206.482,402.227 M225.402,408.586
	c2.319-2.266,3.479-5.479,3.479-9.64v-14.72c0-4.16-1.16-7.372-3.479-9.641c-2.32-2.266-5.561-3.399-9.721-3.399h-7.119
	c-4.215,0-7.468,1.12-9.761,3.359c-2.294,2.24-3.439,5.469-3.439,9.681v14.72c0,4.214,1.146,7.44,3.439,9.68
	c2.293,2.24,5.546,3.36,9.761,3.36h7.119C219.842,411.987,223.082,410.855,225.402,408.586 M164.482,410.307v-24.24
	c0-4.052,1.84-6.08,5.52-6.08h2.88c1.707,0,2.92,0.36,3.641,1.08c0.72,0.72,1.08,1.934,1.08,3.64v25.601c0,1.12,0.56,1.68,1.68,1.68
	h6.72c1.173,0,1.76-0.56,1.76-1.68v-26.08c0-8.693-4.187-13.04-12.56-13.04h-2.56c-4.054,0-6.668,1.439-7.841,4.32h-0.319v-18.08
	c0-1.12-0.561-1.681-1.681-1.681h-6.8c-1.12,0-1.68,0.561-1.68,1.681v52.88c0,1.12,0.56,1.68,1.68,1.68h6.8
	C163.922,411.987,164.482,411.427,164.482,410.307 M115.684,422.067c2.453-2.294,4.266-5.654,5.44-10.08l9.76-39.04
	c0.267-1.172-0.267-1.76-1.6-1.76h-6.72c-1.12,0-1.787,0.56-2,1.68l-6.8,29.521h-0.32l-6.88-29.521c-0.267-1.12-0.934-1.68-2-1.68
	h-7.12c-1.12,0-1.52,0.56-1.2,1.68l9.36,35.28c0.32,1.12,0.986,1.68,2,1.68h4.24c-0.64,2.666-1.56,4.466-2.76,5.4
	c-1.2,0.932-3.48,1.399-6.84,1.399h-1.68c-1.067,0-1.6,0.586-1.6,1.761v5.359c0,1.173,0.533,1.761,1.6,1.761h5.12
	C109.897,425.507,113.23,424.36,115.684,422.067 M45.365,410.307v-24.24c0-4.052,1.84-6.08,5.52-6.08h2.48
	c1.706,0,2.92,0.36,3.64,1.08c0.72,0.72,1.08,1.934,1.08,3.64v25.601c0,1.12,0.56,1.68,1.68,1.68h6.72c1.172,0,1.76-0.56,1.76-1.68
	v-24.16c0-4.106,1.84-6.16,5.52-6.16h2c1.706,0,2.906,0.36,3.6,1.08c0.692,0.72,1.04,1.934,1.04,3.64v25.601
	c0,1.12,0.56,1.68,1.68,1.68h6.8c1.12,0,1.68-0.56,1.68-1.68v-26.08c0-4.212-1.054-7.44-3.16-9.681
	c-2.108-2.239-5.214-3.359-9.32-3.359h-2.32c-4.428,0-7.548,1.708-9.36,5.12c-2.028-3.412-5.36-5.12-10-5.12h-2.24
	c-1.974,0-3.72,0.399-5.24,1.2c-1.52,0.8-2.6,1.84-3.24,3.12h-0.32v-2.641c0-1.12-0.56-1.68-1.68-1.68h-6.8
	c-1.12,0-1.68,0.56-1.68,1.68v37.44c0,1.12,0.56,1.68,1.68,1.68h6.8C44.805,411.987,45.365,411.427,45.365,410.307"/>
<path fill="#009FE3" d="M279.336,616.355c-1.01-1.038-1.513-2.684-1.513-4.939v-17.267c0-2.254,0.503-3.901,1.513-4.939
	c1.008-1.037,2.639-1.558,4.895-1.558h5.43c4.271,0,6.407,2.167,6.407,6.497v17.267c0,4.331-2.136,6.496-6.407,6.496h-5.43
	C281.975,617.912,280.344,617.393,279.336,616.355 M301.007,621.828c2.462-2.432,3.694-5.813,3.694-10.146v-17.8
	c0-4.391-1.232-7.787-3.694-10.19c-2.463-2.403-5.86-3.604-10.19-3.604h-7.832c-4.392,0-7.787,1.201-10.19,3.604
	s-3.604,5.8-3.604,10.19v17.8c0,4.332,1.201,7.714,3.604,10.146c2.403,2.435,5.799,3.649,10.19,3.649h7.832
	C295.146,625.477,298.544,624.262,301.007,621.828 M251.302,625.477h5.696c0.534,0,0.903-0.103,1.111-0.311s0.313-0.608,0.313-1.202
	V581.6c0-1.008-0.505-1.513-1.513-1.513h-5.696c-0.95,0-1.424,0.505-1.424,1.513v42.364
	C249.789,624.974,250.292,625.477,251.302,625.477 M251.213,574.035h5.785c0.947,0,1.424-0.503,1.424-1.513v-8.099
	c0-0.948-0.477-1.424-1.424-1.424h-5.785c-0.95,0-1.424,0.476-1.424,1.424v8.099C249.789,573.532,250.263,574.035,251.213,574.035
	 M237.953,611.682H231.9c-1.01,0-1.513,0.476-1.513,1.424v10.858c0,1.01,0.503,1.513,1.513,1.513h6.053
	c0.947,0,1.424-0.503,1.424-1.513v-10.858C239.377,612.158,238.9,611.682,237.953,611.682 M222.378,613.907
	c0-2.966-0.578-5.384-1.735-7.254c-1.157-1.868-3.279-3.483-6.364-4.85l-9.789-4.984c-3.026-1.424-4.539-3.084-4.539-4.983v-0.979
	c0-1.008,0.474-1.824,1.424-2.447c0.948-0.623,2.313-0.935,4.094-0.935h12.994c0.948,0,1.424-0.503,1.424-1.513V581.6
	c0-1.008-0.476-1.513-1.424-1.513h-14.774c-8.485,0-12.727,3.826-12.727,11.48c0,2.79,0.681,5.044,2.047,6.765
	c1.364,1.722,3.56,3.293,6.586,4.717l9.701,4.628c2.788,1.246,4.183,3.057,4.183,5.429v1.068c0,2.67-1.929,4.005-5.785,4.005
	h-14.951c-1.011,0-1.514,0.476-1.514,1.424v4.361c0,1.01,0.503,1.513,1.514,1.513h16.376
	C217.957,625.477,222.378,621.621,222.378,613.907 M183.663,613.907c0-2.966-0.578-5.384-1.735-7.254
	c-1.157-1.868-3.279-3.483-6.364-4.85l-9.79-4.984c-3.025-1.424-4.539-3.084-4.539-4.983v-0.979c0-1.008,0.475-1.824,1.425-2.447
	c0.948-0.623,2.313-0.935,4.094-0.935h12.994c0.948,0,1.424-0.503,1.424-1.513V581.6c0-1.008-0.476-1.513-1.424-1.513h-14.774
	c-8.484,0-12.727,3.826-12.727,11.48c0,2.79,0.682,5.044,2.047,6.765c1.364,1.722,3.56,3.293,6.586,4.717l9.701,4.628
	c2.788,1.246,4.183,3.057,4.183,5.429v1.068c0,2.67-1.929,4.005-5.785,4.005h-14.952c-1.009,0-1.513,0.476-1.513,1.424v4.361
	c0,1.01,0.504,1.513,1.513,1.513h16.376C179.242,625.477,183.663,621.621,183.663,613.907 M127.06,617.912h-4.272
	c-4.272,0-6.408-2.193-6.408-6.586v-17.088c0-4.39,2.136-6.586,6.408-6.586h10.591c0.652,0,0.979,0.298,0.979,0.891v21.805
	C134.357,615.391,131.924,617.912,127.06,617.912 M134.002,620.76h0.355v3.204c0,1.01,0.503,1.513,1.514,1.513h5.606
	c1.068,0,1.603-0.503,1.603-1.513V581.6c0-1.008-0.534-1.513-1.603-1.513h-19.936c-4.392,0-7.788,1.201-10.191,3.604
	c-2.403,2.403-3.604,5.8-3.604,10.19v17.8c0,4.332,1.201,7.714,3.604,10.146c2.403,2.435,5.799,3.649,10.191,3.649h3.471
	C129.581,625.477,132.578,623.906,134.002,620.76 M71.257,623.964v-28.747c0-5.042,2.432-7.565,7.298-7.565h4.183
	c4.33,0,6.497,2.196,6.497,6.586v29.727c0,1.01,0.503,1.513,1.513,1.513h5.607c1.068,0,1.602-0.503,1.602-1.513v-30.082
	c0-4.45-1.157-7.861-3.471-10.235c-2.314-2.372-5.638-3.56-9.968-3.56h-3.916c-4.57,0-7.565,1.572-8.989,4.717h-0.356v-20.381
	c0-1.008-0.505-1.514-1.513-1.514h-5.607c-1.01,0-1.513,0.506-1.513,1.514v59.541c0,1.01,0.503,1.513,1.513,1.513h5.607
	C70.752,625.477,71.257,624.974,71.257,623.964"/>
<path fill="#009FE3" d="M94.438,198.327c0-3.06,2.485-5.541,5.55-5.541c3.067,0,5.55,2.481,5.55,5.541s-2.483,5.543-5.55,5.543
	C96.922,203.87,94.438,201.387,94.438,198.327 M135.146,156.765c0-3.061,2.486-5.541,5.551-5.541c3.068,0,5.552,2.48,5.552,5.541
	s-2.483,5.542-5.552,5.542C137.633,162.307,135.146,159.826,135.146,156.765 M152.727,256.513c-3.066,0-5.551-2.48-5.551-5.539
	c0-3.063,2.484-5.544,5.551-5.544s5.552,2.481,5.552,5.544C158.278,254.033,155.793,256.513,152.727,256.513 M110.167,244.506
	c0,3.061-2.487,5.541-5.551,5.541c-3.067,0-5.554-2.48-5.554-5.541c0-3.058,2.487-5.541,5.554-5.541
	C107.679,238.965,110.167,241.449,110.167,244.506 M117.568,292.536c0,3.06-2.486,5.539-5.553,5.539
	c-3.066,0-5.551-2.479-5.551-5.539c0-3.063,2.485-5.543,5.551-5.543C115.083,286.993,117.568,289.472,117.568,292.536
	 M248.952,291.609c0-3.061,2.485-5.541,5.553-5.541c3.066,0,5.55,2.48,5.55,5.541c0,3.064-2.483,5.544-5.55,5.544
	C251.438,297.153,248.952,294.673,248.952,291.609 M210.091,204.792c0-3.063,2.487-5.544,5.552-5.544
	c3.066,0,5.554,2.481,5.554,5.544c0,3.062-2.487,5.541-5.554,5.541C212.578,210.333,210.091,207.854,210.091,204.792
	 M273.011,247.279c0-3.062,2.483-5.542,5.551-5.542c3.063,0,5.551,2.48,5.551,5.542c0,3.06-2.487,5.541-5.551,5.541
	C275.494,252.82,273.011,250.338,273.011,247.279 M244.325,123.516c0-3.06,2.487-5.542,5.551-5.542c3.069,0,5.554,2.482,5.554,5.542
	c0,3.061-2.484,5.542-5.554,5.542C246.813,129.058,244.325,126.577,244.325,123.516 M274.859,159.536
	c0-3.061,2.487-5.541,5.553-5.541c3.064,0,5.551,2.48,5.551,5.541s-2.486,5.542-5.551,5.542
	C277.347,165.078,274.859,162.597,274.859,159.536 M224.896,159.536c0,3.061-2.485,5.542-5.551,5.542
	c-3.067,0-5.553-2.481-5.553-5.542s2.485-5.541,5.553-5.541C222.411,153.995,224.896,156.475,224.896,159.536 M207.316,101.349
	c0-3.06,2.485-5.541,5.553-5.541c3.064,0,5.549,2.481,5.549,5.541c0,3.061-2.484,5.542-5.549,5.542
	C209.802,106.891,207.316,104.41,207.316,101.349 M159.203,101.349c0,3.061-2.483,5.542-5.552,5.542
	c-3.065,0-5.551-2.481-5.551-5.542c0-3.06,2.485-5.541,5.551-5.541C156.72,95.808,159.203,98.289,159.203,101.349 M105.537,128.135
	c-3.064,0-5.55-2.482-5.55-5.542c0-3.061,2.486-5.542,5.55-5.542c3.068,0,5.553,2.481,5.553,5.542
	C111.09,125.653,108.605,128.135,105.537,128.135 M86.108,198.327c0,7.652,6.215,13.854,13.879,13.854
	c6.043,0,11.184-3.856,13.09-9.235h25.706l39.85,39.78v69.138l-21.279-21.242v-26.585c5.39-1.901,9.251-7.033,9.251-13.063
	c0-7.654-6.213-13.855-13.878-13.855c-7.664,0-13.879,6.201-13.879,13.855c0,6.029,3.861,11.161,9.253,13.063v17.348l-30.96-30.904
	c0.866-1.81,1.353-3.834,1.353-5.974c0-7.648-6.216-13.854-13.878-13.854c-7.667,0-13.88,6.205-13.88,13.854
	c0,7.651,6.213,13.854,13.88,13.854c2.141,0,4.17-0.483,5.981-1.352l30.961,30.905h-16.452c-1.907-5.38-7.048-9.235-13.09-9.235
	c-7.665,0-13.878,6.203-13.878,13.856c0,7.648,6.213,13.852,13.878,13.852c6.042,0,11.183-3.854,13.09-9.234h25.706l25.907,25.859
	h13.084l26.832-26.784h24.781c1.906,5.384,7.045,9.236,13.089,9.236c7.663,0,13.878-6.201,13.878-13.855
	c0-7.65-6.215-13.852-13.878-13.852c-6.044,0-11.183,3.854-13.089,9.235h-28.613l-24.915,24.871v-30.348l29.671-29.621h47.912
	c1.905,5.382,7.047,9.236,13.091,9.236c7.667,0,13.878-6.201,13.878-13.853c0-7.653-6.211-13.856-13.878-13.856
	c-6.044,0-11.186,3.857-13.091,9.237h-38.658l27.692-27.641v-23.091l19.923-19.889c1.812,0.868,3.841,1.352,5.984,1.352
	c7.665,0,13.878-6.204,13.878-13.855s-6.213-13.854-13.878-13.854c-7.667,0-13.88,6.203-13.88,13.854
	c0,2.139,0.486,4.165,1.353,5.973l-13.38,13.359v-42.287c5.391-1.901,9.251-7.032,9.251-13.065c0-7.651-6.213-13.854-13.88-13.854
	c-7.664,0-13.878,6.203-13.878,13.854c0,6.033,3.862,11.164,9.252,13.065v42.287l-13.38-13.359c0.868-1.808,1.355-3.834,1.355-5.973
	c0-7.651-6.216-13.854-13.88-13.854c-7.667,0-13.878,6.203-13.878,13.854s6.211,13.855,13.878,13.855
	c2.141,0,4.17-0.484,5.982-1.352l19.922,19.889v19.264l-24.98,24.938v-18.271c5.392-1.904,9.254-7.035,9.254-13.066
	c0-7.651-6.214-13.854-13.881-13.854c-7.662,0-13.877,6.203-13.877,13.854c0,6.031,3.86,11.162,9.253,13.066v27.506l-23.131,23.091
	V132.818l18.994-18.965c1.814,0.867,3.842,1.35,5.987,1.35c7.663,0,13.876-6.202,13.876-13.854c0-7.65-6.213-13.853-13.876-13.853
	c-7.667,0-13.88,6.203-13.88,13.853c0,2.14,0.486,4.165,1.35,5.973l-17.078,17.052l-17.082-17.052
	c0.866-1.808,1.353-3.833,1.353-5.973c0-7.65-6.213-13.853-13.88-13.853c-7.665,0-13.878,6.203-13.878,13.853
	c0,7.652,6.213,13.854,13.878,13.854c2.144,0,4.172-0.483,5.985-1.35l18.996,18.965v96.846l-33.309-33.251v-26.581
	c5.392-1.903,9.253-7.034,9.253-13.067c0-7.651-6.213-13.854-13.88-13.854c-7.663,0-13.878,6.203-13.878,13.854
	c0,6.033,3.862,11.164,9.254,13.067v17.346l-25.907-25.861v-25.659c5.389-1.902,9.251-7.033,9.251-13.065
	c0-7.652-6.213-13.855-13.88-13.855c-7.663,0-13.877,6.203-13.877,13.855c0,6.032,3.862,11.163,9.252,13.065v29.486l28.617,28.564
	h-16.452c-1.906-5.379-7.047-9.235-13.09-9.235C92.323,184.473,86.108,190.676,86.108,198.327"/>
</svg>
