<?xml version="1.0" encoding="utf-8"?>
<!-- Generator: Adobe Illustrator 16.0.3, SVG Export Plug-In . SVG Version: 6.00 Build 0)  -->
<!DOCTYPE svg PUBLIC "-//W3C//DTD SVG 1.1//EN" "http://www.w3.org/Graphics/SVG/1.1/DTD/svg11.dtd">
<svg version="1.1" id="Layer_1" xmlns="http://www.w3.org/2000/svg" xmlns:xlink="http://www.w3.org/1999/xlink" x="0px" y="0px"
	 width="1453.443px" height="2214.436px" viewBox="0 0 1453.443 2214.436" enable-background="new 0 0 1453.443 2214.436"
	 xml:space="preserve">
<path fill="#FFFFFF" d="M1012.821,1332.075c-17.123-7.894-24.613-28.146-16.732-45.241c7.881-17.092,28.142-24.543,45.265-16.648
	s24.615,28.14,16.735,45.232C1050.208,1332.512,1029.945,1339.968,1012.821,1332.075 M580.763,1114.132
	c-17.115-7.89-24.612-28.147-16.734-45.236c7.881-17.095,28.152-24.545,45.267-16.655c17.128,7.896,24.614,28.142,16.733,45.237
	C618.15,1114.568,597.893,1122.029,580.763,1114.132 M472.394,832.785c-17.112-7.889-24.608-28.146-16.73-45.236
	c7.879-17.092,28.152-24.548,45.264-16.66c17.129,7.896,24.62,28.152,16.741,45.244
	C509.789,833.223,489.522,840.682,472.394,832.785 M795.766,838.019c-17.119-7.892-24.612-28.145-16.732-45.237
	c7.878-17.09,28.145-24.545,45.266-16.653c17.129,7.897,24.615,28.147,16.737,45.236
	C833.156,838.458,812.896,845.916,795.766,838.019 M1126.461,990.472c-17.134-7.899-24.63-28.153-16.75-45.246
	c7.878-17.089,28.147-24.543,45.282-16.644c17.106,7.886,24.603,28.14,16.724,45.229
	C1163.837,990.904,1143.567,998.358,1126.461,990.472 M1276.057,1209.532c-17.117-7.892-24.612-28.147-16.733-45.237
	c7.879-17.092,28.151-24.553,45.269-16.66c17.129,7.896,24.616,28.152,16.736,45.244
	C1313.45,1209.968,1293.186,1217.427,1276.057,1209.532 M1353.842,1489.288c-17.123-7.894-24.617-28.147-16.736-45.242
	c7.879-17.093,28.146-24.541,45.269-16.648c17.117,7.892,24.615,28.14,16.735,45.232
	C1391.229,1489.724,1370.96,1497.179,1353.842,1489.288 M869.154,2160.14c-17.128-7.896-24.629-28.14-16.743-45.245
	c7.879-17.09,28.15-24.55,45.279-16.654c17.123,7.895,24.604,28.149,16.726,45.239
	C906.531,2160.586,886.277,2168.034,869.154,2160.14 M1117.619,1974.504c-17.123-7.894-24.611-28.145-16.731-45.239
	c7.879-17.089,28.142-24.546,45.265-16.652c17.118,7.892,24.613,28.146,16.735,45.234
	C1155.006,1974.942,1134.737,1982.397,1117.619,1974.504 M875.645,1575.274c-17.118-7.891-24.615-28.139-16.732-45.24
	c7.884-17.101,28.15-24.549,45.269-16.658c17.123,7.895,24.621,28.143,16.736,45.243
	C913.034,1575.719,892.768,1583.167,875.645,1575.274 M246.423,1241.425c-17.116-7.889-24.609-28.149-16.73-45.238
	c7.878-17.09,28.147-24.544,45.262-16.654c17.126,7.896,24.61,28.145,16.732,45.233
	C283.81,1241.856,263.548,1249.321,246.423,1241.425 M153.381,1511.211c-17.121-7.893-24.622-28.149-16.746-45.233
	c7.873-17.078,28.153-24.54,45.273-16.648c17.115,7.891,24.608,28.156,16.735,45.234
	C190.768,1511.648,170.495,1519.101,153.381,1511.211 M405.409,1671.184c-17.121-7.893-24.614-28.151-16.741-45.23
	c7.884-17.1,28.153-24.554,45.273-16.662c17.124,7.895,24.616,28.147,16.733,45.247
	C442.801,1671.617,422.532,1679.078,405.409,1671.184 M71.068,1798.47c-17.121-7.894-24.618-28.142-16.74-45.23
	c7.884-17.1,28.15-24.549,45.27-16.657c17.126,7.896,24.621,28.144,16.738,45.243C108.458,1798.915,88.194,1806.365,71.068,1798.47
	 M1081.663,1366.733c9.498-7.868,17.431-17.928,22.938-29.874c19.696-42.727,0.963-93.363-41.846-113.098
	c-42.808-19.734-93.468-1.09-113.165,41.637c-19.698,42.729-0.977,93.363,41.831,113.098c11.967,5.517,24.542,8.033,36.892,7.859
	l60.052,162.356l-49.593,107.574l-203.703,74.944l47.034-102.024c35.01,3.251,69.79-15.46,85.319-49.147
	c19.696-42.725,0.961-93.357-41.847-113.092c-42.797-19.729-93.467-1.094-113.163,41.631c-15.529,33.688-7.181,72.282,18.027,96.793
	l-70.811,153.601l-188.62,69.398l349.19-757.452l154.904-57c7.898,9.506,17.977,17.428,29.96,22.952
	c42.79,19.727,93.454,1.088,113.153-41.642c19.695-42.723,0.968-93.359-41.823-113.085c-42.814-19.738-93.48-1.093-113.177,41.63
	c-5.507,11.947-8.011,24.508-7.834,36.83L916.1,1011.876l-51.49-139.201c9.499-7.862,17.422-17.925,22.929-29.872
	c19.696-42.723,0.968-93.359-41.84-113.094c-42.802-19.732-93.472-1.088-113.167,41.635c-19.699,42.729-0.966,93.361,41.837,113.093
	c11.972,5.519,24.546,8.039,36.896,7.869l57.268,154.812l-249.324,540.826l-100.406-271.44l68.431-148.439
	c35.003,3.251,69.776-15.46,85.305-49.146c19.7-42.73,0.97-93.361-41.841-113.099c-42.797-19.729-93.467-1.092-113.166,41.64
	c-15.529,33.685-7.177,72.278,18.033,96.787l-44.656,96.865l-78.097-211.11l66.059-143.292
	c34.991,3.255,69.769-15.453,85.299-49.139c19.698-42.729,0.97-93.365-41.84-113.101c-42.797-19.73-93.467-1.086-113.165,41.643
	c-15.53,33.686-7.174,72.279,18.035,96.776l-75.911,164.663l86.271,233.183l-91.875-42.355
	c3.208-34.947-15.577-69.715-49.324-85.271c-42.8-19.73-93.473-1.088-113.171,41.641c-19.699,42.729-0.96,93.356,41.84,113.088
	c33.747,15.558,72.384,7.263,96.875-17.873l143.549,66.178l120.129,324.743l-177.989,386.089l-64.157-173.409l68.439-148.456
	c34.999,3.26,69.774-15.454,85.299-49.131c19.704-42.741,0.971-93.366-41.834-113.099c-42.802-19.732-93.47-1.102-113.173,41.64
	c-15.525,33.676-7.171,72.272,18.04,96.771l-44.658,96.872l-93.333-252.29c9.493-7.864,17.422-17.925,22.928-29.869
	c19.693-42.717,0.962-93.361-41.834-113.092c-42.811-19.735-93.478-1.083-113.171,41.634c-19.693,42.719-0.971,93.359,41.84,113.096
	c11.961,5.514,24.536,8.038,36.883,7.858l93.337,252.286l-91.877-42.355c3.204-34.949-15.578-69.716-49.32-85.271
	c-42.802-19.732-93.472-1.082-113.17,41.648c-19.693,42.717-0.966,93.354,41.836,113.086c33.742,15.555,72.374,7.265,96.873-17.881
	l143.549,66.177l78.101,211.111l73.072,33.686l218.789-80.495l138.389,63.798c-3.216,34.964,15.562,69.721,49.312,85.279
	c42.791,19.727,93.467,1.093,113.17-41.647c19.698-42.729,0.954-93.359-41.837-113.087c-33.75-15.559-72.37-7.271-96.87,17.884
	l-159.79-73.665l-203.165,74.74l78.126-169.468l241.959-89.023l267.557,123.345c-3.218,34.956,15.57,69.717,49.32,85.276
	c42.813,19.737,93.469,1.101,113.17-41.635c19.697-42.729,0.977-93.362-41.837-113.1c-33.75-15.56-72.391-7.258-96.878,17.885
	l-215.883-99.522l225.806-83.07l59.443-128.943l162.458-59.776c7.887,9.503,17.969,17.431,29.94,22.95
	c42.802,19.732,93.469,1.087,113.167-41.643c19.697-42.726,0.969-93.36-41.833-113.092c-42.81-19.735-93.476-1.092-113.172,41.634
	c-5.507,11.946-8.011,24.508-7.831,36.838l-109.106,40.155l108.863-236.143c34.995,3.254,69.774-15.455,85.303-49.14
	c19.699-42.729,0.964-93.366-41.844-113.101c-42.802-19.732-93.473-1.092-113.172,41.637c-15.529,33.686-7.168,72.282,18.033,96.779
	l-108.863,236.143L1081.663,1366.733z"/>
<path fill="#FFFFFF" d="M1382.63,73.742c-1.235-0.57-1.775-2.031-1.208-3.264c0.569-1.233,2.031-1.771,3.267-1.201
	c1.234,0.569,1.775,2.03,1.206,3.263C1385.327,73.773,1383.865,74.311,1382.63,73.742 M1351.459,58.019
	c-1.234-0.57-1.775-2.031-1.207-3.264c0.569-1.233,2.031-1.771,3.266-1.201c1.236,0.569,1.776,2.03,1.207,3.263
	C1354.157,58.05,1352.695,58.588,1351.459,58.019 M1343.641,37.721c-1.234-0.569-1.774-2.03-1.207-3.263
	c0.569-1.233,2.031-1.771,3.267-1.202c1.235,0.57,1.776,2.031,1.207,3.264C1346.339,37.753,1344.877,38.291,1343.641,37.721
	 M1366.97,38.099c-1.234-0.569-1.775-2.031-1.207-3.264c0.568-1.233,2.031-1.771,3.266-1.201c1.237,0.57,1.776,2.031,1.208,3.263
	C1369.668,38.13,1368.206,38.669,1366.97,38.099 M1390.828,49.097c-1.237-0.57-1.777-2.031-1.209-3.264
	c0.569-1.233,2.031-1.77,3.267-1.201c1.234,0.569,1.775,2.03,1.206,3.263C1393.524,49.128,1392.063,49.666,1390.828,49.097
	 M1401.62,64.901c-1.235-0.569-1.776-2.031-1.208-3.264c0.569-1.233,2.032-1.771,3.266-1.202c1.236,0.57,1.776,2.032,1.208,3.265
	C1404.318,64.933,1402.856,65.471,1401.62,64.901 M1407.232,85.084c-1.236-0.57-1.777-2.031-1.208-3.265
	c0.567-1.232,2.03-1.77,3.266-1.201c1.235,0.57,1.776,2.03,1.207,3.264C1409.929,85.115,1408.466,85.653,1407.232,85.084
	 M1372.266,133.481c-1.236-0.57-1.777-2.03-1.209-3.265c0.568-1.233,2.03-1.771,3.267-1.201c1.235,0.57,1.774,2.03,1.207,3.263
	C1374.961,133.513,1373.5,134.05,1372.266,133.481 M1390.19,120.088c-1.235-0.569-1.776-2.03-1.207-3.263
	c0.567-1.233,2.029-1.771,3.265-1.201c1.235,0.569,1.776,2.03,1.208,3.263C1392.887,120.12,1391.425,120.657,1390.19,120.088
	 M1372.733,91.286c-1.235-0.569-1.776-2.029-1.207-3.263c0.567-1.234,2.03-1.771,3.265-1.202c1.236,0.569,1.777,2.031,1.208,3.265
	C1375.431,91.319,1373.968,91.856,1372.733,91.286 M1327.339,67.202c-1.234-0.569-1.774-2.031-1.207-3.264
	c0.569-1.233,2.031-1.771,3.267-1.201c1.234,0.569,1.774,2.03,1.206,3.263C1330.036,67.232,1328.575,67.772,1327.339,67.202
	 M1320.627,86.665c-1.236-0.569-1.777-2.031-1.208-3.264c0.568-1.231,2.031-1.77,3.267-1.2c1.234,0.569,1.774,2.031,1.207,3.263
	C1323.324,86.697,1321.861,87.234,1320.627,86.665 M1338.809,98.206c-1.234-0.57-1.775-2.031-1.207-3.263s2.03-1.771,3.266-1.202
	c1.234,0.57,1.775,2.031,1.207,3.265C1341.506,98.237,1340.044,98.775,1338.809,98.206 M1314.688,107.388
	c-1.235-0.569-1.776-2.029-1.207-3.262c0.567-1.234,2.03-1.772,3.266-1.202c1.235,0.569,1.776,2.031,1.207,3.264
	C1317.386,107.421,1315.924,107.958,1314.688,107.388 M1387.596,76.242c0.686-0.568,1.258-1.293,1.655-2.155
	c1.421-3.083,0.069-6.736-3.019-8.159c-3.09-1.424-6.743-0.079-8.164,3.003c-1.421,3.083-0.071,6.736,3.018,8.16
	c0.862,0.397,1.771,0.579,2.661,0.567l4.332,11.712l-3.578,7.761l-14.695,5.407l3.394-7.361c2.525,0.235,5.035-1.115,6.155-3.545
	c1.421-3.082,0.069-6.735-3.02-8.159c-3.087-1.423-6.743-0.079-8.164,3.004c-1.12,2.43-0.518,5.214,1.301,6.982l-5.108,11.081
	l-13.607,5.007l25.191-54.646l11.175-4.112c0.57,0.686,1.297,1.257,2.162,1.656c3.087,1.423,6.742,0.078,8.163-3.004
	s0.07-6.735-3.018-8.159c-3.089-1.424-6.744-0.078-8.164,3.004c-0.397,0.861-0.578,1.768-0.565,2.657l-10.048,3.698l-3.715-10.043
	c0.685-0.567,1.257-1.293,1.653-2.155c1.421-3.082,0.07-6.735-3.019-8.159c-3.088-1.424-6.743-0.078-8.164,3.004
	s-0.07,6.735,3.018,8.159c0.864,0.398,1.771,0.579,2.662,0.567l4.132,11.169L1354.233,92.2l-7.244-19.582l4.937-10.709
	c2.525,0.235,5.034-1.115,6.154-3.545c1.422-3.083,0.07-6.735-3.018-8.159c-3.088-1.424-6.743-0.079-8.165,3.004
	c-1.12,2.43-0.518,5.214,1.302,6.982l-3.223,6.988l-5.634-15.23l4.767-10.337c2.523,0.234,5.033-1.115,6.152-3.546
	c1.422-3.082,0.07-6.735-3.018-8.159c-3.088-1.423-6.743-0.078-8.164,3.004c-1.121,2.431-0.518,5.215,1.301,6.982l-5.477,11.879
	l6.224,16.823l-6.628-3.056c0.231-2.521-1.124-5.029-3.558-6.151c-3.088-1.424-6.744-0.079-8.165,3.003
	c-1.421,3.083-0.069,6.736,3.019,8.159c2.435,1.122,5.222,0.523,6.988-1.289l10.355,4.774l8.667,23.428l-12.841,27.853l-4.628-12.51
	l4.938-10.71c2.523,0.235,5.032-1.115,6.152-3.544c1.421-3.084,0.07-6.737-3.018-8.16s-6.743-0.079-8.165,3.005
	c-1.12,2.429-0.517,5.213,1.302,6.98l-3.222,6.988l-6.733-18.2c0.686-0.568,1.257-1.294,1.654-2.156
	c1.421-3.081,0.069-6.735-3.018-8.158c-3.09-1.424-6.744-0.078-8.165,3.003c-1.422,3.082-0.07,6.735,3.019,8.159
	c0.863,0.398,1.771,0.58,2.661,0.567l6.732,18.201l-6.627-3.056c0.23-2.521-1.125-5.029-3.559-6.151
	c-3.088-1.424-6.744-0.079-8.165,3.004c-1.42,3.082-0.069,6.735,3.019,8.158c2.435,1.123,5.222,0.525,6.988-1.289l10.356,4.774
	l5.635,15.23l5.271,2.43l15.784-5.807l9.984,4.603c-0.232,2.522,1.123,5.029,3.558,6.152c3.088,1.423,6.743,0.079,8.164-3.005
	c1.421-3.082,0.069-6.735-3.018-8.158c-2.436-1.122-5.221-0.524-6.988,1.29l-11.527-5.314l-14.657,5.392l5.636-12.226l17.456-6.423
	l19.302,8.898c-0.231,2.522,1.123,5.031,3.559,6.153c3.089,1.424,6.742,0.079,8.164-3.004s0.07-6.735-3.018-8.159
	c-2.435-1.123-5.223-0.523-6.99,1.29l-15.573-7.18l16.29-5.992l4.289-9.303l11.719-4.313c0.569,0.687,1.297,1.258,2.161,1.657
	c3.088,1.423,6.742,0.078,8.163-3.005c1.422-3.082,0.07-6.735-3.018-8.159c-3.089-1.424-6.744-0.079-8.165,3.004
	c-0.396,0.862-0.577,1.768-0.563,2.658l-7.871,2.896l7.853-17.035c2.525,0.234,5.033-1.116,6.154-3.546
	c1.421-3.082,0.069-6.735-3.02-8.159c-3.088-1.424-6.742-0.079-8.163,3.004c-1.121,2.43-0.519,5.214,1.3,6.981l-7.854,17.035
	L1387.596,76.242z M1282.688,101.314l22.854-49.575l-12.952-5.972c-1.918-0.884-2.757-3.156-1.873-5.073
	c0.422-0.915,1.188-1.627,2.128-1.979l102.28-38.408c2.471-0.928,5.228,0.323,6.155,2.794c0.005,0.014,0.011,0.028,0.015,0.041
	l19.519,53.462l3.125-6.781c0.736-1.598,2.631-2.296,4.229-1.559l12.104,5.58c1.598,0.737,2.295,2.63,1.559,4.228l-11.48,24.901
	l8.205,22.927c0.711,1.988-0.323,4.177-2.312,4.888c-0.943,0.338-1.981,0.292-2.889-0.127l-13.005-5.995l-22.854,49.575
	c-0.737,1.599-2.629,2.297-4.228,1.561l-109.021-50.259C1282.649,104.805,1281.95,102.912,1282.688,101.314"/>
<path fill="#FFFFFF" d="M1323.383,190.339c2.465,1.62,4.445,3.273,5.943,4.962c1.499,1.691,2.462,3.435,2.889,5.233
	c0.428,1.8,0.209,3.603-0.65,5.407c-0.896,1.878-2.168,3.199-3.818,3.962c-1.648,0.765-3.61,1.115-5.885,1.049
	c-2.273-0.064-4.813-0.545-7.622-1.442c-2.808-0.895-5.799-2.101-8.977-3.617c-3.178-1.515-5.997-3.081-8.461-4.7
	c-2.464-1.618-4.453-3.298-5.972-5.042c-1.517-1.742-2.498-3.495-2.941-5.259c-0.444-1.762-0.221-3.582,0.676-5.461
	c0.861-1.804,2.126-3.107,3.792-3.908c1.668-0.8,3.646-1.14,5.938-1.023c2.293,0.119,4.844,0.627,7.65,1.522
	c2.809,0.897,5.801,2.102,8.979,3.617C1318.102,187.155,1320.92,188.722,1323.383,190.339 M1306.873,171.296
	c-4.062-0.961-7.796-1.259-11.208-0.892c-3.409,0.368-6.43,1.453-9.063,3.255c-2.632,1.803-4.758,4.401-6.376,7.794
	c-1.62,3.395-2.31,6.7-2.071,9.915c0.24,3.218,1.289,6.265,3.15,9.146c1.86,2.882,4.441,5.598,7.746,8.148
	c3.303,2.552,7.158,4.877,11.562,6.978c4.478,2.136,8.729,3.677,12.754,4.62c4.025,0.946,7.726,1.225,11.099,0.841
	c3.375-0.385,6.387-1.495,9.036-3.335c2.649-1.838,4.783-4.454,6.402-7.848s2.3-6.681,2.045-9.861
	c-0.256-3.18-1.297-6.202-3.121-9.067c-1.825-2.864-4.371-5.562-7.638-8.097c-3.268-2.532-7.139-4.867-11.617-7.003
	C1315.169,173.792,1310.935,172.259,1306.873,171.296 M1253.687,210.474c-0.551-1.725-1.765-3.035-3.644-3.931
	c-1.877-0.896-3.658-1.014-5.347-0.357c-1.687,0.658-2.928,1.817-3.72,3.477c-0.792,1.662-0.912,3.354-0.361,5.079
	c0.552,1.726,1.766,3.036,3.643,3.931c1.879,0.896,3.659,1.015,5.347,0.357c1.688-0.657,2.927-1.815,3.72-3.477
	C1254.116,213.893,1254.238,212.199,1253.687,210.474 M1265.618,215.7l-4.442,9.314l56.862,27.123l4.443-9.315L1265.618,215.7z
	 M1300.732,263.891c-1.868,0.571-3.268,1.832-4.197,3.781c-0.93,1.95-1.021,3.813-0.271,5.587c0.749,1.776,1.989,3.077,3.723,3.903
	c1.662,0.793,3.416,0.921,5.267,0.385c1.851-0.534,3.241-1.778,4.171-3.727c0.931-1.95,1.029-3.83,0.299-5.642
	c-0.732-1.811-1.928-3.112-3.59-3.905C1304.4,263.447,1302.601,263.319,1300.732,263.891 M1219.327,269.268l-2.817,10.089
	l53.938,25.728c6.932,3.306,12.525,4.358,16.779,3.15c4.254-1.206,7.654-4.48,10.203-9.824c1.584-3.321,2.215-6.875,1.895-10.663
	l-8.352-1.724c0.127,1.037,0.104,2.2-0.069,3.491c-0.172,1.293-0.552,2.551-1.137,3.778c-1.138,2.383-2.816,3.908-5.041,4.575
	c-2.225,0.668-5.286,0.072-9.186-1.788l-31.302-14.93l6.82-14.297l-8.016-3.823l-6.819,14.297L1219.327,269.268z M1264.054,365.319
	l4.442-9.315l-48.74-23.247c0.52-2.944,1.276-5.462,2.275-7.557c1.895-3.97,4.485-6.058,7.774-6.264
	c3.288-0.203,7.748,1.037,13.38,3.724l33.577,16.015l4.441-9.315l-34.334-16.377c-4.549-2.169-8.571-3.534-12.071-4.096
	c-3.5-0.56-6.539-0.46-9.119,0.304c-2.579,0.764-4.802,2.12-6.661,4.069c-1.861,1.95-3.462,4.331-4.806,7.147
	c-1.239,2.6-2.33,5.582-3.269,8.944c-0.94,3.364-1.649,6.572-2.129,9.621L1264.054,365.319z M1223.135,396.056
	c-1.022-1.106-1.698-2.293-2.025-3.558c-0.328-1.264-0.362-2.587-0.102-3.97c0.261-1.382,0.719-2.76,1.373-4.132
	c0.998-2.094,2.305-4.086,3.914-5.977l18.088,8.627c-0.597,2.553-1.359,4.803-2.289,6.752c-1.517,3.178-3.48,5.254-5.896,6.229
	c-2.414,0.976-5.283,0.671-8.605-0.914C1225.644,398.183,1224.157,397.166,1223.135,396.056 M1195.211,386.726
	c0.071-2.004,0.295-3.825,0.677-5.461c0.381-1.634,0.968-3.282,1.76-4.944c1.447-3.032,3.388-4.965,5.824-5.797
	s5.748-0.25,9.935,1.747l5.199,2.48c-1.955,2.613-3.501,5.11-4.639,7.493c-1.205,2.529-1.944,5.055-2.22,7.583
	c-0.275,2.528-0.051,4.94,0.671,7.232c0.724,2.296,1.971,4.42,3.741,6.372c1.773,1.955,4.14,3.636,7.099,5.048
	c3.179,1.516,6.108,2.294,8.793,2.332c2.685,0.041,5.153-0.444,7.406-1.453c2.254-1.006,4.248-2.494,5.982-4.459
	c1.734-1.964,3.222-4.246,4.462-6.846c1.24-2.599,2.289-5.356,3.147-8.27c0.858-2.915,1.547-5.844,2.064-8.788l-37.691-17.979
	c-6.644-3.168-12.294-3.913-16.949-2.233c-4.657,1.68-8.191,5.046-10.602,10.1c-1.171,2.455-2.021,4.842-2.551,7.159
	c-0.529,2.32-0.844,4.606-0.946,6.861L1195.211,386.726z M1155.424,403.247l-2.818,10.089l53.938,25.728
	c6.933,3.306,12.525,4.358,16.778,3.15c4.254-1.206,7.655-4.48,10.204-9.824c1.583-3.321,2.215-6.875,1.895-10.663l-8.352-1.724
	c0.127,1.037,0.104,2.2-0.069,3.491c-0.172,1.293-0.552,2.551-1.138,3.778c-1.136,2.383-2.814,3.908-5.04,4.576
	c-2.224,0.667-5.286,0.071-9.185-1.789l-31.303-14.93l6.819-14.297l-8.015-3.823l-6.819,14.297L1155.424,403.247z M1200.596,478.57
	c-1.6,1.497-2.946,2.649-4.041,3.456l6.76,5.618c1.2-0.845,2.749-2.233,4.646-4.166c1.896-1.931,3.533-4.341,4.911-7.23
	c2.687-5.632,3.21-10.634,1.573-15.005c-1.638-4.37-4.948-7.744-9.931-10.121c-2.383-1.136-4.577-1.784-6.584-1.944
	c-2.006-0.159-3.893-0.015-5.655,0.428c-1.762,0.445-3.433,1.111-5.008,1.998c-1.575,0.89-3.087,1.83-4.537,2.822
	c-1.201,0.846-2.412,1.621-3.633,2.322c-1.222,0.703-2.446,1.272-3.673,1.705c-1.226,0.436-2.483,0.656-3.771,0.661
	c-1.287,0.007-2.653-0.335-4.098-1.024c-2.527-1.206-4.131-2.812-4.813-4.822c-0.682-2.008-0.472-4.168,0.631-6.479
	c0.724-1.516,1.576-2.838,2.557-3.966c0.981-1.127,2.144-2.168,3.483-3.124l-6.49-5.622c-1.236,0.918-2.572,2.186-4.01,3.805
	c-1.438,1.62-2.654,3.476-3.654,5.569c-2.375,4.983-2.816,9.625-1.323,13.927c1.494,4.302,4.587,7.572,9.28,9.811
	c2.166,1.033,4.19,1.666,6.073,1.9c1.884,0.233,3.672,0.201,5.365-0.1c1.695-0.299,3.304-0.795,4.83-1.486
	c1.526-0.689,2.944-1.475,4.251-2.36c1.38-0.847,2.705-1.722,3.976-2.623c1.273-0.899,2.564-1.613,3.88-2.139
	c1.313-0.524,2.668-0.808,4.063-0.854c1.396-0.042,2.888,0.314,4.475,1.071c2.529,1.206,4.232,2.883,5.112,5.031
	c0.882,2.149,0.667,4.595-0.642,7.339C1203.53,475.207,1202.196,477.073,1200.596,478.57 M1130.579,468.571
	c-0.55-1.725-1.764-3.035-3.642-3.931c-1.877-0.895-3.659-1.013-5.348-0.355c-1.687,0.657-2.928,1.816-3.72,3.477
	c-0.793,1.662-0.912,3.354-0.362,5.079c0.553,1.726,1.767,3.036,3.644,3.931c1.878,0.896,3.66,1.015,5.347,0.357
	c1.689-0.657,2.928-1.816,3.719-3.478C1131.01,471.99,1131.131,470.297,1130.579,468.571 M1142.513,473.798l-4.443,9.314
	l56.863,27.123l4.442-9.315L1142.513,473.798z M1170.479,541.712c-1.6,1.497-2.946,2.649-4.042,3.457l6.76,5.617
	c1.201-0.844,2.75-2.232,4.646-4.165c1.896-1.932,3.534-4.342,4.911-7.231c2.688-5.632,3.212-10.633,1.573-15.004
	c-1.638-4.371-4.948-7.745-9.93-10.121c-2.383-1.137-4.577-1.784-6.584-1.944c-2.006-0.159-3.893-0.016-5.655,0.427
	c-1.762,0.445-3.432,1.111-5.008,1.999c-1.576,0.889-3.088,1.83-4.537,2.821c-1.201,0.846-2.412,1.621-3.634,2.322
	c-1.221,0.704-2.445,1.273-3.672,1.706c-1.226,0.435-2.483,0.655-3.771,0.66c-1.288,0.007-2.652-0.335-4.099-1.024
	c-2.526-1.205-4.13-2.812-4.813-4.822c-0.681-2.007-0.471-4.168,0.631-6.479c0.724-1.517,1.576-2.838,2.558-3.966
	c0.981-1.127,2.143-2.169,3.483-3.124l-6.491-5.623c-1.236,0.919-2.572,2.186-4.009,3.805c-1.438,1.62-2.655,3.476-3.653,5.57
	c-2.377,4.982-2.817,9.625-1.325,13.926c1.494,4.302,4.588,7.573,9.281,9.811c2.166,1.033,4.19,1.667,6.072,1.9
	c1.884,0.233,3.674,0.202,5.366-0.1c1.695-0.299,3.304-0.794,4.83-1.485c1.525-0.689,2.943-1.476,4.25-2.36
	c1.381-0.848,2.706-1.722,3.978-2.624c1.271-0.899,2.563-1.612,3.878-2.138c1.313-0.525,2.669-0.809,4.063-0.854
	c1.396-0.043,2.887,0.313,4.476,1.071c2.527,1.205,4.231,2.882,5.111,5.03c0.882,2.149,0.667,4.596-0.642,7.339
	C1173.412,538.348,1172.079,540.215,1170.479,541.712 M1152.862,578.645c-1.599,1.498-2.946,2.65-4.042,3.457l6.76,5.618
	c1.201-0.845,2.75-2.233,4.646-4.166c1.896-1.931,3.534-4.341,4.911-7.23c2.687-5.632,3.211-10.634,1.572-15.005
	c-1.637-4.371-4.947-7.744-9.93-10.121c-2.383-1.136-4.577-1.784-6.584-1.944c-2.006-0.159-3.892-0.015-5.655,0.428
	c-1.762,0.445-3.432,1.111-5.008,1.998c-1.576,0.89-3.088,1.83-4.537,2.822c-1.201,0.846-2.412,1.621-3.634,2.322
	c-1.22,0.703-2.445,1.272-3.672,1.705c-1.226,0.436-2.483,0.656-3.771,0.661c-1.288,0.007-2.652-0.335-4.099-1.025
	c-2.526-1.205-4.13-2.811-4.813-4.821c-0.682-2.008-0.472-4.168,0.631-6.48c0.724-1.516,1.576-2.838,2.557-3.966
	c0.982-1.127,2.143-2.168,3.484-3.124l-6.492-5.622c-1.236,0.918-2.571,2.186-4.008,3.804c-1.438,1.621-2.656,3.477-3.654,5.57
	c-2.376,4.982-2.817,9.625-1.325,13.927c1.494,4.302,4.588,7.572,9.281,9.811c2.166,1.033,4.19,1.666,6.074,1.899
	c1.883,0.234,3.672,0.202,5.364-0.099c1.695-0.299,3.305-0.795,4.83-1.486c1.525-0.689,2.943-1.475,4.25-2.36
	c1.381-0.847,2.706-1.722,3.978-2.623c1.271-0.899,2.563-1.613,3.879-2.139c1.313-0.524,2.668-0.809,4.063-0.854
	c1.396-0.042,2.889,0.314,4.476,1.071c2.527,1.206,4.231,2.883,5.111,5.031c0.883,2.149,0.668,4.595-0.642,7.339
	C1155.797,575.28,1154.463,577.148,1152.862,578.645 M1118.781,614.837c-1.021-1.107-1.698-2.294-2.025-3.559
	c-0.327-1.264-0.361-2.586-0.101-3.97c0.26-1.382,0.718-2.759,1.373-4.132c0.998-2.093,2.304-4.086,3.914-5.977l18.088,8.628
	c-0.597,2.553-1.36,4.802-2.29,6.752c-1.516,3.178-3.479,5.253-5.896,6.228c-2.414,0.976-5.283,0.671-8.605-0.913
	C1121.29,616.964,1119.805,615.946,1118.781,614.837 M1090.858,605.506c0.071-2.004,0.295-3.824,0.676-5.46
	c0.381-1.634,0.968-3.282,1.76-4.944c1.447-3.033,3.39-4.965,5.824-5.798c2.437-0.832,5.748-0.249,9.936,1.748l5.198,2.479
	c-1.955,2.614-3.501,5.111-4.638,7.494c-1.206,2.528-1.945,5.055-2.22,7.582c-0.275,2.528-0.051,4.941,0.671,7.234
	c0.723,2.295,1.97,4.419,3.741,6.371c1.772,1.955,4.139,3.636,7.099,5.048c3.178,1.516,6.108,2.294,8.792,2.332
	c2.686,0.041,5.154-0.443,7.407-1.452c2.254-1.007,4.248-2.495,5.981-4.459c1.735-1.965,3.224-4.247,4.463-6.846
	c1.239-2.599,2.288-5.356,3.147-8.271c0.858-2.914,1.546-5.843,2.064-8.787l-37.692-17.978c-6.643-3.169-12.293-3.913-16.949-2.235
	c-4.657,1.68-8.19,5.047-10.601,10.1c-1.172,2.456-2.021,4.843-2.552,7.16c-0.528,2.319-0.844,4.605-0.945,6.861L1090.858,605.506z
	 M1094.401,648.808l9.557-20.037l-8.772-4.185l-9.558,20.038L1094.401,648.808z M1067.497,659.64
	c3.587,0.381,8.016,1.828,13.285,4.342l-8.214,17.221c-5.063-2.767-8.808-5.597-11.242-8.486c-2.432-2.888-2.91-5.885-1.428-8.991
	C1061.378,660.623,1063.912,659.259,1067.497,659.64 M1092.961,657.959c-0.832-0.485-1.662-0.926-2.492-1.323
	c-0.83-0.395-1.643-0.783-2.438-1.162c-8.736-4.167-16.162-6.068-22.273-5.705c-6.111,0.365-10.701,3.76-13.767,10.186
	c-2.721,5.705-2.488,11.444,0.696,17.217s10.013,11.157,20.481,16.151c4.332,2.066,8.477,3.6,12.431,4.599
	c3.956,1.002,7.637,1.273,11.046,0.815c3.408-0.456,6.48-1.695,9.216-3.714s5.051-5.014,6.945-8.985
	c1.446-3.033,2.315-5.83,2.607-8.396c0.292-2.563,0.338-4.47,0.137-5.719l-8.301-1.832c0.055,1.002-0.033,2.533-0.264,4.594
	c-0.23,2.063-0.844,4.14-1.843,6.234c-1.206,2.528-2.664,4.379-4.379,5.556c-1.712,1.177-3.65,1.849-5.813,2.014
	c-2.16,0.166-4.482-0.078-6.964-0.73c-2.481-0.651-5.11-1.594-7.889-2.832L1092.961,657.959z M1066.66,779.163l4.443-9.314
	l-48.74-23.248c0.416-2.727,1.069-5.028,1.965-6.907c1.723-3.61,4.193-5.445,7.412-5.505s7.646,1.253,13.277,3.94l33.576,16.015
	l4.442-9.315l-34.334-16.377c-2.599-1.239-5.014-2.213-7.247-2.924c-2.23-0.709-4.314-1.171-6.252-1.387
	c-0.281-1.64-0.338-3.286-0.172-4.935c0.167-1.648,0.576-3.159,1.231-4.531c1.721-3.61,4.191-5.446,7.411-5.506
	s7.646,1.254,13.277,3.94l33.576,16.015l4.443-9.315l-34.334-16.376c-4.55-2.17-8.564-3.553-12.047-4.151
	c-3.481-0.597-6.487-0.568-9.017,0.087c-2.527,0.656-4.68,1.869-6.454,3.636c-1.773,1.769-3.281,3.952-4.521,6.552
	c-1.24,2.599-1.979,5.172-2.218,7.717c-0.238,2.545-0.192,5.049,0.14,7.511c-2.275,0.866-4.228,2.172-5.858,3.92
	c-1.632,1.748-3.051,3.886-4.256,6.413c-1.171,2.456-2.191,5.293-3.062,8.511c-0.871,3.22-1.512,6.282-1.924,9.187L1066.66,779.163z
	 M1035.584,793.722c2.465,1.62,4.445,3.273,5.943,4.962c1.499,1.691,2.463,3.436,2.889,5.233c0.428,1.8,0.209,3.603-0.65,5.407
	c-0.896,1.878-2.168,3.199-3.818,3.962c-1.648,0.765-3.611,1.116-5.885,1.049c-2.273-0.064-4.813-0.545-7.622-1.442
	c-2.807-0.895-5.799-2.101-8.978-3.617c-3.177-1.515-5.996-3.081-8.461-4.7c-2.463-1.618-4.452-3.298-5.971-5.042
	c-1.517-1.742-2.498-3.495-2.941-5.259c-0.444-1.762-0.221-3.582,0.676-5.461c0.86-1.804,2.127-3.107,3.792-3.908
	c1.668-0.8,3.647-1.14,5.938-1.023c2.293,0.119,4.844,0.627,7.65,1.522c2.809,0.897,5.801,2.102,8.978,3.617
	C1030.303,790.539,1033.121,792.105,1035.584,793.722 M1019.074,774.679c-4.062-0.961-7.796-1.259-11.208-0.892
	c-3.41,0.368-6.43,1.453-9.063,3.255c-2.633,1.803-4.759,4.401-6.376,7.794c-1.62,3.395-2.31,6.7-2.07,9.915
	c0.239,3.218,1.288,6.265,3.149,9.147c1.86,2.882,4.441,5.598,7.745,8.148c3.304,2.552,7.159,4.877,11.563,6.978
	c4.477,2.136,8.728,3.677,12.753,4.62c4.024,0.946,7.725,1.225,11.099,0.841c3.375-0.385,6.388-1.495,9.036-3.335
	c2.649-1.838,4.783-4.454,6.403-7.848c1.618-3.394,2.299-6.681,2.044-9.861c-0.256-3.18-1.296-6.202-3.121-9.067
	c-1.825-2.864-4.371-5.562-7.638-8.097c-3.268-2.532-7.14-4.867-11.617-7.003C1027.37,777.174,1023.136,775.642,1019.074,774.679
	 M1022.283,872.2l-48.74-23.248c0.52-2.943,1.276-5.461,2.275-7.556c1.894-3.971,4.485-6.058,7.774-6.264
	c3.288-0.203,7.747,1.037,13.381,3.723l33.575,16.015l4.443-9.314l-34.335-16.377c-4.549-2.17-8.572-3.534-12.072-4.096
	c-3.499-0.56-6.521-0.496-9.067,0.195c-2.545,0.693-4.697,1.904-6.453,3.636c-1.758,1.733-3.204,3.79-4.341,6.173
	c-0.792,1.661-1.431,3.372-1.917,5.134c-0.486,1.763-0.84,3.434-1.062,5.012l-27.511-13.122l-2.818,10.089l82.424,39.315
	L1022.283,872.2z"/>
</svg>
