<?xml version="1.0" encoding="utf-8"?>
<!-- Generator: Adobe Illustrator 16.0.3, SVG Export Plug-In . SVG Version: 6.00 Build 0)  -->
<!DOCTYPE svg PUBLIC "-//W3C//DTD SVG 1.1//EN" "http://www.w3.org/Graphics/SVG/1.1/DTD/svg11.dtd">
<svg version="1.1" id="Layer_1" xmlns="http://www.w3.org/2000/svg" xmlns:xlink="http://www.w3.org/1999/xlink" x="0px" y="0px"
	 width="1896.496px" height="1672.121px" viewBox="0 0 1896.496 1672.121" enable-background="new 0 0 1896.496 1672.121"
	 xml:space="preserve">
<path fill="#FFFFFF" d="M729.612,266.318l-6.704-6.703c-1.682-1.682-3.352-1.693-5.011-0.035l-2.108,2.108
	c-0.875,0.876-1.306,1.711-1.295,2.505c0.011,0.796,0.455,1.63,1.331,2.505l6.703,6.703c0.876,0.876,1.71,1.32,2.505,1.331
	c0.794,0.012,1.629-0.421,2.505-1.296l2.108-2.107C731.305,269.671,731.293,268,729.612,266.318 M769.521,218.116
	c0.229-0.229,0.23-0.461,0-0.69l-2.211-2.212c-0.875-0.875-1.71-1.318-2.505-1.33c-0.795-0.011-1.631,0.42-2.506,1.296l-1.901,1.9
	c-0.875,0.876-1.307,1.711-1.295,2.505c0.012,0.795,0.455,1.631,1.33,2.505l2.212,2.212c0.23,0.23,0.46,0.23,0.691,0
	L769.521,218.116z M801.621,199.354c1.889-1.889,1.854-3.813-0.104-5.77l-8.466-8.466c-0.229-0.23-0.472-0.219-0.725,0.034
	l-4.112,4.112c-1.659,1.658-1.635,3.34,0.069,5.045l6.634,6.634c1.705,1.705,3.386,1.728,5.044,0.069L801.621,199.354z
	 M884.583,116.391c1.889-1.888,1.854-3.812-0.104-5.77l-8.466-8.466c-0.229-0.229-0.472-0.219-0.725,0.035l-4.112,4.111
	c-1.658,1.659-1.635,3.34,0.07,5.045l6.634,6.634c1.706,1.705,3.386,1.728,5.045,0.069L884.583,116.391z M947.643,53.332
	c1.659-1.659,1.648-3.328-0.034-5.01l-6.703-6.703c-1.681-1.682-3.351-1.693-5.011-0.035l-2.107,2.107
	c-0.875,0.876-1.307,1.711-1.295,2.506c0.01,0.794,0.454,1.63,1.33,2.504l6.703,6.704c0.875,0.876,1.711,1.32,2.505,1.331
	c0.794,0.012,1.63-0.42,2.505-1.296L947.643,53.332z M1412.164,1280.325c0,15.829,12.855,28.663,28.715,28.663
	c15.85,0,28.715-12.834,28.715-28.663s-12.865-28.662-28.715-28.662C1425.02,1251.663,1412.164,1264.496,1412.164,1280.325
	 M1287.725,1509.631c0,15.85,12.854,28.672,28.725,28.672c15.859,0,28.703-12.822,28.703-28.672
	c0-15.83-12.844-28.663-28.703-28.663C1300.578,1480.968,1287.725,1493.801,1287.725,1509.631 M608.131,1514.423
	c0-15.841-12.859-28.672-28.724-28.672c-15.856,0-28.715,12.831-28.715,28.672c0,15.83,12.859,28.652,28.715,28.652
	C595.272,1543.075,608.131,1530.253,608.131,1514.423 M569.843,1265.989c0-15.818-12.864-28.662-28.714-28.662
	c-15.861,0-28.725,12.844-28.725,28.662c0,15.829,12.864,28.662,28.725,28.662C556.979,1294.651,569.843,1281.818,569.843,1265.989
	 M818.704,1299.443c0-15.839-12.853-28.672-28.714-28.672c-15.86,0-28.714,12.833-28.714,28.672
	c0,15.819,12.854,28.652,28.714,28.652C805.852,1328.096,818.704,1315.263,818.704,1299.443 M545.9,1027.12
	c0-15.829-12.843-28.661-28.708-28.661c-15.856,0-28.71,12.832-28.71,28.661s12.854,28.672,28.71,28.672
	C533.057,1055.792,545.9,1042.949,545.9,1027.12 M574.625,635.38c0-15.832-12.854-28.667-28.724-28.667
	c-15.85,0-28.708,12.835-28.708,28.667c0,15.829,12.858,28.665,28.708,28.665C561.771,664.045,574.625,651.209,574.625,635.38
	 M756.483,812.141c0-15.834-12.848-28.664-28.714-28.664c-15.85,0-28.714,12.83-28.714,28.664c0,15.83,12.864,28.664,28.714,28.664
	C743.635,840.805,756.483,827.971,756.483,812.141 M823.492,525.497c0-15.829-12.848-28.661-28.719-28.661
	c-15.855,0-28.713,12.832-28.713,28.661c0,15.832,12.858,28.664,28.713,28.664C810.644,554.161,823.492,541.329,823.492,525.497
	 M1072.359,525.497c0,15.832,12.854,28.664,28.725,28.664c15.85,0,28.703-12.832,28.703-28.664
	c0-15.829-12.854-28.661-28.703-28.661C1085.213,496.836,1072.359,509.668,1072.359,525.497 M1144.154,1060.564
	c0-15.84-12.865-28.672-28.725-28.672c-15.85,0-28.713,12.832-28.713,28.672s12.863,28.661,28.713,28.661
	C1131.289,1089.226,1144.154,1076.404,1144.154,1060.564 M1163.293,826.47c0-15.831-12.854-28.66-28.713-28.66
	c-15.861,0-28.715,12.829-28.715,28.66c0,15.834,12.854,28.667,28.715,28.667C1150.439,855.137,1163.293,842.304,1163.293,826.47
	 M1321.23,640.157c0-15.831-12.854-28.67-28.725-28.67c-15.85,0-28.715,12.839-28.715,28.67c0,15.829,12.865,28.664,28.715,28.664
	C1308.377,668.821,1321.23,655.986,1321.23,640.157 M1479.168,826.47c0-15.831-12.863-28.66-28.713-28.66
	c-15.861,0-28.725,12.829-28.725,28.66c0,15.834,12.863,28.667,28.725,28.667C1466.305,855.137,1479.168,842.304,1479.168,826.47
	 M1522.24,826.47c0,39.578-32.139,71.667-71.785,71.667c-11.09,0-21.584-2.506-30.961-6.99l-103.045,102.874v119.44
	l-143.248,142.974h199.967c9.855-27.826,36.449-47.779,67.711-47.779c39.656,0,71.787,32.087,71.787,71.67
	c0,39.584-32.131,71.659-71.787,71.659c-31.262,0-57.855-19.942-67.711-47.779H1125.34l-153.48,153.218V1614.4l128.879-128.649
	h148.008c9.857-27.838,36.441-47.771,67.703-47.771c39.635,0,71.785,32.077,71.785,71.65c0,39.594-32.15,71.67-71.785,71.67
	c-31.262,0-57.846-19.933-67.703-47.781h-128.189l-138.789,138.548h-67.68l-134.005-133.765H647.115
	c-9.862,27.838-36.451,47.771-67.707,47.771c-39.647,0-71.786-32.088-71.786-71.65c0-39.584,32.139-71.67,71.786-71.67
	c31.256,0,57.845,19.943,67.707,47.769h85.103l-160.151-159.857c-9.365,4.489-19.858,6.985-30.938,6.985
	c-39.657,0-71.796-32.086-71.796-71.66c0-39.563,32.139-71.66,71.796-71.66c39.636,0,71.784,32.098,71.784,71.66
	c0,11.068-2.516,21.541-6.996,30.896l160.142,159.859v-89.735c-27.884-9.835-47.859-36.377-47.859-67.566
	c0-39.594,32.144-71.67,71.79-71.67s71.785,32.076,71.785,71.67c0,31.189-19.974,57.731-47.853,67.566v137.515L923.996,1614.4
	v-357.62l-206.13-205.77H584.899c-9.856,27.826-36.452,47.769-67.707,47.769c-39.642,0-71.791-32.075-71.791-71.659
	c0-39.573,32.149-71.659,71.791-71.659c31.255,0,57.851,19.942,67.707,47.769h85.103L521.979,855.478v-152.52
	c-27.883-9.836-47.858-36.376-47.858-67.578c0-39.578,32.144-71.664,71.78-71.664c39.657,0,71.796,32.086,71.796,71.664
	c0,31.202-19.979,57.742-47.854,67.578v132.726l134.005,133.77v-89.727c-27.889-9.845-47.863-36.385-47.863-67.586
	c0-39.581,32.144-71.662,71.785-71.662c39.657,0,71.796,32.081,71.796,71.662c0,31.201-19.975,57.741-47.864,67.586v137.495
	l172.294,171.992V688.27l-98.265-98.096c-9.376,4.479-19.871,6.983-30.959,6.983c-39.646,0-71.785-32.082-71.785-71.66
	c0-39.573,32.139-71.66,71.785-71.66c39.656,0,71.795,32.087,71.795,71.66c0,11.065-2.511,21.543-6.996,30.894l88.355,88.204
	l88.346-88.204c-4.469-9.351-6.986-19.828-6.986-30.894c0-39.573,32.139-71.66,71.797-71.66c39.635,0,71.773,32.087,71.773,71.66
	c0,39.578-32.139,71.66-71.773,71.66c-11.1,0-21.582-2.504-30.971-6.983l-98.254,98.096v701.598l119.648-119.44v-142.275
	c-27.889-9.846-47.863-36.388-47.863-67.587c0-39.573,32.148-71.66,71.785-71.66c39.656,0,71.795,32.087,71.795,71.66
	c0,31.199-19.975,57.741-47.863,67.587v94.507l129.213-128.994v-99.644l-103.047-102.874c-9.377,4.484-19.869,6.99-30.947,6.99
	c-39.658,0-71.787-32.089-71.787-71.667c0-39.577,32.129-71.66,71.787-71.66c39.645,0,71.795,32.083,71.795,71.66
	c0,11.065-2.516,21.544-7.006,30.898l69.205,69.096V707.736c-27.879-9.838-47.854-36.377-47.854-67.579
	c0-39.578,32.139-71.663,71.785-71.663c39.656,0,71.797,32.085,71.797,71.663c0,31.202-19.977,57.741-47.854,67.579v218.728
	l69.205-69.096c-4.479-9.354-6.996-19.833-6.996-30.898c0-39.577,32.139-71.66,71.797-71.66
	C1490.102,754.81,1522.24,786.893,1522.24,826.47 M953.568,50.447c-0.01,1.901-0.857,3.692-2.539,5.374l-3.041,3.041
	c-1.705,1.705-3.494,2.552-5.373,2.54c-1.877-0.011-3.656-0.858-5.338-2.54l-6.912-6.911c-1.703-1.704-2.556-3.489-2.556-5.355
	s0.853-3.65,2.556-5.356l3.042-3.041c1.681-1.681,3.466-2.534,5.355-2.557c1.889-0.022,3.687,0.818,5.391,2.523l6.911,6.91
	C952.746,46.756,953.58,48.548,953.568,50.447 M921.418,51.362l16.447,16.448c0.23,0.23,0.346,0.426,0.346,0.587
	c0,0.162-0.104,0.346-0.313,0.553l-2.211,2.211c-0.391,0.393-0.783,0.393-1.174,0l-16.448-16.448
	c-0.392-0.391-0.403-0.771-0.035-1.14l2.211-2.211C920.635,50.971,921.025,50.971,921.418,51.362 M917.928,48.978l-2.246,2.246
	c-0.369,0.368-0.749,0.357-1.141-0.035l-3.144-3.145c-0.368-0.367-0.369-0.736,0-1.106l2.246-2.245c0.368-0.368,0.737-0.368,1.106,0
	l3.144,3.144C918.285,48.23,918.295,48.61,917.928,48.978 M922.766,74.478c-0.369-0.368-0.357-0.748,0.033-1.14l2.351-2.35
	c0.368-0.368,0.737-0.368,1.105,0l4.216,4.216c0.392,0.392,0.403,0.772,0.034,1.14l-2.35,2.35c-0.392,0.392-0.782,0.392-1.175,0
	L922.766,74.478z M909.083,68.397l-3.214,3.213c-0.253,0.254-0.265,0.496-0.035,0.726l8.88,8.88
	c1.682,1.681,3.387,1.659,5.115-0.069l1.347-1.348c0.415-0.415,0.818-0.426,1.209-0.035l1.797,1.797
	c0.369,0.368,0.346,0.76-0.069,1.175l-1.866,1.866c-1.704,1.706-3.5,2.581-5.389,2.626c-1.889,0.047-3.674-0.771-5.356-2.453
	l-9.053-9.053c-0.23-0.23-0.461-0.23-0.691,0l-1.658,1.659c-0.231,0.23-0.427,0.346-0.588,0.346c-0.162,0-0.346-0.104-0.553-0.311
	l-1.797-1.797c-0.392-0.391-0.392-0.783,0-1.174l1.658-1.659c0.23-0.23,0.23-0.461,0-0.691l-3.11-3.11
	c-0.391-0.391-0.38-0.794,0.035-1.209l2.177-2.177c0.392-0.391,0.784-0.391,1.175,0l3.11,3.11c0.23,0.231,0.473,0.219,0.726-0.034
	l3.214-3.213c0.415-0.415,0.817-0.426,1.208-0.035l1.797,1.797C909.52,67.59,909.497,67.982,909.083,68.397 M894.19,80.179
	c1.819,0.024,3.593,0.898,5.321,2.626l11.679,11.679c0.393,0.393,0.38,0.795-0.034,1.21l-2.177,2.176
	c-0.392,0.392-0.783,0.392-1.174,0L896.262,86.33c-1.704-1.705-3.397-1.716-5.08-0.035l-1.624,1.624
	c-1.889,1.889-1.854,3.813,0.104,5.771l11.161,11.161c0.392,0.392,0.392,0.783,0,1.174l-2.177,2.177
	c-0.393,0.392-0.783,0.392-1.174,0l-16.448-16.448c-0.391-0.392-0.391-0.783,0-1.175l2.177-2.177c0.391-0.392,0.784-0.392,1.175,0
	l1.244,1.245l0.138-0.139c-0.667-1.774-0.115-3.548,1.659-5.322l1.52-1.52C890.618,80.986,892.37,80.157,894.19,80.179
	 M876.706,96.074l16.447,16.448c0.392,0.392,0.38,0.794-0.034,1.209l-2.178,2.177c-0.391,0.392-0.783,0.392-1.174,0l-1.244-1.244
	l-0.139,0.138c0.669,1.774,0.115,3.548-1.658,5.321l-1.348,1.348c-1.705,1.705-3.495,2.552-5.373,2.54
	c-1.877-0.012-3.657-0.858-5.338-2.54l-6.912-6.911c-1.704-1.705-2.557-3.49-2.557-5.355c0-1.866,0.852-3.651,2.557-5.356l7.74-7.74
	C875.911,95.694,876.314,95.683,876.706,96.074 M861.398,116.081l-3.213,3.213c-0.254,0.253-0.265,0.496-0.035,0.726l8.88,8.879
	c1.682,1.682,3.386,1.659,5.114-0.068l1.347-1.348c0.414-0.415,0.818-0.426,1.209-0.035l1.796,1.796
	c0.37,0.37,0.346,0.76-0.069,1.175l-1.866,1.866c-1.705,1.705-3.5,2.58-5.39,2.626c-1.889,0.046-3.675-0.772-5.356-2.453
	l-9.053-9.054c-0.23-0.23-0.461-0.23-0.69,0l-1.66,1.659c-0.23,0.23-0.426,0.346-0.587,0.345c-0.161,0.001-0.346-0.103-0.553-0.31
	l-1.796-1.797c-0.392-0.392-0.392-0.783,0-1.175l1.658-1.659c0.23-0.23,0.23-0.46,0-0.691l-3.109-3.11
	c-0.391-0.391-0.38-0.795,0.035-1.209l2.177-2.177c0.392-0.391,0.784-0.391,1.175,0l3.11,3.11c0.23,0.231,0.472,0.219,0.726-0.034
	l3.214-3.213c0.415-0.415,0.818-0.427,1.209-0.035l1.797,1.797C861.836,115.274,861.813,115.666,861.398,116.081 M846.644,126.135
	l1.693,1.693c0.393,0.392,0.403,0.772,0.035,1.14l-5.045,5.045c-0.691,0.691-1.1,1.342-1.226,1.952
	c-0.128,0.61,0.005,1.111,0.397,1.503l0.38,0.38c0.738,0.737,1.97,0.794,3.698,0.173l5.735-1.866
	c1.728-0.667,3.179-0.864,4.354-0.588c1.174,0.277,2.338,0.991,3.49,2.143c2.994,2.995,2.775,6.208-0.657,9.641l-6.358,6.358
	c-0.391,0.392-0.783,0.392-1.175,0l-1.692-1.693c-0.369-0.368-0.357-0.749,0.034-1.14l5.806-5.806
	c1.497-1.497,1.728-2.764,0.691-3.801l-0.415-0.415c-0.921-0.92-2.166-1.082-3.732-0.483l-5.563,1.97
	c-1.728,0.622-3.19,0.864-4.388,0.726c-1.199-0.138-2.338-0.749-3.421-1.832c-2.972-2.972-2.812-6.104,0.484-9.399l5.735-5.735
	C845.873,125.733,846.253,125.744,846.644,126.135 M831.647,141.132l16.448,16.447c0.23,0.231,0.345,0.427,0.345,0.588
	c0,0.162-0.104,0.345-0.311,0.553l-2.211,2.211c-0.392,0.392-0.783,0.392-1.175,0l-16.448-16.447
	c-0.391-0.392-0.403-0.772-0.034-1.141l2.212-2.211C830.865,140.74,831.257,140.74,831.647,141.132 M828.158,138.747l-2.246,2.247
	c-0.368,0.368-0.748,0.357-1.141-0.035l-3.144-3.145c-0.368-0.369-0.369-0.737,0-1.106l2.246-2.246c0.368-0.368,0.738-0.368,1.106,0
	l3.144,3.145C828.516,137.999,828.526,138.379,828.158,138.747 M816.686,154.918l5.736-5.736c0.368-0.368,0.749-0.357,1.14,0.035
	l1.694,1.693c0.391,0.392,0.402,0.771,0.034,1.14l-5.045,5.044c-0.69,0.691-1.1,1.343-1.226,1.953
	c-0.127,0.611,0.006,1.112,0.398,1.503l0.38,0.38c0.737,0.738,1.969,0.795,3.697,0.172l5.736-1.866
	c1.728-0.667,3.179-0.863,4.354-0.587c1.174,0.276,2.338,0.991,3.49,2.142c2.995,2.995,2.775,6.208-0.656,9.641l-6.358,6.357
	c-0.393,0.392-0.783,0.392-1.175,0l-1.693-1.693c-0.368-0.368-0.357-0.748,0.035-1.141l5.804-5.805
	c1.497-1.497,1.728-2.764,0.691-3.8l-0.415-0.415c-0.921-0.921-2.166-1.083-3.732-0.484l-5.563,1.97
	c-1.728,0.622-3.191,0.865-4.389,0.726c-1.198-0.138-2.337-0.748-3.421-1.832C813.23,161.346,813.392,158.213,816.686,154.918
	 M810.259,167.081l-5.044,5.045c-0.691,0.691-1.101,1.342-1.227,1.952c-0.127,0.61,0.005,1.112,0.397,1.503l0.38,0.38
	c0.737,0.737,1.969,0.794,3.697,0.172l5.736-1.866c1.728-0.667,3.179-0.864,4.354-0.587c1.175,0.276,2.339,0.991,3.49,2.142
	c2.995,2.995,2.776,6.208-0.656,9.641l-6.359,6.357c-0.391,0.393-0.782,0.393-1.174,0l-1.694-1.692
	c-0.368-0.369-0.357-0.749,0.035-1.141l5.804-5.805c1.498-1.497,1.729-2.765,0.691-3.801l-0.415-0.415
	c-0.921-0.921-2.166-1.083-3.732-0.484l-5.563,1.97c-1.728,0.622-3.19,0.864-4.388,0.726c-1.198-0.137-2.338-0.749-3.42-1.831
	c-2.972-2.972-2.811-6.104,0.483-9.399l5.736-5.735c0.368-0.369,0.749-0.356,1.141,0.034l1.692,1.693
	C810.617,166.333,810.627,166.712,810.259,167.081 M793.743,179.037l16.448,16.448c0.392,0.392,0.38,0.794-0.034,1.209l-2.178,2.177
	c-0.392,0.393-0.783,0.393-1.175,0l-1.243-1.244l-0.139,0.139c0.669,1.774,0.115,3.547-1.658,5.321l-1.348,1.348
	c-1.705,1.705-3.496,2.552-5.373,2.54s-3.657-0.857-5.339-2.54l-6.911-6.911c-1.704-1.704-2.557-3.489-2.557-5.355
	s0.852-3.65,2.557-5.355l7.74-7.741C792.948,178.656,793.352,178.645,793.743,179.037 M782.064,201.22l1.52,1.521
	c0.415,0.415,0.426,0.818,0.035,1.209l-6.842,6.842c-0.391,0.392-0.794,0.38-1.208-0.035l-1.521-1.52
	c-0.415-0.414-0.426-0.817-0.035-1.209l6.842-6.842C781.247,200.794,781.649,200.805,782.064,201.22 M770.558,211.759l4.388,4.389
	c0.415,0.414,0.415,0.829,0,1.244l-9.26,9.26c-0.254,0.254-0.265,0.496-0.035,0.726l1.486,1.486c1.682,1.682,3.362,1.682,5.044,0
	l6.98-6.98c0.415-0.414,0.83-0.414,1.244,0l1.728,1.728c0.369,0.369,0.345,0.76-0.069,1.175l-7.464,7.464
	c-1.704,1.705-3.495,2.552-5.373,2.54c-1.877-0.012-3.656-0.858-5.338-2.54l-6.912-6.91c-1.704-1.705-2.557-3.49-2.557-5.356
	s0.853-3.651,2.557-5.355l2.834-2.834c1.704-1.705,3.495-2.563,5.373-2.574S768.854,210.054,770.558,211.759 M753.144,229.174
	l11.679,11.679c0.392,0.392,0.391,0.783,0,1.175l-2.211,2.212c-0.392,0.392-0.783,0.392-1.175,0l-11.541-11.542
	c-1.705-1.704-3.386-1.727-5.045-0.068l-1.001,1.002c-1.913,1.912-1.866,3.87,0.138,5.874l11.092,11.092
	c0.392,0.393,0.38,0.795-0.035,1.21l-2.177,2.177c-0.392,0.392-0.783,0.392-1.175,0l-11.541-11.541
	c-1.705-1.705-3.387-1.729-5.044-0.069l-1.209,1.209c-1.889,1.89-1.854,3.813,0.103,5.771l11.161,11.161
	c0.392,0.392,0.392,0.783,0,1.175l-2.177,2.177c-0.392,0.393-0.783,0.393-1.174,0l-16.448-16.448c-0.392-0.391-0.392-0.782,0-1.174
	l2.177-2.177c0.392-0.393,0.783-0.393,1.175,0l1.244,1.243l0.138-0.138c-0.553-1.889,0.057-3.721,1.831-5.494l1.141-1.141
	c2.003-2.004,4.192-2.672,6.565-2.004c-0.369-1.104-0.368-2.234,0-3.386c0.37-1.152,0.991-2.165,1.866-3.041l1.106-1.106
	c1.681-1.681,3.433-2.499,5.253-2.453C749.676,226.594,751.438,227.469,753.144,229.174 M720.767,253.638
	c1.888-0.023,3.686,0.817,5.39,2.521l6.911,6.912c1.682,1.681,2.517,3.473,2.505,5.373c-0.012,1.9-0.858,3.691-2.54,5.372
	l-3.04,3.041c-1.706,1.705-3.495,2.552-5.374,2.539c-1.877-0.011-3.657-0.857-5.339-2.539l-6.91-6.91
	c-1.705-1.705-2.557-3.491-2.557-5.356s0.851-3.65,2.557-5.356l3.041-3.04C717.092,254.513,718.877,253.66,720.767,253.638
	 M708.569,273.747l11.679,11.68c0.392,0.392,0.38,0.795-0.035,1.209l-2.177,2.177c-0.392,0.393-0.783,0.393-1.175,0l-11.542-11.541
	c-1.704-1.704-3.397-1.716-5.079-0.034l-1.624,1.624c-1.889,1.889-1.854,3.813,0.104,5.771l11.161,11.161
	c0.393,0.392,0.392,0.783,0,1.175l-2.177,2.177c-0.392,0.392-0.783,0.392-1.175,0l-23.117-23.117c-0.392-0.391-0.392-0.782,0-1.174
	l2.177-2.177c0.392-0.392,0.784-0.392,1.174,0l7.914,7.912l0.138-0.138c-0.668-1.773-0.115-3.548,1.659-5.321l1.521-1.521
	c1.681-1.682,3.433-2.511,5.252-2.488C705.068,271.145,706.841,272.02,708.569,273.747 M1883.744,922.653l-198.797-202.719V400.223
	c0-20.518-16.621-37.156-37.139-37.156h-155.41c-20.529,0-37.172,16.639-37.172,37.156v87.059L987.584,16.458
	c-0.115-0.12-0.24-0.245-0.365-0.363c-21.885-21.638-57.177-21.431-78.812,0.457L12.874,922.539C4.625,930.86,0,942.127,0,953.872
	c0,24.622,19.964,44.587,44.591,44.587h166.306v636.511c0,20.517,16.632,37.151,37.15,37.151h1399.761
	c20.518,0,37.139-16.635,37.139-37.151V998.459h166.971c11.664,0,22.877-4.574,31.211-12.76
	C1900.711,968.459,1900.982,940.236,1883.744,922.653"/>
</svg>
