<svg xmlns="http://www.w3.org/2000/svg" xmlns:xlink="http://www.w3.org/1999/xlink" id="Layer_1" width="251.218" height="538.583" x="0" y="0" enable-background="new 0 0 251.218 538.583" version="1.1" viewBox="0 0 251.218 538.583" xml:space="preserve"><g><path fill="#C6C6C6" d="M90.439,379.785c3.7,0,6.7,2.995,6.7,6.689c0,3.691-3,6.683-6.7,6.683s-6.699-2.991-6.699-6.683 C83.74,382.78,86.74,379.785,90.439,379.785 M185.346,383.131c3.696,0,6.699,2.99,6.699,6.684c0,3.692-3.003,6.688-6.699,6.688 c-3.702,0-6.697-2.996-6.697-6.688C178.648,386.121,181.644,383.131,185.346,383.131 M227.775,424.364 c3.697,0,6.698,2.997,6.698,6.69c0,3.694-3.001,6.686-6.698,6.686c-3.704,0-6.702-2.991-6.702-6.686 C221.073,427.361,224.071,424.364,227.775,424.364 M169.713,450.004c3.702,0,6.699,2.989,6.699,6.683s-2.997,6.689-6.699,6.689 c-3.7,0-6.7-2.996-6.7-6.689S166.013,450.004,169.713,450.004 M98.253,450.004c3.704,0,6.701,2.989,6.701,6.683 s-2.997,6.689-6.701,6.689c-3.698,0-6.696-2.996-6.696-6.689S94.555,450.004,98.253,450.004 M53.594,423.25 c3.7,0,6.699,2.997,6.699,6.689c0,3.693-2.999,6.688-6.699,6.688c-3.701,0-6.699-2.994-6.699-6.688 C46.896,426.247,49.893,423.25,53.594,423.25 M16.746,379.785c3.701,0,6.701,2.995,6.701,6.689c0,3.691-3,6.683-6.701,6.683 c-3.698,0-6.698-2.991-6.698-6.683C10.048,382.78,13.048,379.785,16.746,379.785 M48.01,220.405c3.702,0,6.702,2.993,6.702,6.688 c0,3.692-3,6.689-6.702,6.689c-3.701,0-6.698-2.997-6.698-6.689C41.312,223.398,44.309,220.405,48.01,220.405 M18.981,273.902 c3.7,0,6.698,2.994,6.698,6.688c0,3.693-2.998,6.689-6.698,6.689s-6.699-2.996-6.699-6.689 C12.282,276.896,15.281,273.902,18.981,273.902 M94.907,325.17c3.698,0,6.698,2.994,6.698,6.692c0,3.695-3,6.685-6.698,6.685 c-3.702,0-6.7-2.989-6.7-6.685C88.207,328.164,91.205,325.17,94.907,325.17 M234.474,332.975c3.698,0,6.698,2.993,6.698,6.686 s-3,6.688-6.698,6.688c-3.704,0-6.698-2.995-6.698-6.688S230.77,332.975,234.474,332.975 M228.89,277.248 c3.697,0,6.702,2.997,6.702,6.688c0,3.689-3.005,6.684-6.702,6.684c-3.701,0-6.698-2.994-6.698-6.684 C222.191,280.245,225.188,277.248,228.89,277.248 M170.831,269.445c3.698,0,6.7,2.994,6.7,6.684c0,3.695-3.002,6.692-6.7,6.692 c-3.703,0-6.7-2.997-6.7-6.692C164.131,272.438,167.128,269.445,170.831,269.445 M219.955,219.292c3.704,0,6.7,2.993,6.7,6.687 s-2.996,6.687-6.7,6.687c-3.697,0-6.7-2.993-6.7-6.687S216.258,219.292,219.955,219.292 M75.322,379.265 c-1.046,2.181-1.633,4.629-1.633,7.21c0,9.232,7.499,16.717,16.75,16.717s16.748-7.484,16.748-16.717 c0-9.236-7.497-16.719-16.748-16.719c-2.585,0-5.033,0.581-7.222,1.632l-24.04-24.008v-23.244l30.145-30.091v22.049 c-6.505,2.295-11.167,8.484-11.167,15.769c0,9.229,7.5,16.716,16.75,16.716c9.249,0,16.745-7.487,16.745-16.716 c0-7.284-4.657-13.474-11.163-15.769v-33.192l27.914-27.866v163.68L105.477,441.6c-2.188-1.043-4.634-1.63-7.224-1.63 c-9.247,0-16.744,7.486-16.744,16.717c0,9.236,7.497,16.719,16.744,16.719c9.252,0,16.748-7.482,16.748-16.719 c0-2.58-0.585-5.024-1.629-7.203l20.614-20.577l20.613,20.577c-1.05,2.179-1.633,4.623-1.633,7.203 c0,9.236,7.498,16.719,16.746,16.719c9.25,0,16.747-7.482,16.747-16.719c0-9.23-7.497-16.717-16.747-16.717 c-2.587,0-5.036,0.587-7.224,1.63l-22.921-22.884v-116.87l40.193,40.127v32.074c-6.506,2.297-11.167,8.492-11.167,15.768 c0,9.238,7.498,16.719,16.751,16.719c9.246,0,16.747-7.48,16.747-16.719c0-7.275-4.66-13.471-11.163-15.768v-20.933l31.262,31.208 v30.966c-6.507,2.295-11.166,8.484-11.166,15.767c0,9.229,7.497,16.721,16.75,16.721c9.246,0,16.743-7.491,16.743-16.721 c0-7.282-4.658-13.472-11.164-15.767v-35.585l-34.534-34.467h19.854c2.3,6.491,8.507,11.143,15.8,11.143 c9.247,0,16.744-7.482,16.744-16.719c0-9.232-7.497-16.718-16.744-16.718c-7.293,0-13.5,4.657-15.8,11.149h-31.018l-48.088-48.008 v-83.431l25.681,25.634v32.079c-6.51,2.296-11.167,8.486-11.167,15.762c0,9.241,7.496,16.719,16.749,16.719 c9.246,0,16.745-7.478,16.745-16.719c0-7.276-4.66-13.466-11.164-15.762v-20.934l37.36,37.294c-1.043,2.186-1.632,4.628-1.632,7.21 c0,9.227,7.498,16.717,16.749,16.717c9.248,0,16.745-7.49,16.745-16.717c0-9.235-7.497-16.718-16.745-16.718 c-2.586,0-5.035,0.583-7.219,1.628l-37.363-37.293h19.854c2.301,6.491,8.504,11.144,15.794,11.144 c9.254,0,16.75-7.486,16.75-16.719c0-9.23-7.496-16.717-16.75-16.717c-7.29,0-13.493,4.649-15.794,11.144H173.14l-31.263-31.207 h-15.79L93.709,221.52H63.806c-2.3-6.496-8.504-11.145-15.796-11.145c-9.247,0-16.746,7.483-16.746,16.719 c0,9.233,7.5,16.717,16.746,16.717c7.292,0,13.496-4.649,15.796-11.146h34.528l30.068-30.012v36.622l-35.807,35.741H34.777 c-2.298-6.49-8.504-11.143-15.796-11.143c-9.251,0-16.748,7.487-16.748,16.718c0,9.232,7.497,16.72,16.748,16.72 c7.292,0,13.498-4.652,15.796-11.144h46.649L48.01,319.521v27.859l-24.041,24.008c-2.187-1.051-4.635-1.632-7.223-1.632 C7.497,369.756,0,377.238,0,386.475c0,9.232,7.497,16.717,16.746,16.717c9.251,0,16.75-7.484,16.75-16.717 c0-2.581-0.586-5.029-1.63-7.21l16.145-16.118v51.028c-6.503,2.294-11.164,8.482-11.164,15.765c0,9.231,7.499,16.719,16.749,16.719 s16.747-7.487,16.747-16.719c0-7.282-4.659-13.471-11.163-15.765v-51.028L75.322,379.265z"/><path fill="#006DB1" d="M207.944,506.621c-0.796,0.751-1.594,1.763-2.386,3.048c-0.794,1.284-1.533,2.712-2.222,4.282 c-0.688,1.573-1.245,3.093-1.672,4.559c-0.43,1.437-0.733,2.927-0.918,4.468c-0.185,1.543-0.241,2.978-0.185,4.307 c0.063,1.33,0.277,2.467,0.646,3.413c0.364,0.946,0.896,1.526,1.599,1.743c0.646,0.21,1.315,0.074,2.021-0.414 c0.701-0.489,1.403-1.237,2.104-2.245c0.701-1.009,1.366-2.252,1.996-3.735c0.624-1.48,1.168-3.091,1.624-4.831 c0.398-1.438,0.716-3.019,0.961-4.744s0.366-3.336,0.366-4.831c0-1.529-0.146-2.834-0.433-3.918 c-0.291-1.087-0.74-1.72-1.351-1.903C209.451,505.607,208.735,505.874,207.944,506.621 M220.013,504.239 c0.533,1.055,0.923,2.251,1.168,3.598c0.336,2.229,0.414,4.648,0.231,7.259c-0.182,2.613-0.636,5.21-1.351,7.791 c-0.722,2.58-1.698,5.015-2.932,7.308c-1.241,2.289-2.762,4.231-4.563,5.816c-1.223,0.946-2.506,1.582-3.845,1.903 c-1.349,0.319-2.891,0.39-4.632,0.205c-1.156-0.123-2.351-0.313-3.569-0.572c-1.223-0.26-2.336-0.649-3.346-1.169 c-0.826-0.427-1.637-0.978-2.429-1.649s-1.422-1.435-1.88-2.288c-0.73-1.406-1.283-2.996-1.648-4.767 c-0.364-1.771-0.532-3.635-0.505-5.589c0.032-1.956,0.26-3.948,0.688-5.98c0.428-2.03,1.053-4.009,1.881-5.931 c0.822-1.926,1.84-3.75,3.048-5.474c1.206-1.727,2.599-3.279,4.191-4.653c1.064-0.823,2.341-1.448,3.824-1.877 c1.482-0.427,2.895-0.535,4.236-0.321c1.74,0.272,3.397,0.701,4.969,1.283c1.576,0.58,2.88,1.283,3.919,2.105 C218.633,502.184,219.479,503.186,220.013,504.239 M191.79,502.567c0.169,0.429,0.145,1.054-0.065,1.878 c-0.429,1.373-0.896,2.947-1.4,4.718c-0.505,1.772-1.007,3.646-1.509,5.613c-0.504,1.97-1.001,3.987-1.49,6.049 c-0.491,2.062-0.961,4.077-1.422,6.049c-0.458,1.968-0.875,3.83-1.262,5.587c-0.378,1.759-0.706,3.322-0.983,4.696 c-0.149,0.52-0.355,0.854-0.615,1.007c-0.26,0.154-0.79,0.14-1.582-0.045c-0.794-0.215-1.551-0.428-2.271-0.643 c-0.714-0.212-1.396-0.487-2.037-0.823c-0.7-0.335-1.169-0.725-1.399-1.168c-0.225-0.443-0.297-1.06-0.204-1.855 c0.062-1.07,0.189-2.451,0.39-4.146c0.201-1.696,0.445-3.552,0.732-5.567c0.289-2.015,0.621-4.139,0.987-6.368 c0.364-2.229,0.739-4.413,1.119-6.553c0.386-2.136,0.774-4.159,1.169-6.069c0.397-1.909,0.762-3.58,1.099-5.016 c0.274-0.885,0.649-1.426,1.127-1.627c0.469-0.199,1.183-0.162,2.129,0.113c0.946,0.245,1.972,0.612,3.067,1.101 c1.1,0.49,2.06,1.01,2.889,1.557C191.113,501.636,191.622,502.141,191.79,502.567 M162.4,532.277 c0.337-0.563,0.778-1.039,1.33-1.42c0.55-0.381,1.206-0.635,1.968-0.755c0.764-0.124,1.62-0.062,2.567,0.184 c1.254,0.396,2.162,0.952,2.726,1.672c0.568,0.717,0.83,1.429,0.803,2.13c0,0.43-0.077,0.87-0.231,1.327 c-0.091,0.276-0.261,0.596-0.503,0.963c-0.241,0.367-0.563,0.71-0.964,1.033c-0.392,0.319-0.869,0.596-1.416,0.822 c-0.552,0.229-1.164,0.345-1.832,0.345c-0.705,0.028-1.372-0.063-1.995-0.274c-0.624-0.216-1.168-0.514-1.623-0.893 c-0.464-0.384-0.814-0.855-1.058-1.423c-0.241-0.563-0.353-1.197-0.317-1.9C161.883,533.446,162.064,532.845,162.4,532.277 M133.632,527.674c0.61-0.092,1.222-0.122,1.831-0.092c0.609,0.031,1.196,0.13,1.764,0.297c0.564,0.168,1.078,0.406,1.533,0.71 c2.595,1.622,4.857,2.658,6.784,3.115c1.922,0.459,3.31,0.337,4.167-0.365c0.364-0.246,0.452-0.543,0.252-0.895 c-0.201-0.351-0.578-0.754-1.147-1.214c-0.562-0.458-1.265-0.961-2.104-1.512c-0.844-0.548-1.738-1.116-2.684-1.694 c-0.948-0.579-1.896-1.185-2.841-1.809c-0.947-0.626-1.801-1.261-2.562-1.902c-0.855-0.672-1.614-1.443-2.269-2.315 c-0.661-0.87-1.167-1.808-1.535-2.816c-0.37-1.01-0.566-2.075-0.595-3.206c-0.035-1.129,0.149-2.32,0.548-3.574 c0.273-1.099,0.74-2.262,1.4-3.482c0.65-1.221,1.43-2.403,2.335-3.55c0.897-1.146,1.896-2.213,2.975-3.208 c1.087-0.99,2.191-1.839,3.321-2.544c0.369-0.275,0.842-0.54,1.426-0.8c0.576-0.26,1.233-0.449,1.968-0.573 c0.732-0.12,1.524-0.16,2.381-0.113c0.854,0.045,1.738,0.205,2.659,0.482c1.375,0.484,2.753,1.097,4.145,1.831 c1.392,0.731,2.561,1.527,3.507,2.382c0.611,0.579,1.081,1.162,1.418,1.741c0.336,0.579,0.571,1.146,0.713,1.694 c0.133,0.551,0.208,1.093,0.226,1.627c0.019,0.535,0.023,1.03,0.023,1.488c-0.119,0.795-0.289,1.695-0.505,2.705 c-0.212,1.006-0.465,2.028-0.755,3.067c-0.288,1.037-0.597,2.034-0.916,2.98c-0.318,0.947-0.649,1.739-0.983,2.38 c-0.371,0.611-0.742,1.001-1.124,1.169c-0.38,0.167-0.954,0.086-1.715-0.253c-4.189-1.402-6.11-3.421-5.773-6.046 c0.059-0.551,0.171-1.177,0.339-1.881c0.168-0.701,0.337-1.411,0.506-2.128c0.167-0.718,0.312-1.4,0.438-2.038 c0.118-0.643,0.158-1.153,0.111-1.536c-0.045-0.383-0.2-0.611-0.459-0.688c-0.26-0.074-0.677,0.099-1.259,0.525 c-0.52,0.276-1.092,0.698-1.715,1.262c-0.631,0.566-1.225,1.206-1.789,1.924c-0.567,0.72-1.063,1.488-1.491,2.314 c-0.429,0.824-0.716,1.656-0.869,2.495c-0.155,0.841-0.137,1.666,0.049,2.475c0.183,0.81,0.624,1.535,1.326,2.178 c0.882,0.854,1.88,1.656,2.979,2.404c1.097,0.75,2.189,1.475,3.275,2.178c1.085,0.702,2.105,1.396,3.07,2.083 c0.964,0.688,1.756,1.39,2.38,2.109c0.626,0.716,1.024,1.473,1.192,2.267c0.168,0.796,0.009,1.65-0.479,2.564 c-0.31,0.644-0.737,1.336-1.285,2.085c-0.547,0.75-1.284,1.442-2.198,2.086c-0.916,0.64-2.033,1.175-3.343,1.602 c-1.314,0.428-2.892,0.658-4.723,0.688c-2.474,0.063-4.88-0.38-7.215-1.327c-2.336-0.945-4.74-2.581-7.214-4.903 c-1.349-1.129-2.049-1.998-2.109-2.609c-0.059-0.582,0.228-1.024,0.872-1.331C132.44,527.933,133.021,527.765,133.632,527.674 M106.095,527.674c0.612-0.092,1.223-0.122,1.833-0.092c0.609,0.031,1.199,0.13,1.764,0.297c0.565,0.168,1.078,0.406,1.533,0.71 c2.597,1.622,4.858,2.658,6.781,3.115c1.924,0.459,3.312,0.337,4.169-0.365c0.367-0.246,0.451-0.543,0.252-0.895 c-0.201-0.351-0.581-0.754-1.147-1.214c-0.565-0.458-1.266-0.961-2.105-1.512c-0.842-0.548-1.735-1.116-2.682-1.694 c-0.946-0.579-1.893-1.185-2.839-1.809c-0.947-0.626-1.803-1.261-2.566-1.902c-0.856-0.672-1.611-1.443-2.267-2.315 c-0.659-0.87-1.168-1.808-1.536-2.816c-0.367-1.01-0.565-2.075-0.597-3.206c-0.03-1.129,0.155-2.32,0.551-3.574 c0.273-1.099,0.74-2.262,1.396-3.482c0.658-1.221,1.437-2.403,2.338-3.55c0.899-1.146,1.893-2.213,2.977-3.208 c1.085-0.99,2.19-1.839,3.321-2.544c0.367-0.275,0.84-0.54,1.42-0.8c0.581-0.26,1.238-0.449,1.971-0.573 c0.733-0.12,1.526-0.16,2.381-0.113c0.855,0.045,1.742,0.205,2.659,0.482c1.375,0.484,2.753,1.097,4.145,1.831 c1.392,0.731,2.561,1.527,3.507,2.382c0.611,0.579,1.081,1.162,1.419,1.741c0.336,0.579,0.571,1.146,0.713,1.694 c0.132,0.551,0.208,1.093,0.225,1.627c0.019,0.535,0.023,1.03,0.023,1.488c-0.119,0.795-0.288,1.695-0.505,2.705 c-0.211,1.006-0.465,2.028-0.755,3.067c-0.288,1.037-0.597,2.034-0.916,2.98c-0.317,0.947-0.649,1.739-0.983,2.38 c-0.37,0.611-0.742,1.001-1.124,1.169c-0.38,0.167-0.954,0.086-1.715-0.253c-4.189-1.402-6.11-3.421-5.775-6.046 c0.061-0.551,0.176-1.177,0.343-1.881c0.167-0.701,0.335-1.411,0.504-2.128c0.167-0.718,0.312-1.4,0.435-2.038 c0.122-0.643,0.161-1.153,0.116-1.536s-0.201-0.611-0.46-0.688c-0.26-0.074-0.678,0.099-1.259,0.525 c-0.52,0.276-1.092,0.698-1.719,1.262c-0.624,0.566-1.22,1.206-1.785,1.924c-0.566,0.72-1.064,1.488-1.491,2.314 c-0.428,0.824-0.716,1.656-0.87,2.495c-0.151,0.841-0.137,1.666,0.046,2.475c0.184,0.81,0.627,1.535,1.33,2.178 c0.885,0.854,1.878,1.656,2.978,2.404c1.099,0.75,2.191,1.475,3.275,2.178c1.083,0.702,2.105,1.396,3.07,2.083 c0.964,0.688,1.757,1.39,2.381,2.109c0.625,0.716,1.024,1.473,1.192,2.267c0.167,0.796,0.008,1.65-0.48,2.564 c-0.31,0.644-0.736,1.336-1.284,2.085c-0.547,0.75-1.283,1.442-2.198,2.086c-0.916,0.64-2.032,1.175-3.345,1.602 c-1.314,0.428-2.886,0.658-4.72,0.688c-2.473,0.063-4.879-0.38-7.215-1.327c-2.336-0.945-4.742-2.581-7.215-4.903 c-1.344-1.129-2.048-1.998-2.108-2.609c-0.061-0.582,0.228-1.024,0.87-1.331C104.905,527.933,105.483,527.765,106.095,527.674 M89.763,521.809c1.388-0.15,2.787-0.274,4.192-0.367c-0.061-2.505-0.107-4.999-0.137-7.49c-0.033-2.489-0.016-4.955,0.045-7.397 c-1.222,2.229-2.543,4.696-3.964,7.397c-1.42,2.703-2.849,5.505-4.282,8.407C86.992,522.146,88.373,521.961,89.763,521.809 M87.518,529.713c-2.277,0.319-4.283,0.709-6.026,1.169c-0.611,1.19-1.143,2.299-1.603,3.321c-0.457,1.023-0.902,2.022-1.329,3 c-0.243,0.52-0.542,0.824-0.892,0.916c-0.352,0.092-0.88,0.017-1.582-0.229c-0.396-0.155-0.831-0.329-1.305-0.527 s-0.955-0.418-1.445-0.665c-0.364-0.244-0.687-0.45-0.961-0.618c-0.274-0.167-0.487-0.373-0.642-0.616 c-0.151-0.245-0.235-0.558-0.253-0.941c-0.014-0.38,0.071-0.893,0.253-1.535c0.733-2.105,1.688-4.58,2.864-7.423 c1.176-2.84,2.442-5.772,3.803-8.797c1.357-3.022,2.747-6.007,4.167-8.954c1.421-2.946,2.773-5.567,4.056-7.858 c0.459-0.823,1.055-1.496,1.788-2.016s1.817-0.716,3.252-0.598c1.251,0.065,2.367,0.162,3.344,0.299 c0.977,0.14,1.872,0.299,2.682,0.48c0.807,0.183,1.558,0.385,2.245,0.597c0.687,0.215,1.382,0.414,2.084,0.596 c0.946,0.339,1.55,0.779,1.81,1.328c0.259,0.553,0.344,1.268,0.252,2.152c-0.186,2.171-0.337,4.659-0.459,7.472 c-0.124,2.808-0.215,5.739-0.273,8.796c-0.064,3.052-0.103,6.114-0.116,9.186c-0.015,3.067-0.008,5.918,0.024,8.543 c0,0.551-0.115,0.933-0.344,1.146c-0.231,0.213-0.742,0.318-1.535,0.318c-0.794,0-1.527-0.021-2.2-0.065 c-0.671-0.047-1.359-0.193-2.063-0.437c-0.733-0.212-1.244-0.488-1.533-0.822c-0.292-0.338-0.499-0.935-0.62-1.79 c-0.122-0.883-0.229-1.855-0.32-2.906c-0.091-1.056-0.183-2.206-0.274-3.462C92.077,529.08,89.794,529.393,87.518,529.713 M73.292,511.271c-0.854,2.84-1.702,5.757-2.542,8.752c-0.839,2.992-1.649,5.971-2.427,8.933c-0.779,2.965-1.474,5.712-2.084,8.247 c0,0.428-0.115,0.711-0.343,0.847c-0.23,0.14-0.545,0.198-0.94,0.184c-0.396-0.017-0.863-0.091-1.396-0.227 c-0.538-0.141-1.108-0.284-1.719-0.438c-1.253-0.365-2.231-0.816-2.933-1.351c-0.702-0.533-0.916-1.351-0.642-2.452 c0.122-1.099,0.304-2.364,0.551-3.802c0.243-1.435,0.532-3.038,0.87-4.812c-1.284,0.185-2.543,0.36-3.781,0.529 c-1.235,0.168-2.496,0.358-3.778,0.57c-0.49,2.108-0.889,4.088-1.193,5.935c-0.305,1.85-0.579,3.505-0.825,4.971 c-0.122,0.52-0.312,0.854-0.572,1.007c-0.259,0.154-0.786,0.14-1.582-0.045c-0.763-0.215-1.551-0.428-2.358-0.643 c-0.809-0.212-1.504-0.487-2.085-0.823c-0.702-0.335-1.207-0.725-1.512-1.168c-0.304-0.443-0.365-1.06-0.182-1.855 c0.458-2.109,0.886-4.566,1.283-7.378c0.397-2.809,0.779-5.741,1.144-8.796c0.368-3.051,0.726-6.1,1.077-9.138 c0.35-3.041,0.711-5.844,1.076-8.408c0.246-0.978,0.597-1.557,1.054-1.74s1.13-0.107,2.015,0.227 c0.979,0.276,2.023,0.649,3.139,1.124c1.116,0.472,2.084,0.986,2.909,1.533c0.459,0.274,0.816,0.534,1.077,0.778 c0.259,0.246,0.444,0.491,0.551,0.735c0.106,0.244,0.144,0.52,0.115,0.822c-0.031,0.309-0.092,0.661-0.185,1.056 c-0.489,1.74-1.001,3.785-1.534,6.139c-0.535,2.354-1.108,4.873-1.719,7.559c1.284-0.152,2.544-0.273,3.781-0.364 c1.235-0.091,2.433-0.183,3.595-0.274c0.764-3.239,1.505-6.453,2.222-9.646c0.716-3.191,1.428-6.086,2.131-8.683 c0.273-0.977,0.663-1.535,1.167-1.672c0.504-0.136,1.229-0.069,2.175,0.206c0.887,0.244,1.803,0.59,2.75,1.033 c0.946,0.441,1.849,0.936,2.704,1.488c0.793,0.577,1.273,1.082,1.441,1.511c0.168,0.428,0.13,1.037-0.114,1.831 C74.942,505.866,74.146,508.432,73.292,511.271"/><path fill="#009FE3" d="M134.358,0h-0.08c-1.612,0.011-3.223,0.636-4.447,1.873L28.502,104.384 c-0.932,0.942-1.456,2.217-1.456,3.545c0,2.787,2.259,5.046,5.044,5.046h18.818v72.021c0,2.321,1.88,4.203,4.204,4.203h158.381 c2.32,0,4.202-1.882,4.202-4.203v-72.021h18.894c1.321,0,2.586-0.517,3.53-1.443c1.987-1.952,2.021-5.145,0.073-7.134 l-22.497-22.938V45.286c0-2.322-1.882-4.206-4.202-4.206h-17.587c-2.322,0-4.203,1.883-4.203,4.206v9.85L138.793,1.863 l-0.042-0.041C137.531,0.617,135.944,0.01,134.358,0 M134.006,43.347L134.006,43.347c12.061,0,21.839,9.776,21.839,21.837 c0,9.296-5.808,17.231-13.996,20.382v47.887l15.796-15.796c-1.113-2.616-1.726-5.496-1.726-8.517 c0-12.061,9.778-21.839,21.839-21.839s21.838,9.778,21.838,21.839s-9.777,21.837-21.838,21.837c-3.297,0-6.42-0.733-9.222-2.041 l-26.688,26.691v33.572H126.17v-33.273l-26.962-26.96c-2.787,1.288-5.887,2.011-9.155,2.011c-12.061,0-21.838-9.777-21.838-21.837 s9.778-21.839,21.838-21.839s21.837,9.778,21.837,21.839c0,3.046-0.627,5.946-1.751,8.582l16.031,16.031V85.566 c-8.189-3.15-14-11.085-14-20.382C112.171,53.123,121.948,43.347,134.006,43.347 M134.006,56.538c-4.771,0-8.643,3.872-8.643,8.646 s3.872,8.646,8.643,8.646c4.776,0,8.646-3.872,8.646-8.646S138.782,56.538,134.006,56.538 M177.758,100.493 c-4.776,0-8.646,3.871-8.646,8.646c0,4.773,3.87,8.646,8.646,8.646c4.771,0,8.646-3.873,8.646-8.646 C186.404,104.364,182.529,100.493,177.758,100.493 M90.054,100.493c-4.777,0-8.646,3.871-8.646,8.646 c0,4.773,3.87,8.646,8.646,8.646c4.775,0,8.646-3.873,8.646-8.646C98.699,104.364,94.829,100.493,90.054,100.493"/></g></svg>